<?xml version="1.0" encoding="UTF-8"?><svg id="Layer_1" xmlns="http://www.w3.org/2000/svg" viewBox="0 0 1004.45 529.54"><defs><style>.cls-1{stroke:#fff;stroke-miterlimit:10;stroke-width:2px;}.cls-2{fill:#fff;}</style></defs><rect class="cls-2" x="81.02" y="104.72" width="860.85" height="261.62"/><path class="cls-1" d="M172.44,31.55c-15.03,0-29.49,2.43-43.01,6.93-41.04,13.58-73.54,46.08-87.12,87.12-4.5,13.53-6.93,27.99-6.93,43.01v287.19h808.49c14.39,0,28.22-2.43,41.09-6.93,36.03-12.56,64.62-41.13,77.18-77.16,4.48-12.89,6.93-26.71,6.93-41.11V31.55H172.44ZM336.63,341.45l-38.99-57.05h-75.18l26.36-39.25h24.51l-29.58-42.88-94.05,139.18h-52.52l121.94-178.98c6-8.98,15.14-14.15,25.08-14.15s19.23,5.21,25.15,14.29l120.17,178.83h-52.9ZM456.51,283.63v57.82h-44.35v-119.66h44.35v22.28h90.28c19.85,0,53.16-3.56,53.16-27.44,0-13.14-6.09-28.22-53.43-28.22h-134.43l21.83-40.09h122.69c54.07,0,87.67,26.27,87.67,68.59s-33.6,66.72-87.67,66.72h-100.1ZM848.9,341.45l-83.03-72.24-83.52,72.24h-60.12l114.96-99.11-107.9-94.01h63.72l75.55,66.61,76.08-66.61h61.49l-108.07,93.01,115.36,100.12h-64.53Z"/><path class="cls-2" d="M97.8,501.21v-42.98c0-26.37,21.46-47.83,47.83-47.83h761.03v42.98c0,26.37-21.46,47.83-47.83,47.83H97.8Z"/><path d="M858.82,502.01H97v-43.78c0-26.81,21.81-48.63,48.63-48.63h761.82v43.78c0,26.81-21.81,48.63-48.63,48.63ZM98.6,500.41h760.23c25.93,0,47.03-21.1,47.03-47.03v-42.18H145.63c-25.93,0-47.03,21.1-47.03,47.03v42.19Z"/><path d="M185.65,440.75v32.66h-7.57v-20.23l-7.75,12.16h-2.71l-7.71-12.06v20.14h-7.57v-32.66h7.34l9.31,14.59,9.27-14.59h7.39Z"/><path d="M202.52,447.22v6.24h13.62v6.47h-13.62v7.02h15.55v6.47h-23.12v-32.66h23.12v6.47h-15.55Z"/><path d="M225.09,465.71v-17.25c0-5.46,2.8-8.17,8.4-8.17h9.86c5.64,0,8.44,2.71,8.44,8.12,0,.32,0,.46-.05.6l-7.52.92v-.32c0-2.11-.78-2.84-3.07-2.84h-5.41c-2.29,0-3.07.73-3.07,2.89v14.86c0,2.16.78,2.89,3.07,2.89h5.41c2.29,0,3.07-.73,3.07-2.84v-.32l7.52.92c.05.14.05.27.05.6,0,5.41-2.8,8.12-8.44,8.12h-9.86c-5.6,0-8.4-2.71-8.4-8.17Z"/><path d="M279.59,460.11h-11.97v13.3h-7.57v-32.66h7.57v12.89h11.97v-12.89h7.57v32.66h-7.57v-13.3Z"/><path d="M304.68,440.75h11.06l10.51,32.66h-7.75l-2.34-7.48h-11.93l-2.34,7.48h-7.75l10.55-32.66ZM314.18,459.52l-3.99-12.75-3.94,12.75h7.94Z"/><path d="M333.12,440.75h7.34l12.57,20.18v-20.18h7.57v32.66h-7.39l-12.52-20.18v20.18h-7.57v-32.66Z"/><path d="M369.82,440.75h7.57v32.66h-7.57v-32.66Z"/><path d="M386.29,465.71v-17.25c0-5.46,2.8-8.17,8.4-8.17h9.86c5.64,0,8.44,2.71,8.44,8.12,0,.32,0,.46-.05.6l-7.52.92v-.32c0-2.11-.78-2.84-3.07-2.84h-5.41c-2.29,0-3.07.73-3.07,2.89v14.86c0,2.16.78,2.89,3.07,2.89h5.41c2.29,0,3.07-.73,3.07-2.84v-.32l7.52.92c.05.14.05.27.05.6,0,5.41-2.8,8.12-8.44,8.12h-9.86c-5.6,0-8.4-2.71-8.4-8.17Z"/><path d="M428.4,440.75h11.06l10.51,32.66h-7.75l-2.34-7.48h-11.93l-2.34,7.48h-7.75l10.55-32.66ZM437.89,459.52l-3.99-12.75-3.95,12.75h7.94Z"/><path d="M456.93,440.75h7.57v26.19h15v6.47h-22.57v-32.66Z"/><path d="M498.21,465.71v-2.71c0-3.53,1.01-5.5,3.9-6.74-2.48-1.47-3.44-3.16-3.44-5.6v-2.2c0-5.46,2.8-8.17,8.44-8.17h9.31c5.64,0,8.44,2.71,8.44,8.12,0,.41,0,.46-.05.6l-7.52.92v-.32c0-2.11-.78-2.84-3.07-2.84h-4.86c-2.34,0-3.12.73-3.12,2.89v1.24c0,2.11.73,2.75,3.12,2.75h20.05v6.47h-4.36v5.64c0,5.41-2.8,8.12-8.4,8.12h-10.05c-5.6,0-8.39-2.71-8.39-8.17ZM508.86,467.41h5.55c2.29,0,3.07-.73,3.07-2.84v-4.45h-8.62c-2.34,0-3.07.69-3.07,2.84v1.56c0,2.16.78,2.89,3.07,2.89Z"/><path d="M556.79,447.22v6.24h13.62v6.47h-13.62v7.02h15.55v6.47h-23.12v-32.66h23.12v6.47h-15.55Z"/><path d="M580.55,440.75h7.57v26.19h15v6.47h-22.57v-32.66Z"/><path d="M617.66,447.22v6.24h13.62v6.47h-13.62v7.02h15.55v6.47h-23.12v-32.66h23.12v6.47h-15.55Z"/><path d="M640.23,465.71v-17.25c0-5.46,2.8-8.17,8.4-8.17h9.86c5.64,0,8.44,2.71,8.44,8.12,0,.32,0,.46-.05.6l-7.52.92v-.32c0-2.11-.78-2.84-3.07-2.84h-5.41c-2.29,0-3.07.73-3.07,2.89v14.86c0,2.16.78,2.89,3.07,2.89h5.41c2.29,0,3.07-.73,3.07-2.84v-.32l7.52.92c.05.14.05.27.05.6,0,5.41-2.8,8.12-8.44,8.12h-9.86c-5.6,0-8.4-2.71-8.4-8.17Z"/><path d="M682.2,447.22h-9.59v-6.47h26.75v6.47h-9.59v26.19h-7.57v-26.19Z"/><path d="M706.33,440.75h17.39c5.6,0,8.4,2.71,8.4,8.17v4.54c0,4.27-1.74,6.84-5.23,7.75l8.58,12.2h-8.85l-8.44-11.84h-4.27v11.84h-7.57v-32.66ZM721.47,455.11c2.29,0,3.07-.73,3.07-2.89v-2.11c0-2.16-.78-2.89-3.07-2.89h-7.57v7.89h7.57Z"/><path d="M742.43,440.75h7.57v32.66h-7.57v-32.66Z"/><path d="M758.9,465.71v-17.25c0-5.46,2.8-8.17,8.4-8.17h9.86c5.64,0,8.44,2.71,8.44,8.12,0,.32,0,.46-.05.6l-7.52.92v-.32c0-2.11-.78-2.84-3.07-2.84h-5.41c-2.29,0-3.07.73-3.07,2.89v14.86c0,2.16.78,2.89,3.07,2.89h5.41c2.29,0,3.07-.73,3.07-2.84v-.32l7.52.92c.05.14.05.27.05.6,0,5.41-2.8,8.12-8.44,8.12h-9.86c-5.6,0-8.4-2.71-8.4-8.17Z"/><path d="M801.01,440.75h11.06l10.51,32.66h-7.75l-2.34-7.48h-11.93l-2.34,7.48h-7.75l10.55-32.66ZM810.51,459.52l-3.99-12.75-3.95,12.75h7.94Z"/><path d="M829.54,440.75h7.57v26.19h15v6.47h-22.57v-32.66Z"/></svg>