<svg viewBox="0 0 400 154" xmlns="http://www.w3.org/2000/svg"><g fill="#fff"><path d="m0 112.8v-22.8h15.2v2.7h-12.2v7.1h10.6v2.7h-10.6v10.4h-3z"/><path d="m27.5 112.8v-22.8h3v22.8z"/><path d="m43.6 112.8v-22.8h10c2 0 3.5.2 4.6.6 1 .4 1.9 1.1 2.5 2.2.6 1 .9 2.2.9 3.4s-.5 3-1.6 4.1c-1 1.1-2.6 1.8-4.8 2.1.8.4 1.4.8 1.8 1.1.9.8 1.7 1.8 2.5 3l3.9 6.2h-3.7l-3-4.8c-.9-1.4-1.6-2.4-2.2-3.1s-1.1-1.2-1.5-1.5-.9-.5-1.4-.6c-.3 0-.9-.1-1.7-.1h-3.5v10.1h-3zm3-12.7h6.4c1.4 0 2.4-.1 3.2-.4s1.4-.7 1.7-1.4c.4-.6.6-1.3.6-2 0-1.1-.4-2-1.2-2.7s-2-1-3.7-1h-7.1v7.6z"/><path d="m74.1 112.8v-22.8h4.5l5.3 16.2c.5 1.5.9 2.6 1.1 3.4.3-.8.7-2 1.2-3.7l5.4-15.9h4v22.8h-2.9v-19.1l-6.5 19.1h-2.7l-6.5-19.4v19.4z"/><path d="m108.3 112.8v-22.8h7.8c1.7 0 3.1.1 4 .3 1.3.3 2.4.8 3.3 1.6 1.2 1 2.1 2.3 2.7 3.9s.9 3.4.9 5.4-.2 3.3-.6 4.6-.9 2.4-1.5 3.3-1.3 1.6-2.1 2.1c-.7.5-1.6.9-2.7 1.1s-2.3.4-3.6.4h-8.1zm3-2.7h4.8c1.5 0 2.7-.1 3.5-.4.9-.3 1.5-.7 2-1.2.7-.7 1.3-1.7 1.7-2.9s.6-2.7.6-4.4-.4-4.2-1.2-5.5-1.7-2.1-2.8-2.6c-.8-.3-2.1-.5-3.9-.5h-4.7v17.4z"/><path d="m136.5 112.8 8.7-22.8h3.2l9.2 22.8h-3.4l-2.6-6.9h-9.4l-2.5 6.9zm6.5-9.3h7.6l-2.3-6.3c-.7-1.9-1.2-3.5-1.6-4.7-.3 1.5-.7 2.9-1.2 4.4l-2.5 6.7z"/><path d="m167.7 112.8v-22.8h3v20.1h11.1v2.7z"/><path d="m193.3 112.8v-22.8h16.3v2.7h-13.3v7h12.5v2.7h-12.5v7.8h13.8v2.7h-16.8z"/><path d="m238.8 112.8v-22.8h3v9.4h11.7v-9.4h3v22.8h-3v-10.8h-11.7v10.8z"/><path d="m268.4 101.7c0-3.8 1-6.8 3-8.9s4.6-3.2 7.8-3.2 4 .5 5.6 1.5c1.7 1 3 2.4 3.8 4.2.9 1.8 1.3 3.9 1.3 6.1s-.5 4.4-1.4 6.2-2.2 3.2-3.9 4.1-3.5 1.4-5.5 1.4-4-.5-5.7-1.6c-1.7-1-2.9-2.5-3.8-4.2-.9-1.8-1.3-3.7-1.3-5.7zm3.1 0c0 2.8.7 4.9 2.2 6.5s3.3 2.4 5.5 2.4 4.1-.8 5.6-2.4 2.2-3.9 2.2-6.8-.3-3.5-.9-4.9-1.5-2.5-2.7-3.2c-1.2-.8-2.5-1.1-4-1.1-2.1 0-3.9.7-5.5 2.2-1.5 1.5-2.3 3.9-2.3 7.4z"/><path d="m307.4 112.8v-20.1h-7.4v-2.7h17.9v2.7h-7.5v20.1z"/><path d="m328.9 112.8v-22.8h16.3v2.7h-13.3v7h12.5v2.7h-12.5v7.8h13.8v2.7h-16.8z"/><path d="m357.5 112.8v-22.8h3v20.1h11.1v2.7z"/><path d="m382 105.5 2.8-.3c.1 1.1.4 2.1.9 2.8s1.2 1.3 2.3 1.8c1 .5 2.2.7 3.5.7s2.1-.2 3-.5 1.5-.8 1.9-1.4.6-1.2.6-1.9-.2-1.3-.6-1.9c-.4-.5-1.1-1-2-1.4-.6-.2-1.9-.6-4-1.1s-3.5-1-4.3-1.4c-1.1-.6-1.9-1.3-2.4-2.1s-.8-1.8-.8-2.9.3-2.2 1-3.2c.6-1 1.6-1.8 2.8-2.3s2.6-.8 4.1-.8 3.1.3 4.4.8c1.3.6 2.3 1.4 3 2.4.7 1.1 1 2.3 1.1 3.6l-2.9.2c-.2-1.4-.7-2.5-1.6-3.3-.9-.7-2.2-1.1-3.9-1.1s-3.1.3-3.9 1-1.2 1.5-1.2 2.4.3 1.5.9 2 2.1 1.1 4.5 1.6c2.4.6 4.1 1 5 1.5 1.3.6 2.3 1.4 2.9 2.3s.9 2 .9 3.2-.4 2.4-1 3.4-1.7 1.9-3 2.5-2.7.9-4.3.9-3.7-.3-5.1-.9-2.5-1.5-3.2-2.7c-.8-1.2-1.2-2.6-1.2-4.1z"/><path d="m63.4 140.6h1.9v11.5h5.9v1.7h-7.7v-13.2z"/><path d="m82.7 140.5c2 0 3.7.6 5 1.9s2 2.9 2 4.9-.7 3.6-2 4.8-3.1 1.9-5.1 1.9-3.6-.6-4.9-1.9-2-2.9-2-4.8.7-3.6 2-4.9 3-1.9 5-1.9zm.1 1.7c-1.5 0-2.7.5-3.7 1.4s-1.4 2.1-1.4 3.6.5 2.6 1.4 3.6c1 .9 2.2 1.4 3.6 1.4s2.7-.5 3.6-1.5c1-1 1.5-2.2 1.5-3.6s-.5-2.6-1.5-3.5c-1-1-2.2-1.4-3.6-1.4z"/><path d="m105.4 140.6h1.8v13.2h-1.6l-8.7-10.2v10.2h-1.7v-13.2h1.5l8.8 10.3v-10.3z"/><path d="m114.8 153.8v-13.2h4.4c1.8 0 3.2.3 4.2.8s1.9 1.3 2.5 2.4c.6 1 .9 2.2.9 3.4s-.2 1.7-.5 2.5-.8 1.5-1.4 2.1-1.4 1.1-2.2 1.4c-.5.2-1 .3-1.4.4-.4 0-1.2 0-2.3 0h-4.1zm4.2-11.5h-2.3v9.8h2.4c.9 0 1.7 0 2.2-.2.5-.1 1-.3 1.3-.5s.7-.4 1-.7c.9-.9 1.4-2.1 1.4-3.6s-.5-2.6-1.4-3.5c-.3-.3-.8-.6-1.2-.8s-.9-.4-1.3-.4-1 0-2 0z"/><path d="m138.1 140.5c2 0 3.7.6 5 1.9s2 2.9 2 4.9-.7 3.6-2 4.8c-1.4 1.3-3.1 1.9-5.1 1.9s-3.6-.6-4.9-1.9-2-2.9-2-4.8.7-3.6 2-4.9 3-1.9 5-1.9zm.1 1.7c-1.5 0-2.7.5-3.7 1.4s-1.4 2.1-1.4 3.6.5 2.6 1.4 3.6c1 .9 2.2 1.4 3.6 1.4s2.7-.5 3.6-1.5c1-1 1.5-2.2 1.5-3.6s-.5-2.6-1.5-3.5c-1-1-2.2-1.4-3.6-1.4z"/><path d="m161 140.6h1.8v13.2h-1.6l-8.7-10.2v10.2h-1.7v-13.2h1.5l8.8 10.3v-10.3z"/><path d="m192.3 153.9-1.5-1.8c-.1.1-.3.3-.7.6-.4.4-1 .7-1.6 1-.7.3-1.3.4-1.8.4-.9 0-1.7-.3-2.3-.9s-1-1.3-1-2.2.2-1.2.5-1.7.8-1 1.5-1.5c.4-.3.8-.6 1.1-.7-1-1.1-1.5-2.1-1.5-3.1s.3-1.6.9-2.2 1.4-.8 2.3-.8 1.7.3 2.3.8c.6.6.9 1.3.9 2.1s-.8 2.3-2.3 3.4h-.1s1.8 2.2 1.8 2.2c.5-.6 1-1.3 1.4-2.1h1.9c-.4 1.2-1.2 2.3-2.1 3.5l2.6 3.1h-2.4zm-3.1-2.8.4-.4-2.1-2.5-.8.6c-1 .7-1.5 1.3-1.5 2s.2.7.5 1 .7.4 1.1.4.7 0 1.2-.3.8-.5 1.2-.8zm-1.2-5.1.7-.5c.7-.5 1-1 1-1.7s-.1-.7-.4-1-.6-.4-1-.4-.8.1-1 .4c-.3.2-.4.5-.4.9s0 .7.3 1.1c.2.4.5.8.9 1.1z"/><path d="m221.4 140.6h1.8v13.2h-1.6l-8.7-10.2v10.2h-1.7v-13.2h1.5l8.8 10.3v-10.3z"/><path d="m231.2 140.6h7.4v1.7h-5.5v4h5.3v1.7h-5.3v4.1h5.7v1.7h-7.6z"/><path d="m261.5 140.6h1.9l-5.3 13.3h-.4l-4.3-10.7-4.3 10.7h-.4l-5.3-13.3h1.9l3.6 9.1 3.6-9.1h1.8l3.6 9.1z"/><path d="m284.6 140.6h2.3l-4.8 6.2v7h-1.9v-7l-4.8-6.2h2.3l3.5 4.6 3.5-4.6z"/><path d="m297.5 140.5c2 0 3.7.6 5 1.9s2 2.9 2 4.9-.7 3.6-2 4.8c-1.4 1.3-3.1 1.9-5.1 1.9s-3.6-.6-4.9-1.9-2-2.9-2-4.8.7-3.6 2-4.9 3-1.9 5-1.9zm.1 1.7c-1.5 0-2.7.5-3.7 1.4s-1.4 2.1-1.4 3.6.5 2.6 1.5 3.6c1 .9 2.2 1.4 3.6 1.4s2.7-.5 3.6-1.5c1-1 1.5-2.2 1.5-3.6s-.5-2.6-1.5-3.5c-1-1-2.2-1.4-3.6-1.4z"/><path d="m310 153.9v-13.2h3.3c1.3 0 2.4.3 3.1 1 .8.7 1.2 1.6 1.2 2.7s-.2 1.4-.6 2-.9 1-1.6 1.3c.4.3.8.6 1.2 1.1s1 1.3 1.7 2.5c.4.7.8 1.3 1.1 1.7l.7.9h-2.2l-.6-.9s0 0-.1-.2l-.4-.5-.6-1-.6-1c-.4-.6-.7-1-1.1-1.3-.3-.3-.6-.6-.9-.7s-.7-.2-1.3-.2h-.5v5.7h-1.9zm2.4-11.7h-.6v4.2h.7c1 0 1.6 0 1.9-.3.3-.2.6-.4.8-.7s.3-.7.3-1.1-.1-.8-.3-1.1-.5-.6-.9-.7-1-.2-2-.2z"/><path d="m332.9 140.6h2.3l-5.7 6.3 7 6.9h-2.5l-6.7-6.5v6.5h-1.9v-13.2h1.9v6l5.5-6z"/><path d="m196.8 4.7v-3.6s0-1 4.1-1.1c3.7-.2 3.9.6 3.9.6.8 4.5.7 4.2 1 5.2s.9 1.6 2.1 2.2c1.1.6 6.3 2.9 6.3 2.9s1.7.7 2 2.7c.1.9 0 1.8-.2 2.6 0 0-2.1 6.2-5.1 11.4s-4.8 8-4.8 8c-1.4 2.7-2.8 4.9-.9 8.8 0 0 1.1 1.8 2.3 3.1 1.1 1.2 5.4 7 6.3 10.9 1 4.1 1.3 9.9 1.3 13.1 0 0 0 1.2-.8 1.3 0 0-13.9 2.3-29.2-2.3 0 0-.8-.3-.8-1.1v-11.3c0-1.6.3-3.2.7-4.6.7-2.5 1.6-4.3 1.6-4.3.4-.9.9-2.3 1.5-4.4 1.5-5.3 1.2-8.4-1.6-14.9l-.2-.5c-.5-1.6-1.9-4.3-.7-8.3s.9-2.9.9-2.9l.8-2.8c.5-1.9 2.2-2.8 2.2-2.8s.3-.2 2.3-1.2l.7-.4c2-1 2.3-1.2 2.3-1.2s2.1-1.2 2.3-3.7v-1s0 0 0 0z"/></g></svg>