<?xml version="1.0" encoding="utf-8"?>
<!-- Generator: Adobe Illustrator 25.4.1, SVG Export Plug-In . SVG Version: 6.00 Build 0)  -->
<svg version="1.1"
	 id="Layer_1" xmlns:cc="http://creativecommons.org/ns#" xmlns:dc="http://purl.org/dc/elements/1.1/" xmlns:inkscape="http://www.inkscape.org/namespaces/inkscape" xmlns:rdf="http://www.w3.org/1999/02/22-rdf-syntax-ns#" xmlns:sodipodi="http://sodipodi.sourceforge.net/DTD/sodipodi-0.dtd" xmlns:svg="http://www.w3.org/2000/svg"
	 xmlns="http://www.w3.org/2000/svg" xmlns:xlink="http://www.w3.org/1999/xlink" x="0px" y="0px" width="378px" height="93.5px"
	 viewBox="0 0 378 93.5" style="enable-background:new 0 0 378 93.5;" xml:space="preserve">
<style type="text/css">
	.st0{fill:#231F20;}
</style>
<sodipodi:namedview  bordercolor="#666666" borderopacity="1" gridtolerance="10" guidetolerance="10" id="namedview63" inkscape:current-layer="Layer_1" inkscape:cx="153.07239" inkscape:cy="34.834447" inkscape:pageopacity="0" inkscape:pageshadow="2" inkscape:window-height="1137" inkscape:window-maximized="1" inkscape:window-width="1920" inkscape:window-x="-8" inkscape:window-y="-8" inkscape:zoom="2.8284271" objecttolerance="10" pagecolor="#ffffff" showgrid="false">
	</sodipodi:namedview>
<g id="g60">
	<g id="g6">
		<path id="path4" class="st0" d="M128.7,82.8c-1.6-1.7-3.2-3.4-4.8-5.1c-0.3-0.3-0.6-0.7-1.1-1.4h6.8v-1.6c0-9.9-0.1-19.8,0.1-29.7
			c0.1-3.3,0.9-6.6,1.6-9.8c1.6-7.6,3.3-15.2,4.9-22.8c0.1-0.4,0.2-0.7,0.4-1.3c1.7,1.5,3.3,2.9,4.9,4.4v1.7
			c-0.1,0.3-0.2,0.5-0.3,0.8c-1.2,5.6-2.3,11.3-3.8,16.9c-1.7,6.7-2.3,13.5-2.2,20.4c0.2,9.2,0,18.4,0,27.5H128.7z"/>
	</g>
	<g id="g10">
		<path id="path8" class="st0" d="M34.6,76.7V10.8c0.6,0.3,1,0.5,1.3,0.8c1.5,1.4,3,2.7,4.4,4.1c0.4,0.4,0.7,1.1,0.7,1.7
			c0,21.3,0,42.6,0,63.9c0,0.3,0,0.6-0.1,1c-2.3,0-4.6,0-6.9,0c-0.2,0-0.5-0.3-0.7-0.4c-1.7-1.6-3.4-3.3-5.3-5.2
			C28,76.7,34.6,76.7,34.6,76.7z"/>
	</g>
	<g id="g14">
		<path id="path12" class="st0" d="M101,11.1c0.4,0.1,0.7,0.1,0.9,0.2c1.6,1.5,3.1,3,4.6,4.6c0.3,0.3,0.2,0.9,0.3,1.3
			c0.3,4.5-1.2,8.6-2.1,12.9c-2.7,13-5.6,26-8.4,39c-0.1,0.5-0.2,1-0.4,1.5H90c0.1-0.7,0.1-1.4,0.2-2.1c3.5-16.2,7-32.4,10.5-48.5
			c0.2-1,0.3-2,0.3-2.9C101,15.1,101,13.2,101,11.1"/>
	</g>
	<g id="g18">
		<path id="path16" class="st0" d="M57.2,70.7c0.6-2.8,1.1-5.3,1.6-7.8c3.1-14.5,6.3-29,9.4-43.4c0.1-0.6,0.1-1.3,0.1-2
			c0-2.1,0-4.1,0-6.5c0.6,0.3,1,0.4,1.3,0.7c0.6,0.6,1.1,1.3,1.8,1.8c3.1,2.1,3,5.1,2.4,8.2c-3.4,16-6.9,31.9-10.3,47.9
			c-0.2,1-0.5,1.4-1.5,1.3C60.5,70.6,59.1,70.7,57.2,70.7"/>
	</g>
	<g id="g22">
		<path id="path20" class="st0" d="M0,76.3h6.6V46.5h6.7v-5.9c0.9,0.5,1.5,0.8,2,1.2c3.5,2.5,5,5.8,3.7,10.2h-6.7v30.3
			c-2.1,0-4.1,0-6,0c-0.2,0-0.4-0.1-0.5-0.2C4,80.2,2.1,78.4,0,76.3"/>
	</g>
	<g id="g26">
		<path id="path24" class="st0" d="M19.7,22.6h-7V41h-6V17h6.9v-6.2c0.7,0.4,1.1,0.6,1.4,0.9c1.4,1.3,2.7,2.6,4,4
			c0.3,0.3,0.6,0.7,0.7,1C19.7,18.6,19.7,20.5,19.7,22.6"/>
	</g>
	<g id="g30">
		<path id="path28" class="st0" d="M73.9,82.4c-6,0-11.8,0-17.7,0c-0.3,0-0.6-0.1-0.8-0.2c-1.7-1.8-3.3-3.7-5.2-5.8h18.1v-6.2
			c0.6,0.3,1,0.4,1.2,0.6c0.5,0.5,0.9,1.1,1.4,1.5C74.6,74.8,74.3,78.5,73.9,82.4"/>
	</g>
	<g id="g34">
		<path id="path32" class="st0" d="M101,70.1c0.6,0.4,1,0.5,1.3,0.8c0.5,0.5,0.9,1.1,1.5,1.5c3.6,2.5,2.9,6.1,2.8,9.7
			c-0.5,0-1,0.1-1.4,0.1c-5.2,0-10.5,0-15.7,0c-0.9,0-1.6-0.3-2.2-1c-1.3-1.6-2.8-3.2-4.4-5H101V70.1z"/>
	</g>
	<g id="g38">
		<path id="path36" class="st0" d="M126.3,31.5c-1-6.7-1.9-13.5-2.9-20.2c0.1-0.1,0.2-0.1,0.3-0.2c0.3,0.3,0.7,0.5,1,0.8
			c1.3,1.4,2.6,2.7,3.9,4.1c0.3,0.4,0.6,1,0.5,1.5c-0.6,4.5-1.3,8.9-2,13.4c0,0.2-0.2,0.4-0.4,0.6C126.5,31.6,126.4,31.6,126.3,31.5
			"/>
	</g>
	<g id="g42">
		<path id="path40" class="st0" d="M51.9,17.4h10.6c-0.4,1.9-0.8,3.8-1.2,5.9c-1.7-0.1-3.7,0.3-4.9-0.5c-1.9-1.2-3.5-3-4.9-5
			C51.7,17.7,51.8,17.5,51.9,17.4"/>
	</g>
	<g id="g46">
		<path id="path44" class="st0" d="M84.5,17.3h10.8c-0.4,2-0.8,3.9-1.3,6.1c-1.8-0.2-3.9,0.1-5-0.8C85.5,20,84.5,18.5,84.5,17.3"/>
	</g>
	<g id="g50">
		<rect id="rect48" x="165.3" y="0" class="st0" width="2" height="93.5"/>
	</g>
	<g id="g54">
		<path id="path52" class="st0" d="M310.4,59.1v-2.9c0-4.1-2.5-5.8-7.2-5.8c-5.7,0-7.5,2.4-7.5,8.4v16.1c0,4.9,1.8,7.9,7.4,7.9
			c2.5,0,5.5-0.4,7.3-0.8V66h-7.3v3.7h2.9V79c-0.6,0.1-1.6,0.3-2.8,0.3c-1.8,0-3-1.6-3-4.2v-16c0-3.4,1-5.2,3-5.2
			c1.7,0,2.8,1.4,2.8,3.6v1.6C306,59.1,310.4,59.1,310.4,59.1z M274.8,82.5h3.9V55.4h0.1l5.2,27.1h6.3V50.7h-4.1v26.4H286l-5.2-26.4
			h-6.1v31.8H274.8z M265,82.5h4.4V50.7H265V82.5z M246.1,54.4h5.3v28.1h4.4V54.4h5.3v-3.7h-15V54.4z M226.5,82.5h3.9V55.4h0.1
			l5.2,27.1h6.3V50.7h-4.1v26.4h-0.1l-5.2-26.4h-6.1L226.5,82.5L226.5,82.5z M210.4,82.5h12v-3.7h-7.6V68.1h7.1v-3.7h-7.1v-10h7.6
			v-3.7h-12V82.5z M195.5,54.4h2.1c2.7,0,3,0.4,3,5.2s-0.5,5.4-4,5.4h-1.1V54.4z M191.1,82.5h4.4V68.7h1.5c2.9,0,3.4,0.8,3.4,3.8
			v7.2c0,1.3,0.1,2.1,0.5,2.9h4.1c-0.3-1.3-0.3-2.9-0.3-4.1v-6.9c0-3-1-4.5-4-4.8v-0.1c3.6-1.1,4.2-3,4.2-7.2c0-7-0.7-8.7-7.1-8.7
			H191v31.7H191.1z"/>
	</g>
	<g id="g58">
		<path id="path56" class="st0" d="M378,19.4v-2.9c0-4.1-2.5-5.8-7.2-5.8c-5.7,0-7.5,2.4-7.5,8.4v16.1c0,4.9,1.8,7.9,7.4,7.9
			c2.5,0,5.5-0.4,7.3-0.8v-16h-7.3V30h2.9v9.3c-0.6,0.1-1.6,0.3-2.8,0.3c-1.8,0-3-1.6-3-4.2v-16c0-3.4,1-5.2,3-5.2
			c1.7,0,2.8,1.4,2.8,3.6v1.6C373.6,19.4,378,19.4,378,19.4z M342.3,42.8h3.9V15.7h0.1l5.2,27.1h6.3V11h-4.1v26.4h-0.1L348.4,11
			h-6.1V42.8z M332.6,42.8h4.4V11h-4.4V42.8z M313.7,14.7h5.3v28.1h4.4V14.7h5.3V11h-15L313.7,14.7L313.7,14.7z M294.1,42.8h3.9
			V15.7h0.1l5.2,27.1h6.3V11h-4.1v26.4h-0.1L300.2,11h-6.1V42.8z M278,42.8h12v-3.7h-7.6V28.4h7.1v-3.7h-7.1v-10h7.6V11h-12V42.8z
			 M262.2,42.8h5.1l6.5-31.8h-4.4l-4.6,25.3h-0.1L260.2,11h-4.4L262.2,42.8z M236.1,42.8h3.9V15.7h0.1l5.2,27.1h6.3V11h-4.1v26.4
			h-0.1L242.2,11h-6.1L236.1,42.8L236.1,42.8z M226.4,42.8h4.4V11h-4.4V42.8z M210.4,42.8h12v-3.7h-7.6V28.4h7.1v-3.7h-7.1v-10h7.6
			V11h-12V42.8z M195.5,14.7h2.1c2.7,0,3,0.4,3,5.2s-0.5,5.4-4,5.4h-1.1V14.7z M191.1,42.8h4.4V29h1.5c2.9,0,3.4,0.8,3.4,3.8V40
			c0,1.3,0.1,2.1,0.5,2.9h4.1c-0.3-1.3-0.3-2.9-0.3-4.1v-6.9c0-3-1-4.5-4-4.8V27c3.6-1.1,4.2-2.9,4.2-7.2c0-7-0.7-8.7-7.1-8.7H191
			v31.7H191.1z"/>
	</g>
</g>
</svg>
