<?xml version="1.0" encoding="utf-8"?>
<!-- Generator: Adobe Illustrator 27.8.0, SVG Export Plug-In . SVG Version: 6.00 Build 0)  -->
<svg version="1.1" id="Layer_1" xmlns="http://www.w3.org/2000/svg" xmlns:xlink="http://www.w3.org/1999/xlink" x="0px" y="0px"
	 viewBox="0 0 112.4 73.9" style="enable-background:new 0 0 112.4 73.9;" xml:space="preserve">
<style type="text/css">
	.st0{fill:#FFFFFF;}
</style>
<g>
	<path class="st0" d="M6.9,50.6L6.9,50.6c0.8-1.3,1-1.9,1-3.6V33.5l-3.2,0.1c-0.9,0-2.3,2.4-3.3,4l-0.2-0.1L2,33.1h13.5l0.9,4.5
		l-0.2,0.1c-1.1-1.6-2.4-4-3.3-4l-3.1-0.1V47c0,1.6,0.2,2.3,1,3.5v0H6.9z"/>
	<path class="st0" d="M17.4,50.5c0.5-1,0.5-2,0.5-3.6V35.5c0-1.2-0.5-1.9-1-2.4v0l2.8-1.1v9c1.1-1.3,2.5-2.1,4.1-2.1
		c2.2,0,3.3,1.3,3.3,3.5v4.6c0,1.7,0,2.6,0.5,3.6v0h-2.8v0c0.5-1,0.5-2,0.5-3.6v-4.2c0-1.5-0.6-2.7-2.4-2.7c-1.1,0-2.3,0.5-3.3,1.4
		v5.5c0,1.6,0,2.6,0.5,3.6v0L17.4,50.5L17.4,50.5z"/>
	<path class="st0" d="M30.9,43.1l6-0.1v-0.2c0-2.4-0.9-3.5-2.5-3.5C32.4,39.3,31.2,40.8,30.9,43.1 M34.2,50.9
		c-3.1,0-5.2-2.4-5.2-5.8c0-3.8,2.6-6.2,5.4-6.2c2.8,0,4.6,2.4,4.4,4.6h-7.9c0,0.1,0,0.3,0,0.4v0.4c0,3.2,1.5,5.1,4.2,5.1
		c1.5,0,2.8-0.6,3.7-1.8l0.1,0.1C38.2,49.6,36.6,50.9,34.2,50.9"/>
	<path class="st0" d="M42.9,50.5c1.1-1.4,1.4-2.2,1.4-3.9V35.9c-0.1-1.3-0.5-1.8-1.6-2.7v0h3.4l6.5,14.4L59,33.1h3.2v0
		c-1.3,1-1.6,1.7-1.6,3.4v10.4c0,1.7,0.2,2.3,1,3.6v0h-3.8v0c0.8-1.2,1-2,1-3.6V35l-6.7,15h-0.4l-6.9-15.2l0.1,11.7
		c0,1.8,0.3,2.5,1.7,3.9v0L42.9,50.5L42.9,50.5z"/>
	<path class="st0" d="M69.2,48.9v-4c-2.2,0.4-4.6,1.3-4.6,3.2c0,1,0.6,1.7,2,1.7C67.7,49.9,68.7,49.4,69.2,48.9 M69.2,49.3
		c-0.8,0.9-2.1,1.6-3.6,1.6c-1.6,0-2.7-0.8-2.7-2.2c0-2.6,3.6-3.8,6.3-4.1v-2.4c0-1.3-0.5-2.3-2.5-2.3c-1.1,0-2.3,0.4-3.3,1
		l-0.1-0.1c1-1.1,2.5-2,4.4-2c2.6,0,3.2,1.4,3.2,2.9v7c0,0.6,0.3,1,0.9,1c0.5,0,0.8-0.2,1.1-0.5l0.1,0c-0.2,0.6-0.9,1.5-2.1,1.5
		C69.9,50.9,69.3,50.2,69.2,49.3"/>
	<path class="st0" d="M76.7,51.5l0.3-0.9l-3.3-8.8c-0.6-1.5-0.8-2.1-1.4-2.6v0h3.4v0c-0.4,0.5-0.6,1.3,0,2.7l2.3,6.2l2.3-6.2
		c0.5-1.4,0.3-2.4-0.3-2.8v0h2.5v0c-0.8,0.7-1.1,1.3-1.6,2.7l-3.9,10.2c-1.1,2.8-2.3,3.6-3.9,3.8l0-1.8
		C73.8,54.2,75.8,53.8,76.7,51.5"/>
	<path class="st0" d="M84.4,47.3v-7.6h-1.5v-0.4h1.5v-2c0-3.3,1.7-5.2,4.1-5.2c0.7,0,1.3,0.2,1.6,0.3l0.3,2.2l-0.1,0
		c-0.7-1-1.4-2.1-2.3-2.1c-1,0-1.7,1.2-1.7,3.7v3.1h2.8v0.4h-2.8v7.6c0,1.8,0.2,2.6,0.5,3.3v0h-2.9v0C84.2,49.9,84.4,49.1,84.4,47.3
		"/>
	<path class="st0" d="M95.5,48.9v-4c-2.2,0.4-4.6,1.3-4.6,3.2c0,1,0.6,1.7,2,1.7C94,49.9,95,49.4,95.5,48.9 M95.5,49.3
		c-0.8,0.9-2.1,1.6-3.6,1.6c-1.6,0-2.7-0.8-2.7-2.2c0-2.6,3.6-3.8,6.3-4.1v-2.4c0-1.3-0.5-2.3-2.5-2.3c-1.1,0-2.3,0.4-3.3,1
		l-0.1-0.1c1-1.1,2.5-2,4.4-2c2.6,0,3.2,1.4,3.2,2.9v7c0,0.6,0.3,1,0.9,1c0.5,0,0.8-0.2,1.1-0.5l0.1,0c-0.2,0.6-0.9,1.5-2.1,1.5
		C96.2,50.9,95.6,50.2,95.5,49.3"/>
	<path class="st0" d="M101.3,36c-0.6,0-1.2-0.5-1.2-1.2c0-0.6,0.5-1.2,1.2-1.2c0.6,0,1.2,0.5,1.2,1.2C102.5,35.5,102,36,101.3,36
		 M100.5,46.9v-4.4c0-1.2-0.5-1.9-1-2.4V40l2.8-1.3v8.1c0,1.6,0,2.6,0.5,3.6v0H100v0C100.4,49.5,100.5,48.5,100.5,46.9"/>
	<path class="st0" d="M105.1,46.9v-4.5c0-1.2-0.5-1.9-1-2.4v0l2.7-1.3v2.9l0.1,0c1-1.1,2.2-2.8,3.8-2.8l0,2.4h-0.1
		c-0.4-0.3-1.4-0.5-1.9-0.5c-0.4,0-1.2,0.6-1.8,1.5v4.7c0,1.6,0,2.6,0.5,3.6v0h-2.8v0C105.1,49.5,105.1,48.5,105.1,46.9"/>
	<path class="st0" d="M6.9,72.3L6.9,72.3c0.8-1.3,1-1.9,1-3.6V55.2l-3.2,0.1c-0.9,0-2.3,2.4-3.3,4l-0.2-0.1L2,54.8h13.5l0.9,4.5
		l-0.2,0.1c-1.1-1.6-2.4-4-3.3-4l-3.1-0.1v13.4c0,1.6,0.2,2.3,1,3.5v0H6.9z"/>
	<path class="st0" d="M25,66.6c0-3-1.3-5.6-4-5.6s-4,2.6-4,5.6c0,3,1.3,5.6,4,5.6C23.7,72.2,25,69.6,25,66.6 M15,66.6
		c0-3.3,2.8-6.1,6-6.1c3.3,0,6,2.8,6,6.1c0,3.3-2.7,6-6,6S15,69.9,15,66.6"/>
	<path class="st0" d="M27.1,60.9L27.1,60.9l3.3,0v0c-0.3,0.4-0.4,1.3-0.1,2.4l1.9,6.2l2.2-5.9l0-0.1c-0.5-1.4-0.8-2.1-1.4-2.6v0h3.2
		v0c-0.3,0.4-0.4,1.2,0,2.6l2,6l1.9-5.6c0.5-1.5,0.3-2.5-0.3-3v0h2.4v0c-0.8,0.7-1.1,1.3-1.6,2.7l-3,8.8h-0.3l-2.8-8.2l-3,8.2h-0.3
		l-2.9-8.9C28,62.1,27.6,61.4,27.1,60.9"/>
	<path class="st0" d="M43.6,72.3L43.6,72.3c0.5-1.1,0.5-2,0.5-3.7v-4.5c0-1.2-0.5-1.9-1-2.4v0l2.7-1.3v2.2l0.1,0
		c1.1-1.3,2.5-2.1,4.1-2.1c2.2,0,3.4,1.3,3.4,3.5v4.5c0,1.7,0,2.6,0.5,3.6v0H51v0c0.5-1,0.5-2,0.5-3.6v-4.2c0-1.5-0.6-2.7-2.5-2.7
		c-1.1,0-2.3,0.5-3.2,1.4v5.4c0,1.6,0,2.6,0.5,3.6v0H43.6z"/>
	<path class="st0" d="M55.5,72.2c0.5-1,0.5-2,0.5-3.6V57.2c0-1.2-0.5-1.9-1-2.4v0l2.8-1.1v9c1.1-1.3,2.5-2.1,4.1-2.1
		c2.2,0,3.3,1.3,3.3,3.5v4.6c0,1.7,0,2.6,0.5,3.6v0h-2.8v0c0.5-1,0.5-2,0.5-3.6v-4.2c0-1.5-0.6-2.7-2.4-2.7c-1.1,0-2.3,0.5-3.3,1.4
		v5.5c0,1.6,0,2.6,0.5,3.6v0L55.5,72.2L55.5,72.2z"/>
	<path class="st0" d="M77.1,66.6c0-3-1.3-5.6-4-5.6s-4,2.6-4,5.6c0,3,1.3,5.6,4,5.6C75.8,72.2,77.1,69.6,77.1,66.6 M67.1,66.6
		c0-3.3,2.8-6.1,6-6.1c3.3,0,6,2.8,6,6.1c0,3.3-2.7,6-6,6C69.8,72.6,67.1,69.9,67.1,66.6"/>
	<path class="st0" d="M83.9,72.6c-2.1,0-3.1-1.4-3.1-3.7v-6c0-1-0.4-1.6-1-2v0h2.7v7.7c0,1.8,0.8,2.7,2.3,2.7c1.4,0,2.3-0.7,2.9-1.5
		V63c0-0.9-0.4-1.6-1-2v0h2.8V69c0,2,0.3,2.3,1.1,2.8v0l-2.7,0.8v-2.5C87,71.3,85.9,72.6,83.9,72.6"/>
	<path class="st0" d="M98.4,63.4c-1-1.9-2.2-2.4-3.3-2.4c-1.4,0-2.3,0.8-2.3,2c0,1.4,1.4,2,3.1,2.6c1.6,0.7,3.4,1.4,3.4,3.7
		c0,2.2-1.7,3.3-4.3,3.3c-1.4,0-2.5-0.3-3.3-0.7l-0.2-2.7l0.2,0c1,2.1,2.1,3,3.7,3c1.7,0,2.6-1.1,2.6-2.3c0-1.4-1.2-2-2.8-2.6
		c-1.6-0.6-3.5-1.4-3.5-3.6c0-2.3,2-3.1,4-3.1c1,0,2.1,0.2,2.8,0.5l0.2,2.3L98.4,63.4z"/>
	<path class="st0" d="M102.1,64.8l6-0.1v-0.2c0-2.4-0.9-3.5-2.5-3.5C103.7,61,102.4,62.5,102.1,64.8 M105.5,72.6
		c-3.1,0-5.2-2.4-5.2-5.8c0-3.8,2.6-6.2,5.4-6.2c2.8,0,4.6,2.4,4.4,4.6h-7.9c0,0.1,0,0.3,0,0.4V66c0,3.2,1.5,5.1,4.2,5.1
		c1.5,0,2.8-0.6,3.7-1.8l0.1,0.1C109.5,71.3,107.9,72.6,105.5,72.6"/>
	<path class="st0" d="M74.9,3.1c0.2,0,0.4,0,0.6,0.1c0-0.1,0-0.1,0-0.2c0-0.1,0-0.1,0.1-0.2c0.1-0.1,0.2-0.2,0.3-0.2
		c0,0.1-0.1,0.2-0.1,0.3c0,0-0.1,0.1-0.1,0.1l-0.1,0.1c0.2,0,0.4,0.1,0.5,0.1c0,0,0-0.1,0-0.1c0-0.1,0-0.1,0-0.2
		c0-0.1,0.1-0.2,0.2-0.2c0.1,0.1,0,0.2,0,0.3c0,0,0,0.1-0.1,0.1c0,0,0,0-0.1,0.1c0.2,0,0.3,0.1,0.5,0.1c0,0,0.1,0,0.1,0
		c-0.3-0.4-0.3-1.2-0.2-1.6c0-0.1-0.1-0.1-0.2-0.1C75.9,2.3,75.4,2.7,74.9,3.1C74.9,3.1,74.9,3.1,74.9,3.1"/>
	<path class="st0" d="M75.6,16c-0.1-0.1-0.1-0.2-0.1-0.3c0-0.1,0-0.2,0.1-0.3c0.1,0.1,0.1,0.2,0.1,0.3C75.7,15.8,75.7,15.9,75.6,16
		 M71.5,17.9c-0.1,0-0.2,0.1-0.3,0c-0.1,0-0.2-0.1-0.3-0.2c-0.1-0.1-0.1-0.2-0.1-0.3c0.2,0.1,0.3,0.1,0.5,0.1c0.1,0,0.1,0,0.2,0
		c0.1,0,0.2,0,0.3,0C71.7,17.7,71.6,17.8,71.5,17.9 M71.1,12.1c0.1-0.1,0.1-0.2,0.2-0.2c0.2-0.1,0.4-0.2,0.6-0.2
		c-0.1,0.2-0.3,0.3-0.4,0.4l-0.2,0.2c-0.1,0.1-0.2,0.1-0.2,0.2C71,12.3,71.1,12.2,71.1,12.1 M71.6,5.9c0.1-0.1,0.2-0.2,0.3-0.2
		c0.2-0.1,0.4-0.2,0.7-0.2c-0.2,0.2-0.3,0.3-0.5,0.4L71.7,6c-0.1,0.1-0.2,0.1-0.3,0.2C71.4,6.1,71.5,6,71.6,5.9 M72.9,5.7
		c-0.1,0.2-0.2,0.2-0.3,0.3c-0.1,0-0.1,0.1-0.2,0.1c-0.1,0-0.1,0-0.2,0.1c0-0.1,0-0.2,0.1-0.2c0.1-0.1,0.1-0.1,0.2-0.2
		C72.5,5.8,72.7,5.7,72.9,5.7 M73.5,10c-0.2,0.2-0.3,0.3-0.5,0.5l-0.3,0.2c-0.1,0.1-0.2,0.1-0.3,0.2c0-0.1,0.1-0.2,0.1-0.3
		c0.1-0.1,0.2-0.2,0.3-0.3C73,10.1,73.2,10,73.5,10 M73.4,4.4c-0.1-0.1-0.1-0.3-0.1-0.4c0-0.1,0-0.3,0.1-0.4
		c0.1-0.3,0.2-0.5,0.4-0.7c0,0.3-0.1,0.5-0.1,0.8c0,0.1,0,0.3,0,0.4c0,0.1,0,0.1,0,0.2c0.1-0.1,0.3-0.2,0.4-0.2
		c-0.1,0.2-0.3,0.4-0.5,0.5l-0.1,0.1L73.4,4.4z M74.5,9c-0.1,0.1-0.2,0.2-0.3,0.3c-0.1,0-0.1,0.1-0.2,0.1c-0.1,0-0.1,0-0.2,0.1
		c0-0.1,0-0.2,0.1-0.2c0-0.1,0.1-0.1,0.2-0.1C74.2,9,74.3,9,74.5,9 M74.6,10.5c0.1-0.2,0.3-0.4,0.5-0.5c-0.1,0.2-0.2,0.4-0.3,0.6
		L74.6,11c-0.1,0.1-0.1,0.2-0.2,0.3c-0.1-0.1,0-0.3,0-0.4C74.5,10.8,74.5,10.7,74.6,10.5 M73.8,10.7l-0.2,0.2
		c-0.1,0.1-0.1,0.1-0.2,0.2c0-0.1,0-0.2,0-0.3c0-0.1,0.1-0.2,0.2-0.3c0.1-0.2,0.3-0.3,0.5-0.3C74.1,10.4,73.9,10.5,73.8,10.7
		 M73.8,12.9l-0.2,0.3c-0.1,0.1-0.1,0.2-0.2,0.3c-0.1-0.1-0.1-0.3-0.1-0.4c0-0.1,0.1-0.2,0.1-0.4c0.1-0.1,0.1-0.2,0.2-0.3
		c0.1-0.1,0.2-0.2,0.3-0.2C73.9,12.5,73.9,12.7,73.8,12.9 M73.1,12.6L73,12.8c0,0.1-0.1,0.2-0.2,0.3c-0.1-0.1-0.1-0.2,0-0.3
		c0-0.1,0.1-0.2,0.1-0.3c0.1-0.2,0.2-0.3,0.5-0.4C73.3,12.2,73.2,12.4,73.1,12.6 M72.4,12.2l-0.2,0.2c-0.1,0.1-0.1,0.1-0.2,0.2
		c0-0.1,0-0.2,0-0.3c0-0.1,0.1-0.2,0.2-0.3c0.1-0.2,0.3-0.3,0.5-0.4C72.6,11.9,72.5,12.1,72.4,12.2 M68.2,17.7
		c-0.2,0.1-0.5,0.2-0.8,0.1c0.1-0.1,0.2-0.1,0.3-0.1c0.1,0,0.2-0.1,0.3-0.1c0.2-0.1,0.4-0.2,0.6-0.4C68.6,17.4,68.4,17.6,68.2,17.7
		 M66.6,17.2c0.3-0.1,0.5-0.3,0.7-0.4c0.2-0.1,0.5-0.2,0.8-0.3c-0.2,0.2-0.4,0.4-0.7,0.5c-0.1,0.1-0.3,0.1-0.4,0.1
		C66.9,17.3,66.7,17.3,66.6,17.2 M66.2,16.3c0.2-0.2,0.4-0.3,0.6-0.5c0.2-0.1,0.4-0.3,0.7-0.3c-0.1,0.2-0.4,0.4-0.6,0.6
		c-0.1,0.1-0.2,0.1-0.4,0.2C66.5,16.3,66.3,16.3,66.2,16.3 M65.8,17.8c-0.1,0.1-0.2,0.1-0.3,0.2c-0.1,0-0.2,0.1-0.3,0l0.2-0.2
		c0.1-0.1,0.1-0.1,0.2-0.2c0.2-0.1,0.3-0.2,0.5-0.3C66.1,17.5,65.9,17.6,65.8,17.8 M64.6,17.5c-0.1,0.1-0.3,0.1-0.5,0.1
		c0.3-0.2,0.5-0.3,0.8-0.5c0.2-0.2,0.5-0.4,0.8-0.5c-0.2,0.3-0.4,0.5-0.6,0.7C64.9,17.4,64.8,17.5,64.6,17.5 M61.6,13.6
		c-0.8-0.2-1.6-0.5-2.4-0.8c-0.8-0.3-1.6-0.7-2.3-1.1s-1.5-0.8-2.2-1.3c0.7,0.4,1.5,0.8,2.3,1.2c0.8,0.4,1.5,0.7,2.3,1.1
		c0.8,0.3,1.6,0.6,2.4,0.9c0.8,0.2,1.7,0.4,2.5,0.5C63.2,13.9,62.4,13.8,61.6,13.6 M63.6,17.2c-0.1-0.3-0.2-0.5-0.2-0.8
		c0-0.3,0-0.5,0.1-0.8c0.1,0.3,0.2,0.5,0.2,0.8C63.7,16.6,63.7,16.9,63.6,17.2 M62,16.9c-0.1-0.2-0.1-0.4-0.1-0.6
		c0-0.2,0-0.4,0.2-0.6c0.1,0.2,0.1,0.4,0.1,0.6C62.2,16.5,62.1,16.7,62,16.9 M60.9,15.9c0,0.1-0.1,0.2-0.1,0.3
		c-0.1,0.1-0.1,0.1-0.2,0.2c0-0.1,0-0.2,0-0.3c0-0.1,0-0.2,0-0.3c0-0.2,0.1-0.3,0.2-0.5C60.9,15.5,60.9,15.7,60.9,15.9 M59.6,15.6
		c0,0.1,0,0.1-0.1,0.2c0,0.1-0.1,0.1-0.2,0.1c0-0.1,0-0.2,0-0.2c0-0.1,0-0.1,0-0.2c0-0.1,0.1-0.3,0.3-0.4
		C59.7,15.3,59.7,15.4,59.6,15.6 M58.6,15.2c-0.1,0.1-0.1,0.2-0.3,0.3c0-0.2,0-0.3,0-0.4c0-0.1,0-0.1,0.1-0.2c0-0.1,0.1-0.1,0.1-0.2
		c0.1,0.1,0.1,0.1,0.1,0.2C58.6,15,58.6,15.1,58.6,15.2 M57.2,14.7c0,0.1-0.1,0.2-0.2,0.3c-0.1-0.1-0.1-0.2-0.1-0.3
		c0-0.1,0.1-0.2,0.3-0.3C57.2,14.5,57.2,14.6,57.2,14.7 M55.9,14.5c-0.1,0.1-0.1,0.2-0.3,0.2c-0.1-0.1,0-0.3,0-0.4
		c0.1-0.1,0.1-0.2,0.2-0.2C56,14.3,56,14.4,55.9,14.5 M55.2,7.4c0.1,0.2,0.1,0.5,0,0.7c-0.1-0.2-0.2-0.4-0.2-0.6
		c-0.1-0.2-0.1-0.4-0.2-0.6C54.9,7,55.1,7.2,55.2,7.4 M56.6,7.2c0.1,0.2,0.1,0.4,0.1,0.6c0,0.2,0,0.4-0.1,0.6
		c-0.1-0.2-0.1-0.4-0.1-0.6C56.5,7.6,56.5,7.4,56.6,7.2 M58,8.2C58,8.1,58,8,58,7.9c0-0.1,0.1-0.2,0.2-0.2c0,0.1,0,0.2,0,0.3
		c0,0.1,0,0.2,0,0.3c0,0.2-0.1,0.4-0.3,0.6C57.9,8.6,57.9,8.4,58,8.2 M59.6,8.8c0.1-0.1,0.1-0.2,0.2-0.3c0.1-0.1,0.1-0.2,0.2-0.3
		c0,0.1,0,0.2,0,0.4c0,0.1-0.1,0.2-0.1,0.3l-0.1,0.3c0,0.1-0.1,0.2-0.1,0.3c-0.1-0.1-0.1-0.2-0.1-0.3C59.5,9,59.6,8.9,59.6,8.8
		 M61.2,9.2c0-0.2,0.1-0.4,0.3-0.6c0,0.2,0,0.4,0,0.6c0,0.2-0.1,0.4-0.2,0.6C61.1,9.6,61.1,9.4,61.2,9.2 M62.8,9.4
		c0-0.1,0-0.2,0.1-0.4c0-0.1,0.1-0.3,0.2-0.3c0,0.1,0,0.2,0,0.3c0,0.1,0,0.2,0,0.3c0,0.1,0,0.2-0.1,0.3c0,0.1,0,0.3-0.1,0.4
		c0-0.1-0.1-0.2-0.1-0.4C62.8,9.7,62.8,9.6,62.8,9.4 M64.2,9.6c0-0.3,0.1-0.6,0.3-0.9c0.1,0.3,0,0.6,0,0.9c0,0.3-0.1,0.6-0.2,0.9
		C64.2,10.3,64.2,9.9,64.2,9.6 M53.7,8.1c-0.2-0.2-0.3-0.4-0.4-0.6c-0.1-0.2-0.2-0.4-0.3-0.6c0.2,0.1,0.4,0.3,0.5,0.5
		C53.7,7.7,53.7,7.9,53.7,8.1 M53.3,13.1c-0.1,0-0.2-0.1-0.3-0.2c0.1-0.1,0.3-0.1,0.4,0c0.1,0.1,0.2,0.1,0.3,0.3
		C53.5,13.2,53.4,13.2,53.3,13.1 M53,14.4c-0.1,0-0.2-0.1-0.2-0.1c-0.1-0.1-0.2-0.2-0.3-0.4c0.2,0,0.3,0,0.4,0.1
		c0.1,0,0.1,0.1,0.1,0.1c0,0,0.1,0.1,0.2,0.1C53.2,14.5,53.1,14.5,53,14.4 M52.1,15.4c-0.1-0.1-0.2-0.2-0.2-0.4
		c0.2,0,0.3,0.1,0.4,0.2c0.1,0.1,0.2,0.2,0.2,0.4C52.3,15.6,52.2,15.5,52.1,15.4 M51.3,7.4c0.2,0,0.4,0.1,0.6,0.2
		c0.2,0.1,0.3,0.3,0.3,0.6C52,8.1,51.9,8,51.7,7.9C51.6,7.7,51.4,7.6,51.3,7.4 M50.4,12.6c-0.3,0.2-0.6,0.5-0.9,0.8
		c-0.3,0.3-0.6,0.6-0.9,0.9l-0.8,0.9c0.4-0.7,0.9-1.4,1.5-2c0.3-0.3,0.6-0.5,1-0.8c0.4-0.2,0.8-0.4,1.2-0.4
		C51.1,12.1,50.8,12.4,50.4,12.6 M50.9,16.5c-0.1-0.1-0.2-0.2-0.2-0.3c0-0.1-0.1-0.2,0-0.4c0.2,0,0.2,0.2,0.3,0.3
		C51,16.3,51,16.4,50.9,16.5 M49.9,14.3c-0.1,0.1-0.3,0.3-0.5,0.4c0-0.2,0.1-0.5,0.3-0.6c0.2-0.2,0.4-0.3,0.6-0.3
		C50.2,14,50.1,14.2,49.9,14.3 M49.3,16.9c0,0.1-0.1,0.3-0.2,0.4C49,17.2,49,17,49,16.9c0-0.1,0.1-0.3,0.2-0.4
		C49.3,16.6,49.3,16.7,49.3,16.9 M47.8,16.9c0,0.1-0.1,0.2-0.3,0.3c0-0.2,0-0.3,0-0.4c0-0.1,0.1-0.2,0.2-0.3
		C47.8,16.7,47.8,16.8,47.8,16.9 M47.5,10.8c0.1,0,0.3,0.1,0.3,0.3c-0.2,0.1-0.3,0-0.4,0c-0.1,0-0.2-0.1-0.3-0.2
		C47.3,10.8,47.4,10.8,47.5,10.8 M46.6,12.2c-0.1,0-0.3,0-0.4-0.1c0.1-0.1,0.3-0.2,0.4-0.2c0.1,0,0.3,0,0.4,0.2
		C46.9,12.2,46.7,12.2,46.6,12.2 M46.3,16.4c-0.2,0.2-0.3,0.4-0.6,0.5c0-0.3,0.2-0.5,0.3-0.7c0.2-0.2,0.4-0.4,0.7-0.4
		C46.6,16,46.5,16.2,46.3,16.4 M45.9,14.6c0.2-0.1,0.3-0.1,0.5,0c-0.1,0.1-0.3,0.2-0.4,0.3c-0.1,0.1-0.3,0.1-0.5,0.1
		C45.7,14.8,45.8,14.7,45.9,14.6 M45,15c-0.1,0.1-0.1,0.1-0.2,0.1c-0.1,0.1-0.3,0.1-0.4,0.1c0.1-0.1,0.1-0.1,0.2-0.1
		c0.1,0,0.1-0.1,0.2-0.1c0.1,0,0.1-0.1,0.2-0.1c0.1,0,0.1,0,0.2-0.1C45.1,14.9,45.1,15,45,15 M44.4,16.4c-0.3,0.2-0.6,0.3-0.9,0.3
		c-0.3,0.1-0.6,0.1-0.9,0.1c-0.3,0-0.6-0.1-0.9-0.2c0.3,0,0.6,0,0.9-0.1c0.3,0,0.6-0.1,0.9-0.1c0.3-0.1,0.6-0.1,0.8-0.2
		c0.3-0.1,0.5-0.3,0.7-0.5C44.9,16,44.7,16.2,44.4,16.4 M44.4,14.2l0.2-0.2c0.1-0.1,0.1-0.1,0.2-0.2c0.1-0.1,0.1-0.1,0.2-0.2
		c0,0.1-0.1,0.2-0.1,0.3c-0.1,0.1-0.1,0.1-0.2,0.2c-0.1,0.1-0.3,0.2-0.5,0.2C44.3,14.3,44.4,14.2,44.4,14.2 M45.1,14.3
		c0,0.1-0.1,0.1-0.1,0.2c0,0.1-0.1,0.1-0.2,0.2c-0.1,0.1-0.3,0.2-0.5,0.1c0.1-0.1,0.1-0.1,0.2-0.1c0.1,0,0.1-0.1,0.2-0.1
		c0.1,0,0.1-0.1,0.2-0.1C45,14.3,45,14.3,45.1,14.3 M46.1,13.2c0.2,0,0.3,0,0.5,0.1c-0.2,0.1-0.3,0.1-0.5,0.1c-0.2,0-0.3,0-0.5-0.1
		C45.8,13.2,46,13.2,46.1,13.2 M47.2,9.4c0.1,0,0.1,0,0.2,0c0.1,0,0.1,0,0.2,0c0.1,0,0.1,0,0.2,0c0.1,0,0.1,0,0.2,0.1
		c-0.1,0-0.1,0.1-0.2,0.1c-0.1,0-0.1,0-0.2,0C47.4,9.6,47.3,9.5,47.2,9.4 M47.7,9c0.1,0,0.1,0,0.2,0C48,9,48,9,48.1,9
		c0.1,0,0.1,0,0.2,0.1c-0.1,0-0.1,0.1-0.2,0.1c-0.1,0-0.1,0-0.2,0c-0.1,0-0.3-0.1-0.4-0.2C47.6,9,47.6,9,47.7,9 M48,8.6
		c0.1,0,0.1,0,0.2,0c0.1,0,0.1,0,0.2,0c0.1,0,0.1,0,0.2,0.1c-0.1,0-0.1,0.1-0.2,0.1c-0.1,0-0.1,0-0.2,0c-0.1,0-0.3-0.1-0.4-0.2
		C47.9,8.6,47.9,8.6,48,8.6 M48.9,10.2c-0.2,0.1-0.3,0-0.4,0c-0.1-0.1-0.2-0.1-0.3-0.3c0.2-0.1,0.3,0,0.4,0
		C48.7,10,48.8,10,48.9,10.2 M49.1,12.5c-0.1,0.1-0.2,0.2-0.3,0.3c-0.1,0.1-0.2,0.2-0.2,0.3c-0.2,0.2-0.3,0.4-0.6,0.5
		c0-0.3,0.2-0.5,0.4-0.7C48.6,12.6,48.8,12.5,49.1,12.5 M49.5,8.9c0.2,0.1,0.3,0.2,0.4,0.4c-0.2,0-0.3,0-0.5-0.1
		c-0.1-0.1-0.3-0.1-0.4-0.2C49.1,8.8,49.3,8.8,49.5,8.9 M50.5,8.2c0.1,0.1,0.2,0.2,0.2,0.4c-0.2-0.1-0.3-0.1-0.4-0.2
		c-0.1-0.1-0.2-0.2-0.3-0.3C50.2,8.1,50.4,8.1,50.5,8.2 M40.2,18.9c-0.3,0.3-0.5,0.5-0.8,0.7c-0.3,0.2-0.6,0.4-0.9,0.6
		c-0.3,0.2-0.7,0.3-1,0.4c0.6-0.3,1.2-0.8,1.7-1.2c0.6-0.4,1.1-0.9,1.7-1.3C40.7,18.4,40.5,18.6,40.2,18.9 M38.4,17.9
		c-0.2,0.2-0.4,0.3-0.6,0.4c-0.2,0.1-0.4,0.2-0.6,0.3c-0.2,0.1-0.5,0.2-0.7,0.2c0.4-0.2,0.8-0.5,1.2-0.7c0.4-0.3,0.8-0.5,1.2-0.7
		C38.7,17.6,38.5,17.7,38.4,17.9 M33,11.1L32.6,11l-0.4-0.1c-0.1,0-0.3-0.1-0.4,0c0.1-0.1,0.3-0.1,0.4-0.1c0.1,0,0.3,0,0.4,0
		c0.1,0,0.3,0.1,0.4,0.1c0.1,0.1,0.3,0.1,0.4,0.2C33.3,11.1,33.2,11.1,33,11.1 M32.8,12l-0.4-0.2c-0.1-0.1-0.3-0.1-0.4-0.2
		c-0.1,0-0.3-0.1-0.5-0.1c0.1-0.1,0.3-0.1,0.5-0.1c0.2,0,0.3,0.1,0.5,0.1c0.2,0.1,0.3,0.1,0.4,0.2c0.1,0.1,0.3,0.2,0.4,0.3
		C33.1,12.1,33,12,32.8,12 M31.9,12.6c-0.1-0.1-0.2-0.1-0.4-0.2c-0.1-0.1-0.2-0.2-0.3-0.3c0.1,0.1,0.3,0.1,0.4,0.2
		c0.1,0.1,0.2,0.1,0.4,0.2c0.2,0.1,0.5,0.3,0.7,0.5C32.4,12.8,32.2,12.7,31.9,12.6 M31.9,13.4c-0.1-0.1-0.3-0.1-0.4-0.2
		c-0.1-0.1-0.2-0.2-0.3-0.3c-0.1-0.1-0.2-0.2-0.3-0.4c0.1,0.1,0.2,0.2,0.4,0.2c0.1,0.1,0.2,0.2,0.4,0.2c0.1,0.1,0.2,0.2,0.4,0.3
		c0.1,0.1,0.2,0.2,0.3,0.3C32.2,13.6,32,13.5,31.9,13.4 M30.6,11.9c-0.1,0-0.2-0.1-0.3-0.1c-0.1-0.1-0.2-0.1-0.3-0.2
		c-0.1-0.1-0.2-0.2-0.3-0.2c0.1,0,0.2,0.1,0.3,0.1c0.1,0.1,0.2,0.1,0.3,0.2l0.3,0.2c0.1,0.1,0.2,0.1,0.3,0.1
		C30.9,11.9,30.7,11.9,30.6,11.9 M30.4,10.6l0.2,0c0.1,0,0.1,0.1,0.2,0.1c0.1,0.1,0.2,0.1,0.3,0.2c0.1,0.1,0.2,0.2,0.2,0.3
		c-0.1-0.1-0.2-0.1-0.3-0.1c-0.1,0-0.2-0.1-0.3-0.1c0,0-0.1-0.1-0.1-0.1c-0.1,0-0.1,0-0.2-0.1c-0.1-0.1-0.2-0.1-0.3-0.1
		C30.1,10.5,30.2,10.6,30.4,10.6 M76.2,4.7c0.2-0.1,0.4-0.1,0.7,0c0.2,0.1,0.4,0.3,0.5,0.4c0.1,0.2,0.3,0.3,0.5,0.3
		c-0.1,0-0.2,0-0.3-0.1c-0.1,0-0.2-0.1-0.3-0.2C77.1,5,77,4.9,76.8,4.8c-0.2-0.1-0.4,0-0.5,0c-0.2,0.1-0.4,0.1-0.6,0
		C75.9,4.8,76,4.7,76.2,4.7 M76.8,5.3c-0.1,0-0.1,0-0.2-0.1c-0.1,0-0.1-0.1-0.2-0.1c0.1-0.1,0.1-0.1,0.2-0.1c0.1,0,0.1,0,0.2,0
		c0.1,0,0.2,0.1,0.3,0.3C77,5.4,76.9,5.3,76.8,5.3 M75.6,9.4c0.1-0.1,0.1-0.1,0.2-0.2C75.9,9.1,76.1,9,76.3,9
		c-0.1,0.2-0.2,0.3-0.4,0.4c-0.1,0-0.1,0.1-0.2,0.1c-0.1,0-0.1,0.1-0.2,0.2C75.5,9.6,75.5,9.5,75.6,9.4 M82,18
		c-2.8-2.8-6.4-3.5-8.3-3.7c0,0-0.1,0.1-0.1,0.1c-0.1,0.1-0.3,0.2-0.5,0.2c0,0.1,0.1,0.2,0.1,0.2c0,0,0.1,0,0.1-0.1
		c0.1,0,0.1,0,0.2,0c0.1,0,0.1,0,0.2,0c0.1,0,0.1,0,0.2,0.1c-0.1,0-0.1,0-0.2,0c-0.1,0-0.1,0-0.2,0c-0.1,0-0.1,0-0.2,0
		c0,0-0.1,0-0.1,0c0,0,0,0.1,0,0.1l0.1,0.3c0,0,0.1,0,0.1,0c0.1,0,0.1,0,0.2,0c0.1,0,0.1,0,0.2,0c0.1,0,0.1,0,0.2,0.1
		c-0.1,0-0.1,0-0.2,0c-0.1,0-0.1,0-0.2,0c-0.1,0-0.1,0-0.2,0c0,0-0.1,0-0.1,0l0,0.1l0.1,0.4c0,0,0.1,0,0.1,0c0.1,0,0.1,0,0.2,0
		c0.1,0,0.1,0,0.2,0c0.1,0,0.1,0,0.2,0c-0.1,0-0.1,0.1-0.2,0.1c-0.1,0-0.1,0-0.2,0c-0.1,0-0.1,0-0.2,0c0,0-0.1,0-0.1,0
		c0,0.1,0,0.1-0.1,0.1c-0.1,0-0.2,0-0.2-0.1c0,0,0,0,0,0l0,0l-0.1-0.4L73,15c-0.1-0.3-0.2-0.5-0.3-0.7c-0.1-0.2-0.3-0.5-0.5-0.7
		c-0.2-0.2-0.4-0.4-0.6-0.5l0,0c0,0,0,0,0-0.1c0,0,0,0,0.1,0c0.3,0.1,0.5,0.3,0.7,0.5c0.2,0.2,0.4,0.4,0.5,0.7c0,0,0,0.1,0.1,0.1
		c0,0,0,0,0,0c0,0,0,0,0,0c0.2,0,0.3,0,0.5-0.1c0.1-0.1,0.3-0.2,0.4-0.3c0.1-0.1,0.1-0.2,0.2-0.3c0,0,0-0.1,0-0.1c0,0,0-0.1,0-0.1
		c0,0,0,0,0,0c0.1,0.2,0.2,0.3,0.1,0.2c0-0.1,0-0.4,0.1-0.6c0.1-0.3,0.3-0.6,0.4-0.9c0.1,0.3,0.2,0.6,0.2,0.4c0-0.3,0.1-1,0.1-1.1
		c0.1-0.3,0.3-0.5,0.5-0.8c0,0.3,0.1,0.4,0.1,0.3c0-0.2,0.4-0.8,0.4-1c0.2-0.2,0.3-0.4,0.5-0.6c0,0.2,0,0.4,0,0.2
		c0.1-0.2,0.5-0.6,0.6-0.8c0.3-0.2,0.6-0.4,1-0.5c0,0-0.1,0-0.1,0c-0.6,0.1-1.2,0.3-1.7,0.5c-0.6,0.2-1.1,0.4-1.5,0.9c0,0,0,0,0,0
		c0,0,0,0,0,0C75,9,75.6,8.6,76.2,8.4c0.6-0.3,1.2-0.4,1.8-0.6c0.6-0.1,1.2-0.2,1.8-0.3c0.3,0,0.6,0,0.9,0c0.1,0,0.2,0,0.3,0
		c0.1,0,0.4-0.2,0.5-0.3c0.4-0.4,0.7-0.8,0.8-1.1c-0.1,0-0.1,0-0.2,0c-0.1,0-0.1,0-0.2,0c-0.1,0-0.1-0.1-0.2-0.1l0,0
		c0,0,0-0.1,0-0.1c0,0,0.1,0,0.1,0c0,0,0,0,0,0C81.9,5.9,82,6,82.1,6c0.1,0,0.1,0,0.2,0.1c0.1-0.3,0-0.5-0.1-0.6
		c-0.5-0.1-1.3-0.1-2-0.1c-0.4,0-0.9-0.2-1.2-0.5c-0.5-0.5-0.9-0.7-1.1-0.9c-0.1-0.1-0.3-0.1-0.4-0.2c-0.1,0-0.2-0.1-0.3-0.1l0,0
		c-0.1,0-0.1,0-0.1-0.1c-0.1,0-0.3-0.1-0.4-0.1c-0.6-0.2-1.2-0.3-1.8-0.3h0c0,0-0.1,0-0.1-0.1c0,0,0,0,0,0c0,0,0,0,0,0
		c-0.3-0.7-0.4-1.6-0.4-2.2c0-0.6-0.4-0.3-0.7,0c-1,1.3-1,2.8-1,3.7c0,0,0,0,0,0l0,0c0,0.2,0.1,0.4,0.2,0.5c0,0.1,0.1,0.1,0.2,0.2
		c0.1,0,0.2,0.1,0.2,0.1l0,0c0.1,0,0.1,0.1,0.1,0.2s-0.1,0.1-0.2,0.1c0,0,0,0,0,0c-0.1,0-0.2-0.1-0.3-0.2c-0.1-0.1-0.2-0.2-0.2-0.3
		c-0.1-0.1-0.1-0.3-0.1-0.5c-0.7,0.3-1.7,0.9-3,2.3c-0.2,0.2-0.4,0.5-0.5,0.8c0,0.1-0.1,0.1-0.2,0c0,0-0.1-0.1,0-0.1l0,0
		c0.1-0.2,0.2-0.3,0.3-0.5c-0.6-0.1-1.3-0.2-2,0c-1.3,0.3-1.5-0.1-1.6-0.2c-0.1-0.1,0.1,0.5,0.6,0.6c0.6,0.1-0.7,0.5-2.2,0.1
		c0,0,0,0.2,0.5,0.3c0,0-1,0.2-2.5,0.1c-0.5-0.1-0.8-0.1-1-0.2c-0.4-0.1-1.3-0.5-2.4-0.9c0,0,0,0,0,0s-1.4-0.4-1.9-0.9
		c0,0,0.1,0.2,0.3,0.4c-1.3-0.3-2.9-0.5-4.6-0.1c-1.5,0.3-2.6,1-3.4,1.7c-0.5-0.1-2-0.3-4-0.2c0,0,0,0,0,0c0,0-0.1,0-0.2,0
		c-0.1,0-0.3,0-0.4,0c-0.4,0-1,0-1.3-0.1c0,0,0.2,0.1,0.4,0.2c-0.1,0-0.1,0-0.2,0c-3.4,0.5-3.9,0.4-4.2,0.3c0,0-0.1,0.4,0.3,0.6
		c0,0-1.6,0.2-2.9,0.8C36,10,35.3,10,35,10c-0.2-0.1,0.1,0.2,0.5,0.3c-1.4,0.4-3.6,0.3-4.9-0.2c-0.6-0.3-2.1,0.4-1.3,1.7
		c0,0,1.4,2.5,5.5,3.1c-0.4,0.3-0.6,0.6-0.4,0.5c0.3-0.2,1.3-0.3,1.6-0.4c1,0,2-0.2,2.8-0.4c-0.2,0.4-0.3,0.7-0.1,0.5
		c0.2-0.3,1-0.7,1.3-0.9c1-0.4,1.7-0.9,2.2-1.2c-0.1,0.4-0.1,0.6,0,0.4c0.1-0.3,0.8-1,1-1.2c1.1-0.8,3.4-2.3,4.4-1.9c0,0,0,0,0,0
		c-0.5,0.3-1,0.7-1.5,1.3c-0.5,0.8-0.8,1.3-0.9,1.7c-0.7,0.7-1.8,1.6-2.5,1.9c-1.1,0.4-2.3,0.2-2.5,0.2c-0.5-0.1-0.9,0.7-1.4,1.4
		c-0.5,0.7-2.3,1.7-3.3,1.9c-0.3,0.1-0.6,0.4-0.5,0.8c0,0.2,0.1,0.3,0.2,0.4c0.4,0.2,3.5-0.9,5.1-2.6c0,0,0.1-0.1,0.1-0.1
		c0.2-0.3,0.4-0.4,0.9-0.3c0,0-0.1,0.1-0.1,0.1c-0.1,0.1-1.4,1.9-2.8,2.6c-1.2,0.6-2,1.1-2.8,1.1c-0.2,0-0.4,0.2-0.4,0.4
		c0,0.2,0.2,0.5,0.8,0.7c1.2,0.2,2.3-0.2,2.8-0.6c0.6-0.4,3-2.3,3.4-2.4c0.3-0.1,1.8-0.8,2.4-0.7c0.7,0.1,4.7,0.7,6.3-0.3
		c0.2-0.1,0.4-0.3,0.6-0.4c0.2-0.1,0.4-0.3,0.6-0.4c0.3-0.2,0.5-0.4,0.7-0.7c0.2-0.3,0.5-0.5,0.6-0.8c0.4-0.6,0.7-1.2,1-1.9
		c0,0.4-0.1,0.7-0.2,1.1c-0.1,0.4-0.3,0.7-0.5,1c-0.2,0.3-0.5,0.6-0.7,0.9c0,0,0,0,0,0c1.1-0.6,1.9-0.8,2.7-0.9
		c-0.1,0-0.1,0-0.2-0.1c-0.2-0.1-0.5-0.2-0.7-0.4c-0.2-0.2-0.4-0.4-0.5-0.6c0.4,0.3,0.8,0.5,1.3,0.7c0.2,0.1,0.4,0.2,0.7,0.3
		c0.1,0,0.1,0,0.2,0.1c1.1,0.1,2,0.6,3.2,1.2c0.1,0.1,0.2,0.1,0.3,0.2c-0.5,0.3-0.9,0.6-0.6,0.5c0.3-0.1,1.2,0,2,0.1
		c0.9,0.4,1.6,0.6,2.5,0.7c-0.3,0.2-0.5,0.5-0.5,0.5c0.3-0.2,1.9-0.1,2.8,0c0-0.1,0.1-0.1,0.1-0.2c0.1-0.1,0.1-0.1,0.2-0.2
		c0.2-0.1,0.4-0.2,0.6-0.2c-0.1,0.2-0.3,0.3-0.4,0.4c-0.1,0-0.2,0.1-0.2,0.1c0,0,0,0-0.1,0c0,0,0.1,0,0.1,0c0.1,0,0.2,0,0.4,0
		c0,0,0.1,0,0.1,0s0,0,0,0c0.9,0,1.9-0.3,2.8-0.9c0.2,0.2,0.5,0.3,0.7,0.5c0.7,0.3,2,0.4,2.8-0.2c0.6-0.4,2.1-0.7,3.7-0.3
		c0,0,0,0,0,0s1.1,0.5,1.2,2.2c0,0.4,0.4,0.7,0.7,0.7c0.3,0,0.5-0.2,0.5-0.5c0-0.7-0.3-2.1-1.7-3.2c0,0-0.1-0.3-2-0.6
		c0,0-0.1,0-0.1,0C75.2,16,75,16,74.8,16c0.7,0,1.2,0.1,1.4,0.1C76.1,16,76,15.9,76,15.8c0-0.1,0-0.2,0.1-0.3
		c0.1,0.1,0.1,0.2,0.1,0.3c0,0.1,0,0.2-0.1,0.3c0,0,0,0,0,0c0.1,0,0.3,0.1,0.4,0.1c-0.1-0.1-0.1-0.2-0.1-0.3c0-0.1,0.1-0.2,0.2-0.2
		c0,0.1,0,0.2,0,0.3c0,0.1,0,0.1-0.1,0.2c0.2,0,0.3,0.1,0.4,0.1c-0.1-0.1-0.1-0.2,0-0.2c0-0.1,0.1-0.1,0.2-0.1c0,0.1,0,0.2,0,0.2
		c0,0.1-0.1,0.1-0.1,0.2c0.1,0,0.3,0.1,0.4,0.1c0-0.1,0-0.1,0-0.2c0-0.1,0.1-0.1,0.2-0.1c0,0.1,0,0.2,0,0.2c0,0-0.1,0.1-0.1,0.1
		c0.1,0,0.3,0.1,0.4,0.1c-0.1-0.1,0-0.1,0-0.2c0,0,0.1-0.1,0.2-0.1c0,0.1,0,0.1,0,0.2c0,0-0.1,0.1-0.1,0.1c2,0.7,2.7,1.5,3,2
		c0.2,0.3,0.4,0.6,0.7,0.7c0.3,0.1,0.6,0.3,0.6,0.3C83.5,19.8,82,18,82,18"/>
</g>
</svg>
