<?xml version="1.0" encoding="utf-8"?>
<!-- Generator: Adobe Illustrator 18.1.1, SVG Export Plug-In . SVG Version: 6.00 Build 0)  -->
<!DOCTYPE svg PUBLIC "-//W3C//DTD SVG 1.1//EN" "http://www.w3.org/Graphics/SVG/1.1/DTD/svg11.dtd">
<svg version="1.1" id="Group_Colour" xmlns="http://www.w3.org/2000/svg" xmlns:xlink="http://www.w3.org/1999/xlink" x="0px"
	 y="0px" viewBox="0 0 141.7 141.7" enable-background="new 0 0 141.7 141.7" xml:space="preserve">
<g>
	<path fill="#FFFFFF" d="M133.2,74.1c4.1-2.4,4.1-6.2,0-8.6l-92.1-53c-4.1-2.4-7.4-0.4-7.4,4.3L33.8,123c0,4.7,3.4,6.6,7.4,4.3
		L133.2,74.1z"/>
	<g>
		<linearGradient id="SVGID_1_" gradientUnits="userSpaceOnUse" x1="120.9726" y1="-8.4121" x2="-57.1961" y2="81.55">
			<stop  offset="0" style="stop-color:#F7955B"/>
			<stop  offset="0.5" style="stop-color:#D71920"/>
			<stop  offset="1" style="stop-color:#000000"/>
		</linearGradient>
		<path fill="url(#SVGID_1_)" d="M33.7,33.9l-17.5,0c-4.7,0-6.7,3.4-4.3,7.4l6.6,11.5l15.2-5.7L33.7,33.9z"/>
		<linearGradient id="SVGID_2_" gradientUnits="userSpaceOnUse" x1="163.8165" y1="76.4347" x2="-14.3566" y2="166.3989">
			<stop  offset="0" style="stop-color:#F7955B"/>
			<stop  offset="0.5" style="stop-color:#D71920"/>
			<stop  offset="1" style="stop-color:#000000"/>
		</linearGradient>
		<path fill="url(#SVGID_2_)" d="M56.5,118.5l8.6,15c2.4,4.1,6.2,4.1,8.6,0l5.6-9.7l-13.1-10.9L56.5,118.5z"/>
		<linearGradient id="SVGID_3_" gradientUnits="userSpaceOnUse" x1="141.5811" y1="32.4019" x2="-36.5915" y2="122.3659">
			<stop  offset="0" style="stop-color:#F58345"/>
			<stop  offset="0.5" style="stop-color:#D71920"/>
			<stop  offset="1" style="stop-color:#000000"/>
		</linearGradient>
		<path fill="url(#SVGID_3_)" d="M118,56.7l8.9-15.4c2.4-4.1,0.4-7.4-4.3-7.4H114l-3.2,18.7L118,56.7z"/>
		<linearGradient id="SVGID_4_" gradientUnits="userSpaceOnUse" x1="135.3041" y1="-9.6095" x2="-3.7139" y2="135.0829">
			<stop  offset="0" style="stop-color:#E584B6"/>
			<stop  offset="0.5011" style="stop-color:#C63D96"/>
			<stop  offset="1" style="stop-color:#A3238E"/>
		</linearGradient>
		<path fill="url(#SVGID_4_)" d="M78.5,33.9h5.1l30.5,0l1.6-9.3c0.8-4.7-2.2-7.1-6.6-5.5L79.7,30.1l-4.8,1.8L78.5,33.9z"/>
		<linearGradient id="SVGID_5_" gradientUnits="userSpaceOnUse" x1="116.217" y1="-27.9378" x2="-22.7912" y2="116.7443">
			<stop  offset="0" style="stop-color:#F49AC1"/>
			<stop  offset="0.5011" style="stop-color:#C6168D"/>
			<stop  offset="1" style="stop-color:#951B82"/>
		</linearGradient>
		<path fill="url(#SVGID_5_)" d="M33.7,79.1l-2.6-4.5L18.5,52.8l-9.2,3.4c-4.4,1.6-5.1,5.5-1.4,8.5l21.3,17.6l4.6,3.8L33.7,79.1z"/>
		<linearGradient id="SVGID_6_" gradientUnits="userSpaceOnUse" x1="176.7706" y1="30.2306" x2="37.7553" y2="174.9201">
			<stop  offset="0" style="stop-color:#F49AC1"/>
			<stop  offset="0.5011" style="stop-color:#C6168D"/>
			<stop  offset="1" style="stop-color:#951B82"/>
		</linearGradient>
		<path fill="url(#SVGID_6_)" d="M97.9,129.5l5.4-31.9l1.1-6.8l-9.2,5.3l-2.5,4.4l-13.5,23.3l10.5,8.7
			C93.4,135.5,97.1,134.2,97.9,129.5z"/>
		<linearGradient id="SVGID_7_" gradientUnits="userSpaceOnUse" x1="125.3662" y1="-11.3418" x2="20.5709" y2="70.3134">
			<stop  offset="0" style="stop-color:#D90F81"/>
			<stop  offset="0.3651" style="stop-color:#D70F80"/>
			<stop  offset="0.4966" style="stop-color:#D0127E"/>
			<stop  offset="0.5904" style="stop-color:#C6167C"/>
			<stop  offset="0.6663" style="stop-color:#B91A79"/>
			<stop  offset="0.7312" style="stop-color:#A81E75"/>
			<stop  offset="0.7888" style="stop-color:#942270"/>
			<stop  offset="0.8408" style="stop-color:#7E256B"/>
			<stop  offset="0.887" style="stop-color:#642765"/>
			<stop  offset="0.9248" style="stop-color:#4A285F"/>
			<stop  offset="1" style="stop-color:#350F37"/>
		</linearGradient>
		<polygon fill="url(#SVGID_7_)" points="33.7,79.1 33.7,47.1 18.5,52.8 31.2,74.7 		"/>
		<linearGradient id="SVGID_8_" gradientUnits="userSpaceOnUse" x1="168.3452" y1="43.8223" x2="63.5526" y2="125.4754">
			<stop  offset="0" style="stop-color:#D90F81"/>
			<stop  offset="0.3651" style="stop-color:#D70F80"/>
			<stop  offset="0.4966" style="stop-color:#D0127E"/>
			<stop  offset="0.5904" style="stop-color:#C6167C"/>
			<stop  offset="0.6663" style="stop-color:#B91A79"/>
			<stop  offset="0.7312" style="stop-color:#A81E75"/>
			<stop  offset="0.7888" style="stop-color:#942270"/>
			<stop  offset="0.8408" style="stop-color:#7E256B"/>
			<stop  offset="0.887" style="stop-color:#642765"/>
			<stop  offset="0.9248" style="stop-color:#4A285F"/>
			<stop  offset="1" style="stop-color:#350F37"/>
		</linearGradient>
		<polygon fill="url(#SVGID_8_)" points="95.3,96.1 66.1,112.9 79.3,123.8 92.7,100.5 		"/>
		<linearGradient id="SVGID_9_" gradientUnits="userSpaceOnUse" x1="140.2424" y1="7.7558" x2="35.4523" y2="89.407">
			<stop  offset="0" style="stop-color:#B72270"/>
			<stop  offset="0.3961" style="stop-color:#B52271"/>
			<stop  offset="0.5388" style="stop-color:#B12371"/>
			<stop  offset="0.6405" style="stop-color:#A82571"/>
			<stop  offset="0.7228" style="stop-color:#9D2872"/>
			<stop  offset="0.7932" style="stop-color:#8F2A73"/>
			<stop  offset="0.8555" style="stop-color:#7C2D74"/>
			<stop  offset="0.9105" style="stop-color:#662F75"/>
			<stop  offset="0.9248" style="stop-color:#5F3075"/>
			<stop  offset="1" style="stop-color:#401948"/>
		</linearGradient>
		<polygon fill="url(#SVGID_9_)" points="78.5,33.9 110.9,52.6 114.1,33.9 83.6,33.9 		"/>
		<linearGradient id="SVGID_10_" gradientUnits="userSpaceOnUse" x1="136.8258" y1="93.0001" x2="27.2491" y2="64.8081">
			<stop  offset="0" style="stop-color:#7ECBB6"/>
			<stop  offset="0.5023" style="stop-color:#00AE95"/>
			<stop  offset="1" style="stop-color:#009367"/>
		</linearGradient>
		<path fill="url(#SVGID_10_)" d="M103.3,97.6l26.7-7.3c4.6-1.2,5.5-5,2.2-8.3l-4.6-4.5l-23.2,13.4L103.3,97.6z"/>
		<linearGradient id="SVGID_11_" gradientUnits="userSpaceOnUse" x1="150.2753" y1="40.7241" x2="40.6949" y2="12.5311">
			<stop  offset="0" style="stop-color:#7ECBB6"/>
			<stop  offset="0.5023" style="stop-color:#00AE95"/>
			<stop  offset="1" style="stop-color:#009367"/>
		</linearGradient>
		<path fill="url(#SVGID_11_)" d="M79.7,30.1L56.5,7.2c-3.4-3.3-7.1-2.3-8.3,2.3l-1.6,6.1l28.3,16.3L79.7,30.1z"/>
		<linearGradient id="SVGID_12_" gradientUnits="userSpaceOnUse" x1="128.1924" y1="126.5641" x2="18.6099" y2="98.3706">
			<stop  offset="0" style="stop-color:#7ECBB6"/>
			<stop  offset="0.5023" style="stop-color:#00AE95"/>
			<stop  offset="1" style="stop-color:#009367"/>
		</linearGradient>
		<path fill="url(#SVGID_12_)" d="M29.2,82.3l-7.9,30c-1.2,4.6,1.6,7.3,6.1,6l6.3-1.7l0-30.5L29.2,82.3z"/>
		<g>
			<path fill="#58595B" d="M42,69h1.5c0.3,0,0.4-0.2,0.4-0.4v-3.9c0.1,0,0.9,0.1,1.1,0.1c2,0,4.7-0.9,4.7-4c0-3.2-2.6-3.9-4.9-3.9
				H42c-0.3,0-0.4,0.1-0.4,0.5v11.3C41.6,68.9,41.7,69,42,69z M43.9,58.5h0.9c1.5,0,2.5,0.6,2.5,2.2c0,1.5-0.9,2.2-2.4,2.2
				c-0.1,0-0.9,0-1,0V58.5z"/>
			<path fill="#58595B" d="M53.3,68.6v-7.7c0-0.3-0.2-0.4-0.4-0.4h-1.2c-0.3,0-0.5,0.1-0.5,0.4v7.7c0,0.3,0.1,0.4,0.4,0.4h1.4
				C53.2,69,53.3,68.9,53.3,68.6z"/>
			<path fill="#58595B" d="M55.5,69h1.3c0.3,0,0.4-0.1,0.4-0.4v-5.6c0.5-0.5,1.4-0.9,2.1-0.9c1.1,0,1.3,0.7,1.3,1.7v4.8
				c0,0.3,0.1,0.5,0.4,0.5h1.3c0.3,0,0.4-0.2,0.4-0.5v-5.2c0-1.9-0.8-3.2-2.8-3.2c-1,0-2.1,0.4-2.9,1v-0.5c0-0.2-0.2-0.3-0.4-0.3
				h-1.1c-0.3,0-0.4,0.2-0.4,0.4v7.7C55.1,68.9,55.3,69,55.5,69z"/>
			<path fill="#58595B" d="M65,69h1.3c0.3,0,0.4-0.1,0.4-0.4v-5.6c0.5-0.5,1.4-0.9,2.1-0.9c1.1,0,1.3,0.7,1.3,1.7v4.8
				c0,0.3,0.1,0.5,0.4,0.5h1.3c0.3,0,0.4-0.2,0.4-0.5v-5.2c0-1.9-0.8-3.2-2.8-3.2c-1,0-2.1,0.4-2.9,1v-0.5c0-0.2-0.2-0.3-0.4-0.3H65
				c-0.3,0-0.4,0.2-0.4,0.4v7.7C64.5,68.9,64.7,69,65,69z"/>
			<path fill="#58595B" d="M90.2,67.3c-0.1-0.2-0.2-0.3-0.4-0.2c-0.6,0.3-1.1,0.4-1.9,0.4c-1.5,0-2.3-1.2-2.3-2.9
				c0-1.7,0.9-2.8,2.4-2.8c0.6,0,1.2,0.2,1.7,0.4c0.2,0.1,0.3,0.1,0.4-0.2l0.2-0.9c0.1-0.2,0.1-0.4-0.2-0.5
				c-0.7-0.3-1.6-0.5-2.4-0.5c-2.7,0-4.4,1.9-4.4,4.6c0,2.7,1.5,4.4,4.2,4.4c0.9,0,1.7-0.2,2.6-0.5c0.2-0.1,0.3-0.3,0.2-0.6
				L90.2,67.3z"/>
			<path fill="#58595B" d="M99.9,69.2c1.5,0,2.5-0.4,3-0.6c0.2-0.1,0.3-0.1,0.2-0.5l-0.2-0.9c-0.1-0.3-0.3-0.2-0.4-0.2
				c-0.7,0.3-1.4,0.4-2.2,0.4c-1.4,0-2.4-0.9-2.5-2.3h5.2c0.4,0,0.6-0.2,0.6-0.8c0-2.5-1.3-4.2-3.6-4.2c-2.7,0-4.4,2-4.4,4.4
				C95.5,67,96.7,69.2,99.9,69.2z M99.8,61.8c1.1,0,1.6,0.9,1.6,2h-3.6C97.9,62.7,98.6,61.8,99.8,61.8z"/>
			<circle fill="#58595B" cx="52.3" cy="58.1" r="1.2"/>
			<path fill="#58595B" d="M77.2,69.2c1.3,0,2.3-0.8,2.7-1.3c0.2,0.9,1.1,1.2,1.8,1.2c0.8,0,0.9-0.3,0.9-0.5v-0.5
				c0-0.4-0.1-0.5-0.3-0.5c-0.6,0-0.5-0.6-0.5-1.1v-5.7c0-0.3-0.2-0.4-0.4-0.4h-1.1c-0.3,0-0.5,0.1-0.5,0.4v0.4
				c-0.4-0.6-1.3-1-2.3-1c-2.3,0-3.8,2.1-3.8,4.5C73.7,67.2,74.8,69.2,77.2,69.2z M77.9,61.9c0.7,0,1.4,0.4,1.8,0.9v3.4
				c-0.3,0.5-1,1.2-1.9,1.2c-1.3,0-1.9-1.3-1.9-2.7C75.9,62.9,76.8,61.9,77.9,61.9z"/>
			<path fill="#58595B" d="M94.7,67.6c-0.6,0-0.5-0.6-0.5-1.1v-9.4c0-0.3-0.2-0.4-0.4-0.4h-1.2c-0.3,0-0.5,0.1-0.5,0.4v10
				c0,1.8,1.2,2,2,2s0.9-0.3,0.9-0.5v-0.5C94.9,67.7,94.8,67.6,94.7,67.6z"/>
		</g>
		<g>
			<path fill="#58595B" d="M46.5,84.5c1.2,0,2.6-0.3,3.5-0.8c0.3-0.2,0.4-0.3,0.4-0.7v-4.9c0-0.3-0.1-0.3-0.3-0.3h-3.2
				c-0.2,0-0.3,0.1-0.3,0.3v0.7c0,0.3,0.1,0.3,0.3,0.3h1.9v3.7c-0.6,0.3-1.5,0.4-2.3,0.4c-2.8,0-3.9-2.4-3.9-5
				c0-3.5,2.1-4.9,4.2-4.9c0.7,0,1.8,0.2,2.4,0.5c0.2,0.1,0.3,0,0.4-0.2l0.2-0.7c0.1-0.2,0-0.3-0.2-0.4c-0.9-0.4-2-0.6-3-0.6
				c-3.7,0-6,2.7-6,6.3C40.8,81.9,42.6,84.5,46.5,84.5z"/>
			<path fill="#58595B" d="M75.9,75.7h-0.7c-0.2,0-0.3,0.1-0.3,0.3v11.7c0,0.2,0.1,0.4,0.3,0.4H76c0.2,0,0.4-0.1,0.4-0.3v-4.3
				c0.5,0.7,1.5,1,2.3,1c2.6,0,3.9-2.2,3.9-4.6c0-2.3-1.1-4.4-3.6-4.4c-1,0-2.1,0.5-2.6,1.1v-0.6C76.3,75.8,76.2,75.7,75.9,75.7z
				 M76.4,77.9c0.4-0.6,1.4-1.1,2.3-1.1c1.8,0,2.4,1.7,2.4,3.2c0,1.6-0.6,3.3-2.5,3.3c-0.9,0-1.8-0.6-2.2-1.2V77.9z"/>
			<path fill="#58595B" d="M53.5,76.1c0-0.2-0.1-0.3-0.4-0.3h-0.8c-0.2,0-0.3,0.1-0.3,0.4v7.9c0,0.2,0.1,0.4,0.3,0.4h0.8
				c0.2,0,0.3-0.1,0.3-0.4v-6.1c0.5-0.7,1.2-1.1,1.8-1.1c0.3,0,0.4,0.1,0.6,0.1c0.1,0,0.2-0.1,0.2-0.2l0.1-0.8c0-0.1,0-0.3-0.1-0.3
				c-0.2,0-0.4-0.1-0.5-0.1c-0.9,0-1.6,0.5-2.1,1.1V76.1z"/>
			<path fill="#58595B" d="M71.4,76.1v6.1c-0.6,0.5-1.6,1-2.3,1c-1.4,0-1.7-0.9-1.7-2.2v-5c0-0.2-0.1-0.4-0.4-0.4h-0.8
				c-0.2,0-0.4,0.1-0.4,0.4v5.2c0,1.9,0.7,3.2,2.8,3.2c1,0,2-0.3,2.9-1.1c0.2,0.7,0.7,1,1.2,1c0.6,0,0.8-0.2,0.8-0.4v-0.3
				c0-0.3-0.1-0.3-0.2-0.3c-0.3,0-0.4-0.3-0.4-0.6v-6.7c0-0.2-0.1-0.4-0.3-0.4h-0.8C71.5,75.7,71.4,75.8,71.4,76.1z"/>
			<path fill="#58595B" d="M56.3,80c0,2.5,1.2,4.5,4,4.5c2.6,0,4.1-2,4.1-4.5c0-2.6-1.2-4.5-4-4.5C57.8,75.5,56.3,77.5,56.3,80z
				 M62.8,80c0,1.7-0.7,3.3-2.5,3.3c-1.9,0-2.4-1.7-2.4-3.4c0-1.6,0.6-3.3,2.5-3.3C62.2,76.7,62.8,78.4,62.8,80z"/>
		</g>
	</g>
</g>
</svg>
