<?xml version="1.0" encoding="UTF-8"?><svg id="Layer_1" xmlns="http://www.w3.org/2000/svg" viewBox="0 0 500 292.12"><path d="M112.31,247.64h-2.76l-.44-9.33-3.95,9.33h-1.73c-1.12-3.02-2.51-5.95-4.2-9.1l-.38,9.1h-2.91v-16.19c1.28-.21,2.31-.2,3.64-.1l4.69,10.4,4.68-10.38c1.2-.14,2.29-.21,3.57.09l.07,13.56c0,.98,0,1.86-.28,2.61Z"/><path d="M147.57,247.64h-3.29c-.67-2.95,1.25-9.7-1.7-10.07-4.24-.53-1.52,7.14-2.74,10.07h-3.03l-.11-7.73c-.02-1.29-.42-2.23-1.59-2.33-4.23-.37-1.48,6.89-2.71,10.06h-3.3l-.14-9.65c-1.07-.22-2.02-2.04-1.16-2.63,1.31-.9,3.24-.35,4.4.42,2.49-1.29,5.36-1.32,7.5.37,1.23-1.68,5.59-1.75,6.99-.06.78.95,1,1.94.98,3.36l-.1,8.18Z"/><path d="M51.16,247.64h-9.58c.05-.74-.92-.69-1.37-1.05-2.34-1.86-2.56-4.73-2.51-7.5.04-2.4.05-4.36,1.71-5.95,1.54-1.48,3.07-2.05,5.44-2.06,2.97-.02,5.67,1.38,6.24,4.54-.99.21-2.86,1.16-3.52.44-.97-1.14-1.35-2.47-2.95-2.26-3.47.46-4.41,7.5-1.45,10.31.96.92,3.02.87,4.12.31.4-.51.42-2.06-.04-2.46-.5-.43-1.37-.22-1.31-.89.03-.38-.19-1.48.36-1.54,1.69-.16,3.16-.08,4.86-.03v8.12Z"/><path d="M158.4,247.64h-7.02c-.17-.45-.66-.82-.67-1.51l-.12-13.19c-.71-.39-1.53-.57-1.44-1.18.07-.47-.17-1.68.45-1.79,1.54-.27,3.17-.2,4.62.15l.16,4.71c1.64.55,3.48-.28,5.01.33,2.31.93,2.7,3.54,2.89,5.73.28,3.2-1.27,5.34-3.88,6.74ZM158.09,244.09c1.05-1.93.99-4.52-.35-6.13-.69-.83-2.94-.47-3.18.56-.53,2.17-.19,4.23-.19,6.49,1.15.71,2.96.5,3.72-.91Z"/><path d="M86.15,247.64h-8.26c-2.02-1.38-3.2-3.34-3.07-5.96.1-2.17.68-4.07,2.18-5.32,1.64-1.36,3.56-1.67,5.8-1.34.03-1.14.03-2.01-.07-2.9-1.29.41-1.08-.55-1.11-1.1-.08-1.5,2.5-.87,4.49-.8l.22,14.9c.59.23,1.09.28,1.24.54.24.42.29,1.05-.17,1.3-.49.27-.94.39-1.26.67ZM82.76,237.36c-1.87-.72-3.61.13-4.09,2.01-.37,1.46-.42,2.93-.16,4.42.52.91,1.34,1.37,2.26,1.28,3.25-.32,1.78-4.3,1.99-7.7Z"/><path d="M124.11,247.64h-5.91c0-.76-1.02-.69-1.48-1.14-1.54-1.5-1.84-3.58-2.01-5.78s1.53-4.96,3.92-5.59c2.69-.71,6.13-.24,7.47,2.62.64,1.36.25,3.06.09,4.45-2.32.58-4.52-.1-6.93.36-.79.15-.26,1.52.32,1.84,2.07,1.14,4.07.45,6.08-.33.55-.08.83,1.12.74,1.52-.33,1.47-1.46.89-2.28,2.04ZM122.63,240.1c.85-.37-.03-2.06-.58-2.51-.72-.59-2.13-.37-2.72.16-.49.45-1.21,2.09-.42,2.35,1,.33,2.64.48,3.73,0Z"/><path d="M172.97,247.64h-5.19c-.24-.51-1.01-.43-1.46-.81-4.24-3.57-2.84-9.5.42-11.49,1.25-.76,4.05-.53,5.55-.01,1.91.66,4.2,4.1,2.67,6.87l-6.98.38c-.43.37.11,1.42.41,1.81.47.61,4.33.68,5.99-.41.46.87.66,2.15-.1,2.69-.52.37-1.3.33-1.32.98ZM171.82,240.11c.1-1.9-1.02-3.03-2.39-2.91s-2.3,1.53-1.95,2.96c1.51.11,2.79.25,4.34-.05Z"/><path d="M62.28,247.64h-5.12c-2.69-1.47-3.98-3.93-3.76-7.05.25-3.62,2.77-5.85,6.34-5.76,2.8.08,5.1,1.2,5.64,4.31.41,2.37.29,5.25-1.42,7.19-.49.55-1.69.46-1.68,1.31ZM61.22,238.06c-.77-.92-1.98-.97-2.79-.5-2.02,1.19-1.46,5.47-.95,6.32.57.95,1.8,1.62,2.56,1.28,2.84-1.28,1.95-6.18,1.18-7.1Z"/><path d="M181.43,247.64h-3.55l-.11-9.63c-1.19-.05-1.99-1.72-1.1-2.63s3.25-.42,4.35.35c1.29-.73,2.42-.95,3.83-.71.06,1.02.11,1.87-.06,2.82-.71.28-1.75-.27-2.24.3-.43.49-.93,1.44-.95,2.11l-.17,7.4Z"/><path d="M72.08,247.64h-3.04c-.72-.78-.88-1.77-.85-2.98.09-3.04.06-5.9-.16-8.91-.07-.98.72-2.22-.13-3.02-.4-.38-1.23-.41-1.15-.95.05-.36-.17-1.36.23-1.49,1.29-.45,2.74-.23,4.27-.09l.2,14.42c0,.69,1.44.73,1.42,1.5-.02.7-.64,1.08-.79,1.53Z"/><path d="M35.52,198.1v-10.43c.21-.06.48-.17.62-.53,1.47-3.81,3.33-7.54,6.3-10.35,4.15-3.94,8.89-6.37,14.75-5.62,3.25.41,6.4,1.55,8.49,4.12l2.78-3c1.03-1.11,3.37-.1,4.96-.18l-.05,17.75c-2.57.1-5.01.18-7.72,0-.52-3.12-1.75-6.24-4.31-8.3-2.34-1.88-3.78-2.22-7.52-1.61-1.1.18-2.54,1.12-3.34,1.77-3.74,3.08-4.99,7.47-4.79,12.08.24,5.5,2.31,11.16,7.84,13.46,1.56.65,4,.15,5.73.03,3.04-.21,6.44-7,6.2-10.15,2.64-.15,4.83-.25,7.77.32-.68,3.38.88,7.26-.44,10.58-1.21,3.05-5.51,4.93-8.62,6.01-5.3,1.85-11.19,1.71-16.35-.39-6.15-2.51-10.17-8.26-11.76-14.52-.14-.54-.22-.83-.54-1.01Z"/><path d="M475.4,193.31v6.63c-.67,1.17-1.86,1.84-3.39,1.85l-15.52.07c-.46,1.73.25,3.25,1.39,4.45,4.06,4.3,11.12,2.49,15.71-.38.84.44.55,1.58.48,2.38l-.3,3.54c-8.18,4.62-20.91,4.93-25.37-5.42-2.36-5.47-1.73-14.96,3.04-19.62,3.52-3.44,8.85-4.54,13.45-3.55,4.86,1.04,8.47,4.02,9.83,8.75.15.52.33,1.03.67,1.3ZM467.08,196.82c.52-2.92-.3-5.76-2.51-7.15-2.7-1.71-5.78-.8-7.45,1.75-1.05,1.6-1.55,3.6-1.23,5.49l11.19-.09Z"/><path d="M239.2,208.51c.63,1.07,2.05-.06,3.11-.23.22,1.3.42,3.55-.54,4.69-1.13,1.34-3.49,1.45-5.2,1.69-1.3.18-2.79-.46-3.92-1.08-.64-.35-1.19-2.13-2.15-1.57-1.53.89-2.77,2.15-4.68,2.48-3.09.53-6.63.48-9.51-.9s-4.9-4.32-4.91-7.68l-.1-22.26,8.49.04.12,20.67c.02,2.83,2.64,4.15,5.26,3.91s4.8-2.53,4.81-5.32l.05-19.24,8.49-.09.03,21.93c0,.86.19,2.16.66,2.96Z"/><path d="M360.43,194.19l-.19,19.95-8.43-.08-.06-24.15c-1.24-.56-2.36-.16-3.65-.45,0-1.9-.15-3.66.15-5.7l8.89-.09c.41,1.38.62,2.39,1.37,3.69,1.84-2.51,4.33-3.5,7.09-4.13,1.8-.41,3.28-.1,4.96.07,5.38.55,8.61,4.45,8.61,9.86l.03,20.96-8.46-.06-.13-20.42c0-.87-.85-2.24-1.43-2.89-1.27-1.42-3.78-1.55-5.54-.84-1.29.52-3.18,2.19-3.2,4.28Z"/><path d="M426,194.13l-.2,20.01-8.44-.08-.06-24.16c-1.21-.55-2.3-.11-3.53-.51-.21-1.84-.24-3.65.05-5.63l8.88-.1c.41,1.35.65,2.41,1.37,3.54,3.83-3.87,7.13-4.57,12.35-3.88s8.3,4.54,8.32,9.83l.07,20.91-8.46.06-.12-20.12c0-.97-.65-2.4-1.32-3.11-1.43-1.5-4.1-1.88-5.97-.82-1.24.71-2.92,2.4-2.94,4.07Z"/><path d="M118.31,194.21l-.21,19.84-8.42.11-.08-24.48-3.25-.24c-.16-1.71-1.22-5.58.8-5.72,2.51-.18,5.06-.37,7.45.39.65,1.06.67,2.03,1.64,3.27,3.33-3.36,7.8-5,12.35-4.19,4.93.87,8.25,4.25,8.26,9.38l.02,21.54-8.54-.03-.05-20.03c0-2.97-2.43-4.64-5.24-4.59-3.1.05-4.71,2.2-4.73,4.75Z"/><path d="M345.22,209.14c-5.31,8.12-20.73,7.41-25.02-.7-2.93-5.54-3.07-12.14-.54-17.82,3.08-6.92,10.44-8.59,17.28-7.22,7.42,1.49,11.06,7.8,10.79,14.73-.18,4.53.23,6.82-2.51,11.01ZM328.1,206.26c1.32,2.23,3.47,2.91,5.91,2.65,6.03-.65,5.57-11.02,4.53-15.47-.68-2.89-2.84-4.58-5.59-4.55s-4.92,1.74-5.64,4.49c-.85,3.26-1.03,9.79.79,12.89Z"/><path d="M104.31,206.49c-3.31,9.2-15.1,9.97-21.62,6.54-3.85-2.02-6.23-5.98-6.3-10.39-2.13-7.34,1.21-16.93,9.01-18.89,2.53-.64,4.92-.96,7.32-.74,6.5.59,11.27,5.08,12.44,11.45.74,4.05.54,8.18-.85,12.03ZM94.58,207.54c3.8-3.68,2.64-15.53.02-17.28-2.05-1.37-4.06-1.93-6.14-.98-4.28,1.96-4.05,7.67-3.86,11.8.11,2.53.64,5.4,2.83,6.85s5.26,1.45,7.16-.4Z"/><path d="M253.36,193.61c-3.02,5.8-.61,12.53,5.09,15.17,1.1.51,3.04.4,4.11,0,3.14-1.17,4.53-4.12,5.47-7.16,1.99-.2,3.82-.11,5.81-.05.18,2.6.15,5.07,0,7.63-4.81,5.03-12.05,6.74-18.66,5.06-5.68-1.45-10.55-5.32-11.62-11.39-1.63-9.2,2.41-17.11,11.51-19.46,4.57-1.18,8.6-.49,12.6,2.02,1.46.92,1.17-2.88,6.19-1.66v12.74s-5.78-.03-5.78-.03c-.76-2.09-1.53-3.99-3.25-5.4-3.83-3.14-9.45-1.41-11.49,2.52Z"/><path d="M140.24,212.8l.69-6.54c3.3,1.66,11.4,4.23,14.09,1.49.57-.58.95-1.25.89-2.01-.29-3.44-10.06-3.2-13.6-7.16-2.87-3.22-2.79-9.07.38-12.1,3.46-3.3,8.6-3.94,13.11-3.3,1.82.26,4.08.21,5.43,1.31.64,1.64,0,3.89.2,5.81-3-1.04-12.56-2.81-13.08,1.32-.15,1.21.68,2.08,1.9,2.5l7.65,2.63c4.77,1.64,7.05,6.04,5.71,11.09-2.34,8.84-16.28,7.81-23.36,4.94Z"/><path d="M185.89,212.98c-4.68,2.54-13.67,3.17-15.9-2.42-.63-1.59-.91-3.41-.93-5.1l-.19-15.79c-1.52-.23-2.92-.13-4.3.12-.35-2.09-.16-4.04-.14-6.13l4.4-.12c.66-2.48-1.01-7.57,1.41-7.88s4.72-.95,7.23-1.84l.37,9.76,6.55.15c.24,1.93.25,3.82-.01,5.81-2.31.56-6.69-1.02-6.69,1.48l.03,14.54c0,1,.54,2.1,1.12,2.47,1.26.79,5.29.68,6.92-1.08.46,2.11.18,3.89.12,6.04Z"/><path d="M297.59,213.1c-3.32,1.54-6.85,2.12-10.25,1.46-3.84-.74-5.89-3.48-6.2-7.33-.44-5.38-.23-10.76-.15-16.24.03-2.07-3.66-1.16-4.76-1.57v-5.63c1.4-.49,3.6.23,4.28-.47,1.01-1.02.07-5.39.68-7.39l8.28-1.88.09,9.54c2.37.16,4.6-.28,6.85.23.41,1.92.02,3.74-.24,5.68l-6.62.08.06,15.59c0,.91.69,2.51,1.41,2.94,2.6,1.56,5.25-.86,7.12-.67.09,1.92-.18,3.59-.54,5.64ZM282.09,193.26h-.74v11.92h.74v-11.92Z"/><path d="M389.95,214.54c-3.8.19-6.03-2.29-6.05-5.87l-.16-29.83c0-.56-.25-1.06-.44-1.3-.59-.74-3.07.22-3.13-1.03-.09-1.83-.2-3.52.14-5.44l12.02-.02v35.61c0,.99.29,1.79,1.04,2.12s1.41-.17,2.59-.57c.01,1.25.62,3.68-.25,4.74-1.31,1.6-3.75,1.49-5.77,1.59Z"/><path d="M191.27,214.12l-.13-24.37c-1.32-.33-2.34-.06-3.56-.23-.16-2.02-.14-3.8,0-5.9l8.47.12c1.08.52,1,2.38,1.79,3.68,2.21-3.39,6.08-5.01,9.98-4.24l.14,6.71c-1.64.15-3.11-.25-4.61.22-2.29.71-3.55,3.01-3.56,5.39l-.04,18.58-8.47.03Z"/><path d="M405.12,214.32c-2.57-.45-4.07-2.56-4.09-5.16l-.13-18.43c-.02-2.2-3.25-.04-3.5-1.33-.36-1.85-.14-3.72-.06-5.69l12.09-.1.17,24.14c0,1.29,2.46,1.27,3.46.44.52,1.69.02,3.29,0,5.05-2.49,1.29-5.23,1.55-7.94,1.07Z"/><path d="M315.49,212.98c-1.7,1.3-4.13,1.9-6.27,1.66-2.71-.3-5.5-1.64-5.52-4.59l-.13-20.33-3.55-.24c-.11-1.88-.18-3.59,0-5.72l11.83-.03.2,24.72c.79.83,2.49.53,3.53.14.06,1.42.27,3.12-.1,4.4Z"/><circle cx="405.04" cy="175.46" r="4.82"/><path d="M304.06,178.85c-2-1.96-1.65-5.91.41-7.24s4.51-1.15,6.08.13c1.7,1.38,2.2,4.01,1.09,6.17-1.31,2.56-5.29,3.18-7.58.93Z"/><rect x="281.35" y="193.26" width=".74" height="11.92"/><path d="M233.66,84.44c-1.67-17.46-10.11-32.58-23.56-43.7-7.89-6.52-17.01-10.77-26.96-12.98-6.52-1.45-23.62-.65-23.62-.65-8.05-.04-24.03,7.79-30.97,13.73-1.99,1.7-3.75,3.25-5.63,5.22-12.43,12.99-19.05,30.67-17.88,48.67,1.14,17.53,9.12,33.65,22.29,44.93,23.74,20.33,58.5,20.91,82.84,1.16,14.67-11.9,23.75-30.08,23.71-49.31,0-2.4.03-4.59-.21-7.07ZM140.69,126.74l-.06-42.88c3.24-1,9.04.14,13.32-.7l.03,44.53c-4.5-.53-8.71-.94-13.28-.94ZM167.71,130.58l-9.22-2.16v-44.83c3.19-.22,6.06-.13,9.24-.02l-.02,47.01ZM175.94,132.84c-.42-1-1.71-.61-2.63-.69-.09,0-.2-.04-.29,0,.19-.86,0-1.66,0-2.7l-.07-45.66h5.61s0,49.11,0,49.11c-.88.4-1.56.02-2.24-.03-.12,0-.25-.03-.37-.02ZM184.87,134.46v-51.08s4.11,0,4.11,0v51.08s-4.11,0-4.11,0ZM197.54,133.61h-2.59s0-50.16,0-50.16h2.59s0,50.16,0,50.16ZM197.95,71.08c-2.49,1.97-1.66,6.23-.83,9.32l-55.79-.04c1.47-3.05,1.82-8.12-1.12-9.32l-.48-.76v-.63s58.91.06,58.91.06c-.1.81-.42,1.14-.7,1.37ZM207.6,64.42v2.2h-76.73v-3.72h76.73v1.52ZM128.03,61.06v-7.18s82.64-.02,82.64-.02v7.18s-82.64.02-82.64.02Z"/></svg>