<?xml version="1.0" encoding="UTF-8"?><svg id="Layer_1" xmlns="http://www.w3.org/2000/svg" viewBox="0 0 500 500"><path d="M224.84,127.06c16.64,16.68,11.32,37.63.72,55.59-13.66,23.14-29.53,31.68-51.96,44.49-20.06,11.47-32.77,22.93-37.67,46.49-2.5,12-.86,23.48,6,33.85,11.96,18.09,34.16,31.5,53.81,40.53,24.48,11.24,49.74,19.56,76.92,25.03-8.25-7.1-15.56-13.61-20.85-22.57-7.71-13.05-8.34-28.07-.92-41.44,4.25-7.88,9.7-14.71,16.63-20.62l41.1-35.05c7.15-6.1,13.83-11.99,20.3-18.6,8.29-8.48,12.6-18.41,12.89-30.24.56-22.91-12.83-35.06-31.24-45.9-25.7-14.21-55.51-23.17-84.04-31.57,57.74-3,123.36,5.82,176.21,31.71,26.62,13.04,53.06,31.85,67.36,58.3,11.35,21.01,11.8,45.27.83,66.48-20.39,39.44-69.11,62.79-110.06,74.82-28.1,8.25-56.61,12.32-85.77,14.21-2.31.15-3.97.98-6.35.91l-12.3-.37c-32.3-.98-64.07-3-95.58-10.45-38.38-9.07-80.17-25.6-109.15-52.76-26.07-24.43-39.99-57.66-23.4-91.84,11.93-24.57,34.93-42.64,58.62-55.48,41.06-22.25,90.81-32.84,137.91-35.53ZM119.83,240.98l-31.85-.86.15-17.73,33.15-.16c2.37-.83,2.71-12.75-.56-12.79l-48.86-.63c-1.92-.02-3.68,1.36-3.7,3.31l-.69,71.45c-.05,4.69,13.5,2.98,16.65,3,1.22-.37,3.31-.88,3.33-2.47l.39-30.3,31.69-.16c3.06-.02,2.9-12.6.31-12.67ZM405.22,273.78l5.26,13.8c.26,3.7,18.05,2.76,19.01,1.64.37-.43.83-1.32.44-2.28l-29.29-71.45c-.89-2.17-2.02-3.41-4.48-3.58-3.5-.24-16.81-1.4-18.21,1.83l-31.31,72.17c-.38.87-.44,1.55-.14,2.02,1.34,2.1,12.51,1.62,15.67,1.42,1.32-.08,2.68-.83,3.17-2.02l5.8-13.94,34.07.4Z"/><path d="M243.77,289.44c-3.83.61-19,1.92-18.95-3.88l.59-71.4c.02-2.69,1.3-4.65,4.08-5.1,4.92-.79,10.22-.7,15.08.16,2.71.48,3.9,2.31,3.87,4.94l-.66,70.65c-.02,2.35-1.3,4.2-4.01,4.63Z"/><path d="M400.03,260.17l-23.48-.04,6.36-14.56c2.1-4.81,3.56-9.48,5.58-14.87,2.56,2.89,2.23,5.86,3.35,8.71l8.18,20.77Z"/></svg>