<?xml version="1.0" encoding="UTF-8"?><svg id="Layer_1" xmlns="http://www.w3.org/2000/svg" viewBox="0 0 1080 1080"><path d="M210.22,327.87c-15.03,0-29.49,2.43-43.01,6.93-41.04,13.58-73.54,46.08-87.12,87.12-4.5,13.53-6.93,27.99-6.93,43.01v287.19h808.49c14.39,0,28.22-2.43,41.09-6.93,36.03-12.56,64.62-41.13,77.18-77.16,4.48-12.89,6.93-26.71,6.93-41.11v-299.05H210.22ZM374.4,637.77l-38.99-57.05h-75.18l26.36-39.25h24.51l-29.58-42.88-94.05,139.18h-52.52l121.94-178.98c6-8.98,15.14-14.15,25.08-14.15s19.23,5.21,25.15,14.29l120.17,178.83h-52.9ZM494.28,579.95v57.82h-44.35v-119.66h44.35v22.28h90.28c19.85,0,53.16-3.56,53.16-27.44,0-13.14-6.09-28.22-53.43-28.22h-134.43l21.83-40.09h122.69c54.07,0,87.67,26.27,87.67,68.59s-33.6,66.72-87.67,66.72h-100.1ZM886.67,637.77l-83.03-72.24-83.52,72.24h-60.12l114.96-99.11-107.9-94.01h63.72l75.55,66.61,76.08-66.61h61.49l-108.07,93.01,115.36,100.12h-64.53Z"/></svg>