<svg width="48" height="48" viewBox="0 0 48 48" fill="none" xmlns="http://www.w3.org/2000/svg">
<g filter="url(#filter0_iii_3051_46885)">
<g clip-path="url(#clip0_3051_46885)">
<rect width="48" height="48" rx="12" fill="#22262F"/>
<rect width="48" height="48" fill="url(#paint0_linear_3051_46885)"/>
<g filter="url(#filter1_d_3051_46885)">
<path fill-rule="evenodd" clip-rule="evenodd" d="M24 15.375C20.8934 15.375 18.375 12.8566 18.375 9.75H14.625C14.625 14.9277 18.8223 19.125 24 19.125C29.1777 19.125 33.375 14.9277 33.375 9.75H29.625C29.625 12.8566 27.1066 15.375 24 15.375ZM18.375 38.25C18.375 35.1434 20.8934 32.625 24 32.625C27.1066 32.625 29.625 35.1434 29.625 38.25H33.375C33.375 33.0723 29.1777 28.875 24 28.875C18.8223 28.875 14.625 33.0723 14.625 38.25H18.375ZM15.375 24C15.375 20.8934 12.8566 18.375 9.75 18.375V14.625C14.9277 14.625 19.125 18.8223 19.125 24C19.125 29.1777 14.9277 33.375 9.75 33.375V29.625C12.8566 29.625 15.375 27.1066 15.375 24ZM32.625 24C32.625 20.8934 35.1434 18.375 38.25 18.375V14.625C33.0723 14.625 28.875 18.8223 28.875 24C28.875 29.1777 33.0723 33.375 38.25 33.375V29.625C35.1434 29.625 32.625 27.1066 32.625 24Z" fill="url(#paint1_linear_3051_46885)"/>
</g>
</g>
<rect x="1" y="1" width="46" height="46" rx="11" stroke="url(#paint2_linear_3051_46885)" stroke-width="2"/>
</g>
<defs>
<filter id="filter0_iii_3051_46885" x="0" y="-3" width="48" height="54" filterUnits="userSpaceOnUse" color-interpolation-filters="sRGB">
<feFlood flood-opacity="0" result="BackgroundImageFix"/>
<feBlend mode="normal" in="SourceGraphic" in2="BackgroundImageFix" result="shape"/>
<feColorMatrix in="SourceAlpha" type="matrix" values="0 0 0 0 0 0 0 0 0 0 0 0 0 0 0 0 0 0 127 0" result="hardAlpha"/>
<feOffset dy="-3"/>
<feGaussianBlur stdDeviation="1.5"/>
<feComposite in2="hardAlpha" operator="arithmetic" k2="-1" k3="1"/>
<feColorMatrix type="matrix" values="0 0 0 0 0 0 0 0 0 0 0 0 0 0 0 0 0 0 0.1 0"/>
<feBlend mode="normal" in2="shape" result="effect1_innerShadow_3051_46885"/>
<feColorMatrix in="SourceAlpha" type="matrix" values="0 0 0 0 0 0 0 0 0 0 0 0 0 0 0 0 0 0 127 0" result="hardAlpha"/>
<feOffset dy="3"/>
<feGaussianBlur stdDeviation="1.5"/>
<feComposite in2="hardAlpha" operator="arithmetic" k2="-1" k3="1"/>
<feColorMatrix type="matrix" values="0 0 0 0 1 0 0 0 0 1 0 0 0 0 1 0 0 0 0.1 0"/>
<feBlend mode="normal" in2="effect1_innerShadow_3051_46885" result="effect2_innerShadow_3051_46885"/>
<feColorMatrix in="SourceAlpha" type="matrix" values="0 0 0 0 0 0 0 0 0 0 0 0 0 0 0 0 0 0 127 0" result="hardAlpha"/>
<feMorphology radius="1" operator="erode" in="SourceAlpha" result="effect3_innerShadow_3051_46885"/>
<feOffset/>
<feComposite in2="hardAlpha" operator="arithmetic" k2="-1" k3="1"/>
<feColorMatrix type="matrix" values="0 0 0 0 0 0 0 0 0 0 0 0 0 0 0 0 0 0 0.2 0"/>
<feBlend mode="normal" in2="effect2_innerShadow_3051_46885" result="effect3_innerShadow_3051_46885"/>
</filter>
<filter id="filter1_d_3051_46885" x="6.75" y="5.25" width="34.5" height="42" filterUnits="userSpaceOnUse" color-interpolation-filters="sRGB">
<feFlood flood-opacity="0" result="BackgroundImageFix"/>
<feColorMatrix in="SourceAlpha" type="matrix" values="0 0 0 0 0 0 0 0 0 0 0 0 0 0 0 0 0 0 127 0" result="hardAlpha"/>
<feMorphology radius="1.5" operator="erode" in="SourceAlpha" result="effect1_dropShadow_3051_46885"/>
<feOffset dy="2.25"/>
<feGaussianBlur stdDeviation="2.25"/>
<feComposite in2="hardAlpha" operator="out"/>
<feColorMatrix type="matrix" values="0 0 0 0 0.141176 0 0 0 0 0.141176 0 0 0 0 0.141176 0 0 0 0.1 0"/>
<feBlend mode="normal" in2="BackgroundImageFix" result="effect1_dropShadow_3051_46885"/>
<feBlend mode="normal" in="SourceGraphic" in2="effect1_dropShadow_3051_46885" result="shape"/>
</filter>
<linearGradient id="paint0_linear_3051_46885" x1="24" y1="5.96047e-07" x2="26" y2="48" gradientUnits="userSpaceOnUse">
<stop stop-color="white" stop-opacity="0"/>
<stop offset="1" stop-color="white" stop-opacity="0.12"/>
</linearGradient>
<linearGradient id="paint1_linear_3051_46885" x1="24" y1="9.75" x2="24" y2="38.25" gradientUnits="userSpaceOnUse">
<stop stop-color="white" stop-opacity="0.8"/>
<stop offset="1" stop-color="white" stop-opacity="0.5"/>
</linearGradient>
<linearGradient id="paint2_linear_3051_46885" x1="24" y1="0" x2="24" y2="48" gradientUnits="userSpaceOnUse">
<stop stop-color="white" stop-opacity="0.12"/>
<stop offset="1" stop-color="white" stop-opacity="0"/>
</linearGradient>
<clipPath id="clip0_3051_46885">
<rect width="48" height="48" rx="12" fill="white"/>
</clipPath>
</defs>
</svg>
