<svg width="48" height="48" viewBox="0 0 48 48" fill="none" xmlns="http://www.w3.org/2000/svg">
<g filter="url(#filter0_iii_3051_46899)">
<g clip-path="url(#clip0_3051_46899)">
<rect width="48" height="48" rx="12" fill="#22262F"/>
<rect width="48" height="48" fill="url(#paint0_linear_3051_46899)"/>
<g filter="url(#filter1_d_3051_46899)">
<path d="M15.75 12.375C15.75 14.239 14.239 15.75 12.375 15.75C10.511 15.75 9 14.239 9 12.375C9 10.511 10.511 9 12.375 9C14.239 9 15.75 10.511 15.75 12.375Z" fill="url(#paint1_linear_3051_46899)"/>
<path d="M27.375 12.375C27.375 14.239 25.864 15.75 24 15.75C22.136 15.75 20.625 14.239 20.625 12.375C20.625 10.511 22.136 9 24 9C25.864 9 27.375 10.511 27.375 12.375Z" fill="url(#paint2_linear_3051_46899)"/>
<path d="M39 12.375C39 14.239 37.489 15.75 35.625 15.75C33.761 15.75 32.25 14.239 32.25 12.375C32.25 10.511 33.761 9 35.625 9C37.489 9 39 10.511 39 12.375Z" fill="url(#paint3_linear_3051_46899)"/>
<path d="M15.75 24C15.75 25.864 14.239 27.375 12.375 27.375C10.511 27.375 9 25.864 9 24C9 22.136 10.511 20.625 12.375 20.625C14.239 20.625 15.75 22.136 15.75 24Z" fill="url(#paint4_linear_3051_46899)"/>
<path d="M27.375 24C27.375 25.864 25.864 27.375 24 27.375C22.136 27.375 20.625 25.864 20.625 24C20.625 22.136 22.136 20.625 24 20.625C25.864 20.625 27.375 22.136 27.375 24Z" fill="url(#paint5_linear_3051_46899)"/>
<path d="M39 24C39 25.864 37.489 27.375 35.625 27.375C33.761 27.375 32.25 25.864 32.25 24C32.25 22.136 33.761 20.625 35.625 20.625C37.489 20.625 39 22.136 39 24Z" fill="url(#paint6_linear_3051_46899)"/>
<path d="M15.75 35.625C15.75 37.489 14.239 39 12.375 39C10.511 39 9 37.489 9 35.625C9 33.761 10.511 32.25 12.375 32.25C14.239 32.25 15.75 33.761 15.75 35.625Z" fill="url(#paint7_linear_3051_46899)"/>
<path d="M27.375 35.625C27.375 37.489 25.864 39 24 39C22.136 39 20.625 37.489 20.625 35.625C20.625 33.761 22.136 32.25 24 32.25C25.864 32.25 27.375 33.761 27.375 35.625Z" fill="url(#paint8_linear_3051_46899)"/>
<path d="M39 35.625C39 37.489 37.489 39 35.625 39C33.761 39 32.25 37.489 32.25 35.625C32.25 33.761 33.761 32.25 35.625 32.25C37.489 32.25 39 33.761 39 35.625Z" fill="url(#paint9_linear_3051_46899)"/>
</g>
</g>
<rect x="1" y="1" width="46" height="46" rx="11" stroke="url(#paint10_linear_3051_46899)" stroke-width="2"/>
</g>
<defs>
<filter id="filter0_iii_3051_46899" x="0" y="-3" width="48" height="54" filterUnits="userSpaceOnUse" color-interpolation-filters="sRGB">
<feFlood flood-opacity="0" result="BackgroundImageFix"/>
<feBlend mode="normal" in="SourceGraphic" in2="BackgroundImageFix" result="shape"/>
<feColorMatrix in="SourceAlpha" type="matrix" values="0 0 0 0 0 0 0 0 0 0 0 0 0 0 0 0 0 0 127 0" result="hardAlpha"/>
<feOffset dy="-3"/>
<feGaussianBlur stdDeviation="1.5"/>
<feComposite in2="hardAlpha" operator="arithmetic" k2="-1" k3="1"/>
<feColorMatrix type="matrix" values="0 0 0 0 0 0 0 0 0 0 0 0 0 0 0 0 0 0 0.1 0"/>
<feBlend mode="normal" in2="shape" result="effect1_innerShadow_3051_46899"/>
<feColorMatrix in="SourceAlpha" type="matrix" values="0 0 0 0 0 0 0 0 0 0 0 0 0 0 0 0 0 0 127 0" result="hardAlpha"/>
<feOffset dy="3"/>
<feGaussianBlur stdDeviation="1.5"/>
<feComposite in2="hardAlpha" operator="arithmetic" k2="-1" k3="1"/>
<feColorMatrix type="matrix" values="0 0 0 0 1 0 0 0 0 1 0 0 0 0 1 0 0 0 0.1 0"/>
<feBlend mode="normal" in2="effect1_innerShadow_3051_46899" result="effect2_innerShadow_3051_46899"/>
<feColorMatrix in="SourceAlpha" type="matrix" values="0 0 0 0 0 0 0 0 0 0 0 0 0 0 0 0 0 0 127 0" result="hardAlpha"/>
<feMorphology radius="1" operator="erode" in="SourceAlpha" result="effect3_innerShadow_3051_46899"/>
<feOffset/>
<feComposite in2="hardAlpha" operator="arithmetic" k2="-1" k3="1"/>
<feColorMatrix type="matrix" values="0 0 0 0 0 0 0 0 0 0 0 0 0 0 0 0 0 0 0.2 0"/>
<feBlend mode="normal" in2="effect2_innerShadow_3051_46899" result="effect3_innerShadow_3051_46899"/>
</filter>
<filter id="filter1_d_3051_46899" x="6" y="5.25" width="36" height="42" filterUnits="userSpaceOnUse" color-interpolation-filters="sRGB">
<feFlood flood-opacity="0" result="BackgroundImageFix"/>
<feColorMatrix in="SourceAlpha" type="matrix" values="0 0 0 0 0 0 0 0 0 0 0 0 0 0 0 0 0 0 127 0" result="hardAlpha"/>
<feMorphology radius="1.5" operator="erode" in="SourceAlpha" result="effect1_dropShadow_3051_46899"/>
<feOffset dy="2.25"/>
<feGaussianBlur stdDeviation="2.25"/>
<feComposite in2="hardAlpha" operator="out"/>
<feColorMatrix type="matrix" values="0 0 0 0 0.141176 0 0 0 0 0.141176 0 0 0 0 0.141176 0 0 0 0.1 0"/>
<feBlend mode="normal" in2="BackgroundImageFix" result="effect1_dropShadow_3051_46899"/>
<feBlend mode="normal" in="SourceGraphic" in2="effect1_dropShadow_3051_46899" result="shape"/>
</filter>
<linearGradient id="paint0_linear_3051_46899" x1="24" y1="5.96047e-07" x2="26" y2="48" gradientUnits="userSpaceOnUse">
<stop stop-color="white" stop-opacity="0"/>
<stop offset="1" stop-color="white" stop-opacity="0.12"/>
</linearGradient>
<linearGradient id="paint1_linear_3051_46899" x1="24" y1="9" x2="24" y2="39" gradientUnits="userSpaceOnUse">
<stop stop-color="white" stop-opacity="0.8"/>
<stop offset="1" stop-color="white" stop-opacity="0.5"/>
</linearGradient>
<linearGradient id="paint2_linear_3051_46899" x1="24" y1="9" x2="24" y2="39" gradientUnits="userSpaceOnUse">
<stop stop-color="white" stop-opacity="0.8"/>
<stop offset="1" stop-color="white" stop-opacity="0.5"/>
</linearGradient>
<linearGradient id="paint3_linear_3051_46899" x1="24" y1="9" x2="24" y2="39" gradientUnits="userSpaceOnUse">
<stop stop-color="white" stop-opacity="0.8"/>
<stop offset="1" stop-color="white" stop-opacity="0.5"/>
</linearGradient>
<linearGradient id="paint4_linear_3051_46899" x1="24" y1="9" x2="24" y2="39" gradientUnits="userSpaceOnUse">
<stop stop-color="white" stop-opacity="0.8"/>
<stop offset="1" stop-color="white" stop-opacity="0.5"/>
</linearGradient>
<linearGradient id="paint5_linear_3051_46899" x1="24" y1="9" x2="24" y2="39" gradientUnits="userSpaceOnUse">
<stop stop-color="white" stop-opacity="0.8"/>
<stop offset="1" stop-color="white" stop-opacity="0.5"/>
</linearGradient>
<linearGradient id="paint6_linear_3051_46899" x1="24" y1="9" x2="24" y2="39" gradientUnits="userSpaceOnUse">
<stop stop-color="white" stop-opacity="0.8"/>
<stop offset="1" stop-color="white" stop-opacity="0.5"/>
</linearGradient>
<linearGradient id="paint7_linear_3051_46899" x1="24" y1="9" x2="24" y2="39" gradientUnits="userSpaceOnUse">
<stop stop-color="white" stop-opacity="0.8"/>
<stop offset="1" stop-color="white" stop-opacity="0.5"/>
</linearGradient>
<linearGradient id="paint8_linear_3051_46899" x1="24" y1="9" x2="24" y2="39" gradientUnits="userSpaceOnUse">
<stop stop-color="white" stop-opacity="0.8"/>
<stop offset="1" stop-color="white" stop-opacity="0.5"/>
</linearGradient>
<linearGradient id="paint9_linear_3051_46899" x1="24" y1="9" x2="24" y2="39" gradientUnits="userSpaceOnUse">
<stop stop-color="white" stop-opacity="0.8"/>
<stop offset="1" stop-color="white" stop-opacity="0.5"/>
</linearGradient>
<linearGradient id="paint10_linear_3051_46899" x1="24" y1="0" x2="24" y2="48" gradientUnits="userSpaceOnUse">
<stop stop-color="white" stop-opacity="0.12"/>
<stop offset="1" stop-color="white" stop-opacity="0"/>
</linearGradient>
<clipPath id="clip0_3051_46899">
<rect width="48" height="48" rx="12" fill="white"/>
</clipPath>
</defs>
</svg>
