<?xml version="1.0" encoding="UTF-8"?><svg id="Layer_1" xmlns="http://www.w3.org/2000/svg" viewBox="0 0 500 500"><defs><style>.cls-1{fill:#cc0134;}.cls-2{fill:#023567;}.cls-3{fill:#fefdfe;}</style></defs><rect class="cls-1" x="80.1" y="78.31" width="352.86" height="38.56"/><path class="cls-3" d="M70.32,420.83V68.83h371.86v352H70.32ZM432.96,78.31H80.1v38.56h352.86v-38.56ZM267.72,222.25l-32.42-96.98-28.59.06,32.45,97.07,28.56-.15ZM339.36,162.92h-37.12s.06-16.9.06-16.9h43.39s-.04-20.85-.04-20.85l-73.15.02-.02,96.98,29.77-.04v-39.61s37.15-.02,37.15-.02l-.03-19.58ZM426.92,181.06l-.06-19.77h-45.97s.04-15.43.04-15.43h51.99s0-20.7,0-20.7l-81.71.03v96.94s81.75.04,81.75.04v-22.02s-52.08,0-52.08,0l.03-19.08h46.01ZM149.54,170.69c2.51-1.15,4.71-2.02,6.82-3.53,4.95-3.54,7.8-8.94,8.49-14.95,1.24-10.84-4.84-20.67-15.05-24.55-4.38-1.59-8.79-2.24-13.62-2.24l-56.09.03v96.71s52.22-.06,52.22-.06c5.39,0,10.32-1.12,15.58-1.65,2.52-.65,4.92-1,7.26-2.15,11.68-5.76,16.68-18.88,13.32-31.29-2.53-9.35-9.86-13.9-18.94-16.32ZM212.65,148.07c0-.08-.07-.15-.15-.15s-.15.07-.15.15.07.15.15.15.15-.07.15-.15ZM157.69,292.45l54.19-142.66c.21-.54.85-.69.32-1.3l-57.04,108.05-29.75-26.55,32.27,62.46ZM191.32,229.16l-32.95,85.07-40.08-85.1h-38.18s0,94.13,0,94.13h352.89s-.02-94.13-.02-94.13l-241.65.02ZM296.02,342.74c.49.02.3,1.25.17,1.73s-.77.67-1.36.95c-2.27,1.06-5,.4-6.01-1.98-.68-1.62-.7-3.48-.25-5.16.48-1.81,2.04-2.78,3.64-2.94,1.84-.18,3.27.64,4.06,2.41l2.95-.57c-.45-2.69-2.69-4.23-5.35-4.47-2.95-.27-5.82.5-7.47,3.06-1.49,2.31-1.67,5.16-.87,7.8.73,2.42,2.56,4.17,5.05,4.74,3.15.72,6.41-.06,8.86-2.08l-.07-6.15-6.51.02c-.15.85-.13,1.62-.03,2.49l3.2.16ZM90.22,348.32c1.35-.01,2.34.11,3.57-.09-1.4-2.47-2.71-4.96-4.89-6.7,2.39-.45,3.76-2.09,3.79-4.15s-1.22-4.05-3.52-4.29c-3.04-.32-6.01-.16-9.05-.12l-.02,15.22c1.03.27,2,.18,3.09.08l.04-6.17c1.32-.5,2.7-.1,3.47,1.02l3.54,5.2ZM108.31,341.47c.11-1.05.12-1.67-.02-2.47l-7.54-.11c-.23-1.11-.22-2.19-.03-3.32l8.14-.09c.16-.93.19-1.71-.06-2.56l-11.23.04v15.34s11.61.01,11.61.01c.14-.92.15-1.7-.04-2.56l-8.43-.09c-.16-1.44-.16-2.74,0-4.09l7.61-.11ZM124.28,342.74c.42.11.31,1.27.16,1.68-.17.48-.81.72-1.4.99-2.16.99-4.77.51-5.9-1.69-.82-1.61-.85-3.54-.44-5.28.45-1.9,2.04-3.02,3.94-3.12,1.75-.09,3.11.75,3.74,2.38.97-.1,1.86-.25,2.94-.53-.29-2.89-2.95-4.39-5.76-4.51s-5.55.7-7.06,3.21c-1.74,2.9-1.69,6.63.08,9.54,2.58,4.23,9.46,3.84,13.01.85l.02-6.14-6.58-.08c-.15.88-.14,1.66-.02,2.53,1.11.23,2.11-.15,3.25.16ZM148.57,348.24c2.31-.58,3.48-2.5,3.5-4.54.04-6.19-9.47-4.07-8.92-7.18.12-.66.77-.99,1.48-1.16,1.79-.41,3.57.1,3.9,2.03,1.09.04,1.98.11,3.02-.19.08-1.88-1.15-3.53-2.96-4.12s-3.89-.6-5.71.04-2.81,2.24-2.77,3.97c.12,5.68,9.13,3.64,8.8,6.9-.19,1.91-2.9,2.33-4.64,1.59-.81-.34-1.42-1.3-1.67-2.45-1.01-.16-1.92.02-3,.21.13,2.03,1.21,3.94,3.21,4.7,1.79.68,3.79.69,5.76.19ZM163.19,348.21l.02-12.64,4.41-.13c.16-.9.19-1.67-.08-2.52h-11.91c-.2.91-.26,1.8.05,2.59l4.37.12.04,12.55c1.03.22,2.02.23,3.1.02ZM182.51,341.44c0-1.11.05-1.74-.05-2.49l-7.57-.09c-.22-1.21-.22-2.25.01-3.31l8.03-.06c.23-.95.23-1.76-.02-2.59l-11.23.07v15.34s11.55,0,11.55,0c.21-.92.2-1.7.01-2.56l-8.39-.07c-.2-1.38-.11-2.6-.06-4.07l7.7-.17ZM198.16,348.22c1.03.36,2.41.01,3.46.04-1.32-2.46-2.71-4.92-4.89-6.76,2.66-.41,3.95-2.42,3.78-4.62-.19-2.5-2.05-3.89-4.58-3.92-2.66-.03-5.27-.11-7.96.02l-.02,15.21c1.03.26,2.04.19,3.06.06l.21-6.09c3.11-1.69,4.89,4.25,6.94,6.07ZM216.17,341.46c.12-1.04.12-1.66-.02-2.46l-7.55-.11c-.22-1.11-.19-2.19-.02-3.33l8-.05c.3-.83.33-1.81-.03-2.61l-11.17.03.02,15.38,11.57-.03c.13-.96.21-1.8-.07-2.55l-8.37-.07c-.11-1.38-.07-2.58-.02-4.04l7.66-.16ZM233.94,344.33c.86-2.51.8-5.23-.08-7.62-1.88-5.1-7.7-3.64-12.21-3.71v15.29s6.59,0,6.59,0c2.6,0,4.8-1.36,5.7-3.96ZM263.74,341.8c.09-1.27.04-2.5-.2-3.63-.76-3.49-3.64-5.48-7.14-5.54s-6.46,1.92-7.25,5.43c-.36,1.6-.36,3.38-.04,5,.7,3.47,3.57,5.41,6.98,5.52,4.1.13,7.34-2.5,7.65-6.79ZM281.83,348.22c-1.64-2.94-2.64-4.73-4.84-6.72,2.29-.45,3.83-2.03,3.71-4.24.12-2.36-1.57-4.13-3.9-4.25-2.93-.16-5.75-.16-8.62-.03v15.23c1.07.2,2.08.21,3.04-.02.32-1.99-.29-4.18.25-6.07,3.16-1.61,4.94,4.45,6.9,6.07.97.39,2.44.08,3.48.03ZM313.35,344.88c.72,1.07.62,2.46,1.46,3.19.7.61,2.24.22,3.22.08l-6.05-15.16c-1.2-.12-2.27-.22-3.39.07l-5.83,15.15c1.03.01,2.48.48,3.13-.14.83-.78.71-2.21,1.39-3.2,1.96-.11,3.99-.11,6.08,0ZM333.92,348.16l-.05-15.17c-1.03-.13-1.95-.14-2.83,0l-.12,9.79-6.16-9.77c-1.02-.18-2.03-.18-3.05,0v15.24c1.04.13,1.95.12,2.85,0l.16-9.66,6.03,9.65c1.11.1,2.08.22,3.15-.08ZM355.6,348.14c2.21-.72,3.23-2.71,3.16-4.7-.21-5.86-9.5-3.89-8.92-6.92.14-.71.84-1.02,1.55-1.18,1.73-.38,3.5.08,3.81,2.02,1.05.1,1.99.11,3.07-.15.03-1.84-1.05-3.41-2.78-4.05s-3.8-.69-5.63-.15-2.99,2.08-3.05,3.77c-.23,6,9.06,3.95,8.81,7.17-.06.75-.65,1.48-1.49,1.75-1.08.35-2.19.34-3.27-.18-.81-.39-1.29-1.37-1.6-2.47-1.04-.02-1.89.08-2.94.27.09,2.42,1.66,4.51,4.12,5.01,1.66.34,3.45.36,5.17-.21ZM372.38,344.85c.75,1.08.69,2.6,1.55,3.31.9.46,2.18.08,3.19.08l-6.09-15.24c-1.17-.17-2.17-.16-3.35,0l-5.89,15.21c1.01.03,2.45.49,3.12-.12.83-.76.72-2.2,1.39-3.18l6.07-.05ZM385.7,348.17l.06-12.61,4.4-.1c.13-.94.22-1.79-.09-2.55h-11.92c-.17.83-.17,1.63-.03,2.53l4.42.12.04,12.68c1.1.11,2.1.2,3.11-.08ZM397.24,348.22l-.06-15.23c-1.14-.12-2.06-.18-3.07.05l.03,15.23c1.16.08,2.04.16,3.09-.05ZM409.08,348.58c3.42-.04,6.11-1.93,6.96-5.09.55-2.07.51-4.29-.2-6.32-1.05-3-3.81-4.5-6.91-4.53s-5.88,1.54-6.92,4.6c-.73,2.16-.75,4.56-.03,6.73,1.02,3.03,3.78,4.65,7.1,4.61ZM432.98,348.19l-.02-15.11c-1.04-.28-1.97-.25-2.83-.03l-.17,9.77-6.16-9.84c-1.08-.1-2-.18-3,.07l.03,15.2c1.04.14,1.85.14,2.8,0l.16-9.58,6.11,9.6c1.09.05,1.99.21,3.1-.08ZM135.46,348.19l-.02-15.12c-1.12-.25-2.06-.28-3.09.04v15.14c1.07.1,1.97.2,3.11-.06ZM342.13,348.18v-15.09c-1.05-.28-1.98-.28-3.09-.01l.02,15.15c1.11.13,2.03.22,3.07-.05ZM432.98,357.75H80.1v53.4h352.88v-53.4Z"/><path class="cls-2" d="M157.69,292.45l-32.27-62.46,29.75,26.55,57.04-108.05c.53.61-.11.76-.32,1.3l-54.19,142.66Z"/><circle class="cls-2" cx="212.5" cy="148.07" r=".15"/><path class="cls-1" d="M191.32,229.16l241.65-.02.02,94.13H80.09s0-94.12,0-94.12h38.18s40.08,85.08,40.08,85.08l32.95-85.07ZM312.07,263c.62-2.59.02-5.22-1.99-6.92-3.52-2.98-11.44-2.32-11.23-5.53.15-2.2,4.07-2.51,6.11-1.75,1.22.45,1.7,1.66,2.01,2.9,1.52.06,2.95-.08,4.6-.19.09-2.96-1.8-5.53-4.66-6.4s-5.66-.84-8.33.08-4.26,3.28-4.23,5.91c.09,8.18,12.49,5.97,13.21,9.7.19.98-.23,2.09-1.19,2.75-1.78,1.23-4.4,1.23-6.27.09-1.28-.78-1.65-2.19-2.07-3.54l-4.43.38c.07,3.34,2.12,6.43,5.44,7.39,4.45,1.29,11.66.73,13.02-4.87ZM226.6,254.28l-9.47-.03-.05-5.31,11.1-.11c.08-1.32.1-2.49-.01-3.9h-15.81s0,23.01,0,23.01c1.66.15,3.12.12,4.66.04l.08-9.77,9.49-.04c.19-1.33.2-2.53,0-3.89ZM236.6,244.91h-4.75v23.12h4.75v-23.12ZM261.59,267.8l-3.86-6.2c-.92-1.49-2.08-2.55-3.63-3.76,3.71-.62,6.07-3.26,5.76-6.83-.08-3.38-2.52-5.76-5.89-5.96-4.29-.25-8.46-.13-12.95-.12v23.05s4.63,0,4.63,0l.02-9.38c2.18-.71,4.26.14,5.56,2.08l4.89,7.29c1.93.01,3.69.3,5.47-.16ZM280.44,257.84c.15-1.43.11-2.64.01-3.87l-11.46-.04v-5.05s12.26-.07,12.26-.07c.18-1.3.2-2.5-.01-3.89l-17.03.02v23.02s17.52.06,17.52.06c.18-1.36.16-2.53.03-3.88l-12.81-.14.03-6.11,11.45-.05ZM329.94,262.83l2.01,5.14c1.74.08,3.31.1,5.05-.01l-9.21-23.02h-4.98s-8.95,23-8.95,23c1.72.14,3.2.08,4.88.04l2.06-5.23,9.14.07ZM353.72,254.28l-9.51-.04.02-5.36,11.04-.06c.07-1.34.1-2.48-.01-3.9h-15.75s0,23.01,0,23.01c1.6.16,3.04.1,4.63.05l.07-9.77,9.54-.06c.08-1.34.12-2.54-.02-3.88ZM375.35,257.83c.05-1.55.09-2.58-.03-3.86l-11.38-.04c-.17-1.72-.18-3.32,0-5.06l12.28-.06c.03-1.37.22-2.61-.11-3.91l-16.94.04v23.03s17.49.01,17.49.01l.04-3.85-12.84-.09c0-2.25-.15-4.13.08-6.17l11.41-.04ZM390.5,267.9l.04-19.04,6.68-.03c.16-1.31.2-2.52-.02-3.9h-18.19c-.12,1.41-.08,2.58-.02,3.9l6.81.06.03,19.08c1.64.05,3.1.18,4.65-.07ZM419.43,245.04c-2.11-.23-3.61-.16-5.32-.05l-5.34,8.87-5.33-8.87c-1.76-.15-3.53-.16-5.37.02l8.09,13.26.29,9.62c1.37.25,2.97.13,4.54.04l.08-9.66,8.35-13.24ZM317.01,301.2c-1.4,1.26-3.21,1.73-4.88,1.82-2.99.16-5.47-1.63-6.32-4.45-.63-2.11-.66-4.31-.21-6.46.63-3.05,3.16-4.91,6.24-4.93,2.51-.01,4.56,1.25,5.31,3.69l4.59-.96c-1.19-6.42-8.46-7.66-13.55-6.26-7.1,1.96-9.2,10.29-6.72,16.72,1.29,3.34,4.08,5.64,7.62,6.37,4.57.93,9.2-.24,12.92-3.12l.05-9.34h-9.97c-.11,1.35-.19,2.63.04,3.86l5.13.13c.02.85.5,2.26-.23,2.92ZM352.64,301.75c.69-2.77,0-5.54-2.23-7.21-3.71-2.79-11.19-2.18-10.96-5.35.16-2.18,4.11-2.55,6.25-1.67,1.17.48,1.56,1.69,1.88,2.85l4.61-.21c.04-3.12-1.98-5.7-4.98-6.49-2.55-.67-5.22-.7-7.73.07-2.8.85-4.58,3.26-4.55,6.03s1.75,5.1,4.46,5.89l6.9,2.01c1.06.31,1.82,1.1,1.88,2s-.23,1.86-1.13,2.49c-1.86,1.32-4.69,1.32-6.59-.04-1.13-.81-1.42-2.1-1.82-3.37-1.52.07-2.97.17-4.46.43.2,4.02,2.87,7.09,6.79,7.68,4.45.68,10.4-.03,11.67-5.11ZM277.2,306.58c-2.43-3.8-4.01-7.5-7.55-10.09,3.82-.62,6.13-3.42,5.73-7.04-.18-3.24-2.54-5.53-5.83-5.73-4.3-.26-8.49-.14-13.01-.15v23.01c1.57.18,3.01.09,4.64.06l.03-9.44c2.4-.61,4.3.27,5.58,2.17l4.9,7.27c1.92,0,3.54.15,5.51-.06ZM295.97,296.49c.13-1.54.18-2.61-.05-3.87l-11.38-.03c-.13-1.74-.16-3.32.02-5.06l12.27-.03c.16-1.34.2-2.53-.02-3.89h-17.04s0,23.05,0,23.05h17.52c.07-1.41.14-2.63-.03-3.88l-12.73-.02c-.11-2.15-.13-4.11.01-6.25l11.42-.03ZM330.89,283.61h-4.68v23.07h4.68v-23.07ZM366.67,306.6v-19.05s6.76-.07,6.76-.07c.08-1.33.09-2.48,0-3.86h-18.27c-.04,1.43-.11,2.66.04,3.87l6.76.14.02,18.99c1.58.05,3.04.13,4.69-.02ZM392.7,296.48c.05-1.54.1-2.6-.04-3.86l-11.48-.04c-.02-1.8-.13-3.41.05-5.05l12.29-.02c.12-1.41.22-2.65-.06-3.91l-17.01.08.03,22.99h17.43c.19-1.34.21-2.54,0-3.86l-12.72-.07v-6.19s11.52-.05,11.52-.05ZM418.63,306.55l-4.03-6.45c-.89-1.43-2.03-2.41-3.51-3.6,3.81-.63,6.14-3.42,5.73-7.05-.16-3.24-2.56-5.54-5.84-5.73-4.3-.25-8.49-.15-13-.14v23.01c1.57.18,3.01.09,4.65.06l.03-9.45c2.39-.59,4.3.27,5.58,2.18l4.9,7.29c1.91-.02,3.55.16,5.5-.11Z"/><path class="cls-3" d="M418.63,306.55c-1.95.27-3.58.09-5.5.11l-4.9-7.29c-1.28-1.9-3.19-2.77-5.58-2.18l-.03,9.45c-1.63.02-3.07.12-4.66-.06v-23.01c4.53,0,8.71-.1,13.02.14,3.28.19,5.67,2.49,5.84,5.73.41,3.63-1.91,6.42-5.73,7.05,1.49,1.19,2.62,2.17,3.51,3.6l4.03,6.45ZM412.02,290.07c-.11-1.53-1.38-2.55-3.11-2.54l-6.25.03c.01,2.01-.14,3.84.08,5.75,3.64-.26,9.59,1.28,9.27-3.23Z"/><path class="cls-3" d="M317.01,301.2c.74-.66.25-2.07.23-2.92l-5.13-.13c-.22-1.23-.15-2.51-.04-3.85h9.97s-.05,9.33-.05,9.33c-3.73,2.87-8.36,4.05-12.92,3.12-3.53-.72-6.33-3.02-7.62-6.37-2.48-6.44-.38-14.77,6.72-16.72,5.1-1.4,12.36-.17,13.55,6.26l-4.59.96c-.75-2.44-2.8-3.7-5.31-3.69-3.08.02-5.6,1.87-6.24,4.93-.45,2.15-.42,4.35.21,6.46.85,2.83,3.33,4.62,6.32,4.45,1.67-.09,3.48-.56,4.88-1.82Z"/><path class="cls-3" d="M312.07,263c-1.35,5.6-8.57,6.16-13.02,4.87-3.32-.96-5.37-4.05-5.44-7.39l4.43-.38c.41,1.35.79,2.76,2.07,3.54,1.87,1.14,4.48,1.14,6.27-.09.96-.66,1.38-1.77,1.19-2.75-.73-3.73-13.12-1.53-13.21-9.7-.03-2.63,1.58-4.99,4.23-5.91s5.61-.9,8.33-.08c2.86.86,4.75,3.44,4.66,6.4-1.65.1-3.08.25-4.6.19-.3-1.24-.79-2.44-2.01-2.9-2.04-.76-5.96-.45-6.11,1.75-.22,3.21,7.71,2.55,11.23,5.53,2,1.7,2.61,4.33,1.99,6.92Z"/><path class="cls-3" d="M352.64,301.75c-1.28,5.09-7.22,5.79-11.67,5.11-3.92-.59-6.59-3.66-6.79-7.68,1.49-.26,2.93-.36,4.46-.43.4,1.27.7,2.57,1.82,3.37,1.9,1.35,4.73,1.36,6.59.04.89-.63,1.2-1.55,1.13-2.49s-.83-1.69-1.88-2l-6.9-2.01c-2.71-.79-4.42-3.21-4.46-5.89s1.75-5.17,4.55-6.03c2.51-.76,5.18-.74,7.73-.07,3,.79,5.02,3.37,4.98,6.49l-4.61.21c-.32-1.16-.71-2.37-1.88-2.85-2.13-.87-6.09-.5-6.25,1.67-.23,3.16,7.26,2.55,10.96,5.35,2.22,1.68,2.93,4.44,2.23,7.21Z"/><path class="cls-3" d="M280.44,257.84l-11.45.05-.03,6.11,12.81.14c.13,1.35.15,2.52-.03,3.88l-17.53-.06v-23.02s17.03-.02,17.03-.02c.21,1.39.19,2.59.01,3.89l-12.25.07v5.05s11.45.04,11.45.04c.1,1.23.14,2.44-.01,3.87Z"/><path class="cls-3" d="M295.97,296.49l-11.42.03c-.15,2.14-.12,4.1-.01,6.25l12.73.02c.17,1.25.1,2.47.03,3.87h-17.52s0-23.03,0-23.03h17.04c.22,1.35.18,2.53.02,3.88l-12.27.03c-.18,1.74-.15,3.31-.02,5.06l11.38.03c.22,1.26.18,2.33.05,3.87Z"/><path class="cls-3" d="M375.35,257.83l-11.41.04c-.23,2.04-.09,3.92-.08,6.17l12.84.09-.04,3.85h-17.5s.01-23.04.01-23.04l16.94-.04c.32,1.3.14,2.54.11,3.91l-12.28.06c-.18,1.74-.17,3.34,0,5.06l11.38.04c.13,1.29.08,2.31.03,3.86Z"/><path class="cls-3" d="M392.7,296.48l-11.53.05v6.19s12.74.07,12.74.07c.21,1.33.2,2.53,0,3.87h-17.43s-.03-23-.03-23l17.01-.08c.28,1.26.18,2.5.06,3.91l-12.29.02c-.18,1.65-.08,3.25-.05,5.05l11.48.04c.14,1.26.09,2.32.04,3.86Z"/><path class="cls-3" d="M226.6,254.28c.19,1.36.18,2.55,0,3.89l-9.49.04-.08,9.77c-1.55.07-3.01.11-4.66-.04v-23.01s15.81,0,15.81,0c.11,1.41.09,2.59.01,3.9l-11.1.11.05,5.31,9.47.03Z"/><path class="cls-3" d="M353.72,254.28c.15,1.33.11,2.53.02,3.88l-9.54.06-.07,9.77c-1.6.05-3.04.11-4.63-.05v-23s15.74,0,15.74,0c.11,1.42.08,2.56.01,3.9l-11.04.06-.02,5.36,9.51.04Z"/><path class="cls-3" d="M419.43,245.04l-8.35,13.24-.08,9.66c-1.57.09-3.17.22-4.54-.04l-.29-9.62-8.09-13.26c1.84-.18,3.61-.18,5.37-.02l5.33,8.87,5.34-8.87c1.71-.12,3.21-.19,5.32.05Z"/><path class="cls-3" d="M366.67,306.6c-1.64.16-3.1.08-4.69.02l-.02-18.99-6.76-.14c-.14-1.21-.08-2.45-.04-3.87h18.27c.09,1.37.08,2.52,0,3.85l-6.75.07v19.05Z"/><path class="cls-3" d="M390.5,267.9c-1.54.25-3.01.12-4.65.07l-.03-19.08-6.81-.06c-.07-1.31-.1-2.49.02-3.9h18.19c.22,1.39.18,2.59.02,3.91l-6.68.03-.04,19.04Z"/><rect class="cls-3" x="231.86" y="244.91" width="4.75" height="23.12"/><rect class="cls-3" x="326.21" y="283.61" width="4.68" height="23.07"/><path class="cls-3" d="M277.2,306.58c-1.97.21-3.59.06-5.51.06l-4.9-7.27c-1.28-1.91-3.18-2.79-5.58-2.17l-.03,9.44c-1.63.03-3.07.12-4.65-.06v-23.01c4.53,0,8.72-.12,13.02.15,3.28.2,5.65,2.49,5.83,5.73.4,3.63-1.91,6.42-5.73,7.04,3.54,2.6,5.13,6.3,7.55,10.09ZM267.93,293.22c1.91-.13,2.75-1.58,2.65-3.15s-1.36-2.55-3.09-2.54l-6.26.02c0,2.01-.14,3.85.08,5.76,2.32.03,4.36.06,6.62-.08Z"/><path class="cls-1" d="M267.93,293.22c-2.26.15-4.3.11-6.62.08-.23-1.91-.07-3.74-.08-5.76l6.26-.02c1.73,0,2.99,1,3.09,2.54s-.74,3.02-2.65,3.15Z"/><path class="cls-1" d="M412.02,290.07c.32,4.51-5.63,2.98-9.27,3.23-.23-1.91-.07-3.74-.08-5.75l6.25-.03c1.73,0,3,1.01,3.11,2.54Z"/><path class="cls-3" d="M261.59,267.8c-1.78.46-3.53.17-5.47.16l-4.89-7.29c-1.3-1.94-3.38-2.78-5.56-2.08l-.02,9.38h-4.62s-.01-23.06-.01-23.06c4.48,0,8.66-.12,12.95.12,3.37.19,5.81,2.58,5.89,5.96.31,3.57-2.05,6.21-5.76,6.83,1.56,1.21,2.71,2.27,3.63,3.76l3.86,6.2ZM255.06,251.72c0-4.24-5.97-2.52-9.34-2.83,0,2.06-.13,3.85.07,5.77,3.56-.28,9.27,1.23,9.27-2.94Z"/><path class="cls-1" d="M255.06,251.72c0,4.17-5.71,2.66-9.27,2.94-.2-1.92-.07-3.71-.07-5.77,3.36.31,9.34-1.41,9.34,2.83Z"/><path class="cls-3" d="M329.94,262.83l-9.14-.07-2.06,5.23c-1.68.04-3.16.1-4.88-.04l8.95-23h4.98s9.21,23.02,9.21,23.02c-1.74.11-3.31.09-5.05.01l-2.01-5.14ZM328.34,258.7l-3.14-8.1-2.98,8.17c2.17.09,4,.22,6.12-.06Z"/><path class="cls-1" d="M328.34,258.7c-2.12.29-3.95.15-6.12.06l2.98-8.17,3.14,8.1Z"/><path class="cls-2" d="M149.54,170.69c9.08,2.42,16.41,6.96,18.94,16.32,3.35,12.41-1.64,25.52-13.32,31.29-2.35,1.16-4.75,1.5-7.26,2.15-5.25.53-10.19,1.64-15.58,1.65l-52.21.06v-96.71s56.09-.03,56.09-.03c4.83,0,9.24.65,13.62,2.24,10.21,3.88,16.29,13.71,15.05,24.55-.69,6.01-3.54,11.41-8.49,14.95-2.11,1.51-4.31,2.38-6.82,3.53ZM135.71,154.07c.06-3.96-2.04-7.16-5.71-8.22-1.74-.51-3.55-.8-5.44-.8l-14.31.03.03,18.27,14.45-.04c2.4,0,4.82-.4,6.93-1.49,2.85-1.48,4-4.47,4.05-7.76ZM139.53,191.82c.21-4.3-2.2-7.78-6.13-9.02-2.07-.68-4.19-.88-6.44-1.02h-16.7s0,19.55,0,19.55l16.68.02c6.15-.12,12.24-2.22,12.59-9.52Z"/><polygon class="cls-2" points="426.92 181.06 380.91 181.07 380.87 200.15 432.95 200.16 432.95 222.17 351.21 222.13 351.2 125.19 432.91 125.16 432.91 145.85 380.93 145.86 380.89 161.29 426.86 161.29 426.92 181.06"/><polygon class="cls-2" points="339.36 162.92 339.39 182.49 302.24 182.51 302.24 222.12 272.47 222.16 272.5 125.18 345.64 125.16 345.68 146.02 302.3 146.02 302.24 162.92 339.36 162.92"/><polygon class="cls-2" points="267.72 222.25 239.16 222.4 206.71 125.33 235.3 125.27 267.72 222.25"/><path class="cls-3" d="M139.53,191.82c-.35,7.3-6.44,9.4-12.59,9.52l-16.68-.02v-19.54s16.7,0,16.7,0c2.25.14,4.38.34,6.44,1.02,3.93,1.24,6.34,4.72,6.13,9.02Z"/><path class="cls-3" d="M135.71,154.07c-.05,3.29-1.2,6.28-4.05,7.76-2.11,1.09-4.53,1.48-6.93,1.49l-14.45.04-.03-18.27,14.31-.03c1.89,0,3.7.29,5.44.8,3.67,1.06,5.77,4.26,5.71,8.22Z"/><path class="cls-2" d="M281.83,348.22c-1.03.05-2.51.36-3.48-.03-1.95-1.62-3.73-7.68-6.9-6.07-.54,1.88.08,4.08-.25,6.07-.96.23-1.97.21-3.03.02v-15.23c2.87-.13,5.69-.13,8.62.03,2.33.13,4.02,1.9,3.9,4.25.12,2.21-1.41,3.8-3.71,4.24,2.2,1.98,3.2,3.78,4.84,6.72ZM276.27,339.21c1.08-.22,1.31-1.33,1.22-2.12-.27-2.31-4-1.38-6.1-1.53-.17,1.3-.18,2.45,0,3.84,1.65.03,3.2.17,4.89-.18Z"/><path class="cls-2" d="M198.16,348.22c-2.05-1.82-3.83-7.76-6.94-6.07l-.21,6.09c-1.01.13-2.03.2-3.06-.06l.02-15.21c2.69-.13,5.3-.05,7.96-.02s4.39,1.42,4.58,3.92c.17,2.2-1.12,4.21-3.78,4.62,2.18,1.84,3.57,4.3,4.89,6.76-1.05-.02-2.43.33-3.46-.04ZM195.96,339.25c1.1-.18,1.4-1.27,1.32-2.11-.23-2.39-4.28-1.47-6.21-1.53l.04,3.75c1.59.11,3.16.17,4.85-.11Z"/><path class="cls-2" d="M333.92,348.16c-1.07.3-2.05.19-3.15.08l-6.03-9.65-.16,9.66c-.91.12-1.81.14-2.84,0v-15.24c1-.17,2.02-.18,3.04,0l6.16,9.77.12-9.79c.89-.14,1.8-.13,2.83,0l.05,15.17Z"/><path class="cls-2" d="M296.02,342.74l-3.2-.16c-.11-.87-.12-1.64.03-2.49l6.51-.02.07,6.15c-2.45,2.01-5.72,2.8-8.86,2.08-2.49-.57-4.32-2.32-5.05-4.74-.8-2.64-.62-5.49.87-7.8,1.65-2.56,4.52-3.33,7.47-3.06,2.66.24,4.9,1.78,5.35,4.47l-2.95.57c-.79-1.77-2.21-2.59-4.06-2.41-1.6.16-3.16,1.13-3.64,2.94-.45,1.68-.43,3.55.25,5.16,1.01,2.38,3.74,3.04,6.01,1.98.6-.28,1.24-.48,1.36-.95s.32-1.71-.17-1.73Z"/><path class="cls-2" d="M124.28,342.74c-1.14-.31-2.14.07-3.25-.16-.13-.87-.13-1.65.02-2.53l6.58.08-.02,6.14c-3.54,2.98-10.43,3.38-13.01-.85-1.77-2.91-1.82-6.64-.08-9.54,1.51-2.51,4.22-3.34,7.06-3.21s5.47,1.63,5.76,4.51c-1.08.27-1.97.42-2.94.53-.64-1.64-2-2.48-3.74-2.38-1.9.1-3.49,1.22-3.94,3.12-.41,1.74-.38,3.67.44,5.28,1.12,2.2,3.74,2.68,5.9,1.69.59-.27,1.22-.5,1.4-.99.15-.41.26-1.57-.16-1.68Z"/><path class="cls-2" d="M263.74,341.8c-.31,4.29-3.55,6.92-7.65,6.79-3.41-.11-6.27-2.06-6.98-5.52-.33-1.62-.32-3.4.04-5,.79-3.51,3.75-5.48,7.25-5.43s6.38,2.04,7.14,5.54c.24,1.13.29,2.36.2,3.63ZM260.14,343.22c.64-1.9.6-3.94-.14-5.65-.68-1.58-2.2-2.26-3.76-2.24-1.37.01-2.84.66-3.53,2.12-.83,1.77-.85,3.89-.23,5.74.57,1.71,2.13,2.7,3.77,2.72s3.26-.84,3.88-2.69Z"/><path class="cls-2" d="M432.98,348.19c-1.11.29-2.01.13-3.1.08l-6.11-9.6-.16,9.58c-.95.15-1.76.15-2.8,0l-.03-15.2c1-.25,1.92-.17,3-.07l6.16,9.84.17-9.77c.86-.22,1.79-.25,2.83.03l.02,15.11Z"/><path class="cls-2" d="M233.94,344.33c-.89,2.6-3.1,3.96-5.7,3.96h-6.59s0-15.28,0-15.28c4.51.06,10.33-1.4,12.21,3.71.88,2.38.94,5.1.08,7.62ZM231.02,338.03c-.7-2.95-4.05-2.62-6.29-2.36l.02,9.95c1.09.22,2.09.07,3.2.06,3.98-.03,3.62-5.29,3.06-7.65Z"/><path class="cls-2" d="M182.51,341.44l-7.7.17c-.05,1.47-.14,2.69.06,4.07l8.39.07c.19.86.2,1.64-.01,2.56h-11.55s0-15.35,0-15.35l11.23-.07c.24.83.25,1.63.02,2.59l-8.03.06c-.24,1.06-.23,2.1-.01,3.31l7.57.09c.1.75.04,1.37.05,2.49Z"/><path class="cls-2" d="M355.6,348.14c-1.73.56-3.51.54-5.17.21-2.46-.5-4.03-2.59-4.12-5.01,1.05-.19,1.9-.28,2.94-.27.3,1.1.79,2.08,1.6,2.47,1.08.52,2.19.53,3.27.18.84-.27,1.43-1,1.49-1.75.26-3.22-9.04-1.17-8.81-7.17.06-1.68,1.23-3.23,3.05-3.77s3.84-.52,5.63.15,2.8,2.21,2.78,4.05c-1.07.26-2.02.25-3.07.15-.31-1.93-2.08-2.39-3.81-2.02-.71.15-1.41.46-1.55,1.18-.58,3.03,8.71,1.05,8.92,6.92.07,1.99-.94,3.97-3.16,4.7Z"/><path class="cls-2" d="M148.57,348.24c-1.97.5-3.97.48-5.76-.19-2-.76-3.08-2.67-3.21-4.7,1.08-.19,1.99-.36,3-.21.25,1.16.86,2.11,1.67,2.45,1.74.74,4.45.32,4.64-1.59.33-3.26-8.68-1.21-8.8-6.9-.04-1.73.97-3.34,2.77-3.97s3.86-.64,5.71-.04,3.04,2.24,2.96,4.12c-1.04.3-1.93.22-3.02.19-.34-1.93-2.11-2.44-3.9-2.03-.71.16-1.36.49-1.48,1.16-.54,3.11,8.96.99,8.92,7.18-.01,2.04-1.19,3.96-3.5,4.54Z"/><path class="cls-2" d="M216.17,341.46l-7.66.16c-.05,1.46-.09,2.66.02,4.04l8.37.07c.28.75.2,1.6.07,2.55l-11.57.03-.02-15.38,11.17-.03c.35.8.32,1.78.03,2.61l-8,.05c-.17,1.13-.2,2.21.02,3.33l7.55.11c.13.8.14,1.42.02,2.46Z"/><path class="cls-2" d="M108.31,341.47l-7.61.11c-.16,1.35-.16,2.65,0,4.09l8.43.09c.19.86.18,1.64.04,2.56h-11.61s0-15.35,0-15.35l11.23-.04c.26.86.23,1.63.06,2.56l-8.14.09c-.18,1.12-.2,2.21.03,3.32l7.54.11c.13.8.13,1.41.02,2.47Z"/><path class="cls-2" d="M372.38,344.85l-6.07.05c-.67.98-.56,2.43-1.39,3.18-.67.61-2.12.15-3.12.12l5.89-15.21c1.18-.16,2.18-.16,3.35,0l6.09,15.24c-1.01,0-2.3.38-3.19-.08-.86-.71-.8-2.23-1.55-3.31ZM371.36,342.07l-2.02-5.28c-.89,1.85-1.35,3.43-2.02,5.35,1.37.09,2.65.24,4.04-.07Z"/><path class="cls-2" d="M313.35,344.88c-2.09-.11-4.12-.11-6.08,0-.68.98-.56,2.42-1.39,3.2-.65.61-2.1.15-3.13.14l5.83-15.15c1.11-.29,2.18-.19,3.39-.07l6.05,15.16c-.98.14-2.52.53-3.22-.08-.83-.73-.73-2.12-1.46-3.19ZM312.31,342.11l-2.02-5.33c-.91,1.83-1.34,3.42-2.04,5.36,1.37.16,2.62.16,4.06-.03Z"/><path class="cls-2" d="M385.7,348.17c-1.01.28-2.01.19-3.11.08l-.04-12.68-4.42-.12c-.14-.9-.15-1.71.03-2.53h11.92c.31.75.22,1.6.09,2.54l-4.4.1-.06,12.61Z"/><path class="cls-2" d="M163.19,348.21c-1.08.21-2.07.2-3.1-.02l-.04-12.55-4.37-.12c-.3-.79-.24-1.67-.05-2.58h11.91c.27.84.23,1.61.08,2.51l-4.41.13-.02,12.64Z"/><path class="cls-2" d="M397.24,348.22c-1.06.21-1.94.13-3.09.05l-.03-15.23c1.01-.24,1.93-.17,3.07-.05l.06,15.23Z"/><path class="cls-2" d="M342.13,348.18c-1.04.28-1.97.18-3.07.05l-.02-15.15c1.11-.27,2.04-.26,3.08.01v15.09Z"/><path class="cls-2" d="M135.46,348.19c-1.14.26-2.04.16-3.1.06v-15.14c1.02-.32,1.96-.29,3.08-.04l.02,15.12Z"/><path class="cls-3" d="M276.27,339.21c-1.7.35-3.25.21-4.89.18-.17-1.39-.16-2.54,0-3.84,2.1.15,5.84-.78,6.1,1.53.09.8-.14,1.9-1.22,2.12Z"/><path class="cls-2" d="M90.22,348.32l-3.54-5.2c-.76-1.12-2.15-1.52-3.47-1.02l-.04,6.17c-1.09.1-2.06.19-3.09-.08l.02-15.22c3.04-.04,6.01-.2,9.05.12,2.31.24,3.55,2.17,3.52,4.29s-1.4,3.7-3.79,4.15c2.17,1.75,3.49,4.23,4.89,6.7-1.23.21-2.22.08-3.57.09ZM88.39,339.16c.89-.24,1.14-1.26,1.05-2.01-.29-2.42-3.94-1.42-6.19-1.59-.09,1.29-.09,2.38,0,3.8,1.74.08,3.5.24,5.15-.2Z"/><path class="cls-3" d="M88.39,339.16c-1.65.45-3.4.28-5.15.2-.08-1.42-.08-2.51,0-3.8,2.25.16,5.9-.83,6.19,1.59.09.74-.16,1.77-1.05,2.01Z"/><path class="cls-3" d="M195.96,339.25c-1.69.28-3.26.21-4.85.11l-.04-3.75c1.93.07,5.98-.86,6.21,1.53.08.84-.22,1.93-1.32,2.11Z"/><path class="cls-2" d="M409.08,348.58c-3.32.04-6.08-1.58-7.1-4.61-.73-2.17-.7-4.58.03-6.73,1.03-3.06,3.78-4.62,6.92-4.6s5.86,1.53,6.91,4.53c.71,2.03.75,4.24.2,6.32-.84,3.16-3.53,5.05-6.96,5.09ZM412.95,342.59c.37-1.78.34-3.58-.37-5.1s-2.25-2.22-3.81-2.16-2.99.85-3.6,2.45-.63,3.45-.17,5.11c.53,1.93,2.2,3.06,4.06,3.02s3.46-1.24,3.89-3.32Z"/><path class="cls-3" d="M412.95,342.59c-.44,2.08-2.09,3.29-3.89,3.32s-3.53-1.09-4.06-3.02c-.46-1.65-.44-3.5.17-5.11s2.09-2.39,3.6-2.45,3.08.61,3.81,2.16.74,3.32.37,5.1Z"/><path class="cls-3" d="M260.14,343.22c-.62,1.84-2.27,2.71-3.88,2.69s-3.2-1.01-3.77-2.72c-.62-1.85-.61-3.97.23-5.74.69-1.45,2.15-2.1,3.53-2.12,1.56-.02,3.07.67,3.76,2.24.74,1.71.78,3.75.14,5.65Z"/><path class="cls-3" d="M231.02,338.03c.56,2.36.92,7.62-3.06,7.65-1.11,0-2.11.16-3.2-.06l-.02-9.95c2.24-.25,5.59-.59,6.29,2.36Z"/><path class="cls-3" d="M371.36,342.07c-1.39.3-2.67.16-4.04.07.67-1.92,1.13-3.5,2.02-5.35l2.02,5.28Z"/><path class="cls-3" d="M312.31,342.11c-1.43.19-2.68.18-4.06.03.7-1.93,1.12-3.53,2.04-5.36l2.02,5.33Z"/><path class="cls-2" d="M432.98,357.75v53.4H80.1v-53.4h352.88ZM226.25,397.78c-1.77.82-3.69.52-5.2-.65-1.17-.91-1.89-2.53-2.16-4.34l-6.9.81c.45,6.16,5.44,10.29,11.44,10.61,6.87.37,12.92-4.28,13.4-11.2.32-4.67-2.32-8.56-6.85-9.73,4.56-2.61,6.53-7.23,4.26-11.67-3.76-7.34-14.29-7.25-18.8-2.51-1.67,1.76-2.52,4.06-2.9,6.52l6.55,1.09c.26-1.9,1.06-3.57,2.47-4.35,1.58-.88,3.62-.86,5.02.35s1.62,3.22,1,5.01c-.49,1.4-1.88,2.63-3.65,2.84l-1.99.24c-.24,1.89-.63,3.67-.66,5.64,1.67-.32,3.18-.72,4.68-.21,2.37.81,3.46,3.1,3.49,5.54s-.82,4.89-3.21,6ZM270.79,392.35c.78-4.91.76-9.77.01-14.67-1.01-6.6-4.39-11.9-11.7-11.9-10.35,0-12.05,10.69-12.09,18.8-.02,3.98.23,7.82,1.38,11.55,1.61,5.23,6.18,8.4,11.61,8.04,6.85-.45,9.8-5.62,10.78-11.83ZM293,376.66l.06,26.78,7.19-.08-.02-37.5-5.79-.04c-1.75,4.58-6.25,7.68-10.65,9.47l.07,6.41c3.58-.92,6.2-2.99,9.15-5.05ZM324.92,376.55l.05,26.9h7.21s0-37.53,0-37.53c-1.96-.21-3.82-.08-5.86-.07-1.69,4.55-6.27,7.67-10.61,9.45.07,2.25-.19,4.29.14,6.4,3.64-1.07,6.34-3,9.06-5.15ZM356.26,381.9c-.06-3.96.84-9.35,4.78-10.06,2.76-.49,4.58,1.12,4.94,4.01l6.86-.63c-.37-5.28-4.43-9.18-9.79-9.43-6.08-.28-11.38,3.26-13.11,9.33-1.82,6.39-1.84,13.48-.09,19.89,1.48,5.43,5.95,9.01,11.39,9.17,5.57.17,10.34-3.05,11.83-8.44,2.01-7.3-1.29-15.37-8.76-16.51-3.16-.48-5.8.52-8.05,2.65ZM399.53,403.76c5.1-1.2,8.18-5.47,8.47-10.46.26-4.49-1.93-8.21-6.19-10.07,3.32-1.66,5.04-4.5,5-7.94-.06-4.2-2.7-7.64-6.72-8.87-3-.83-6.09-.83-9.09-.01-4.26,1.27-6.92,5.06-6.71,9.49.17,3.42,2.12,6.04,5.24,7.35-3.92,1.61-5.9,4.92-6.17,8.83-.34,4.96,2.27,9.31,6.97,11.12,2.86,1.1,6.04,1.31,9.2.57ZM113.95,366.03h-7.6v37.44h7.6v-37.44ZM156.72,375.32c-2.3-5.82-7.12-9.23-13.3-9.24l-16.55-.05v37.44s16.56-.06,16.56-.06c3.26-.01,6.41-1.01,8.91-3.04,6.87-5.58,7.03-17.53,4.38-25.04ZM178.88,376.39h-7.21v7.19h7.21v-7.19ZM178.88,396.29h-7.21v7.19h7.21v-7.19Z"/><path class="cls-3" d="M156.72,375.32c2.65,7.51,2.49,19.47-4.38,25.04-2.5,2.03-5.65,3.03-8.91,3.04l-16.56.06v-37.44s16.55.05,16.55.05c6.18.02,11,3.42,13.3,9.24ZM149.7,391.54c1.22-6.16,2.08-18.13-6.58-18.89-2.96-.26-5.8-.29-8.67-.18v24.65c5.96-.3,13.35,1.71,15.25-5.58Z"/><path class="cls-3" d="M356.26,381.9c2.25-2.14,4.89-3.14,8.05-2.65,7.47,1.14,10.77,9.21,8.76,16.51-1.48,5.38-6.25,8.6-11.83,8.44-5.44-.16-9.91-3.74-11.39-9.17-1.75-6.42-1.73-13.5.09-19.89,1.73-6.07,7.03-9.62,13.11-9.33,5.36.25,9.41,4.15,9.79,9.43l-6.86.63c-.36-2.89-2.19-4.5-4.94-4.01-3.95.7-4.85,6.1-4.78,10.06ZM365.99,387.7c-.66-1.95-2.4-3.17-4.27-3.2s-3.59.95-4.34,2.81c-1.13,2.81-.96,6.31.74,8.78,1.06,1.53,2.72,2.3,4.35,2.11,4.64-.53,4.64-7.17,3.52-10.5Z"/><path class="cls-3" d="M270.79,392.35c-.98,6.21-3.94,11.38-10.78,11.83-5.43.36-10.01-2.81-11.61-8.04-1.15-3.73-1.4-7.57-1.38-11.55.04-8.12,1.74-18.81,12.09-18.8,7.31,0,10.69,5.3,11.7,11.9.75,4.89.76,9.76-.01,14.67ZM263.55,391.47c.37-4.42.35-8.73,0-13.15-.23-2.91-1.24-6.71-4.6-6.54s-3.97,4.21-4.18,7.06c-.31,4.26-.31,8.44.02,12.7.23,3.03,1.24,7.09,4.86,6.67,2.97-.35,3.67-4.01,3.9-6.73Z"/><path class="cls-3" d="M226.25,397.78c2.39-1.11,3.24-3.55,3.21-6s-1.13-4.73-3.49-5.54c-1.5-.52-3.01-.11-4.68.21.03-1.97.43-3.76.66-5.64l1.99-.24c1.77-.21,3.16-1.43,3.65-2.84.62-1.78.45-3.76-1-5.01s-3.44-1.23-5.02-.35c-1.4.78-2.21,2.45-2.47,4.35l-6.55-1.09c.38-2.46,1.23-4.77,2.9-6.52,4.51-4.74,15.04-4.83,18.8,2.51,2.27,4.44.3,9.06-4.26,11.67,4.53,1.17,7.17,5.06,6.85,9.73-.48,6.91-6.53,11.56-13.4,11.2-6.01-.32-11-4.45-11.44-10.61l6.9-.81c.26,1.81.98,3.44,2.16,4.34,1.51,1.17,3.42,1.47,5.2.65Z"/><path class="cls-3" d="M324.92,376.55c-2.72,2.15-5.42,4.08-9.06,5.15-.33-2.11-.07-4.15-.14-6.4,4.34-1.78,8.91-4.9,10.61-9.45,2.04,0,3.9-.14,5.86.07v37.52s-7.22.01-7.22.01l-.05-26.9Z"/><path class="cls-3" d="M293,376.66c-2.94,2.06-5.57,4.13-9.15,5.05l-.07-6.41c4.41-1.79,8.9-4.89,10.65-9.47l5.79.04.02,37.5-7.19.08-.06-26.78Z"/><rect class="cls-3" x="106.35" y="366.03" width="7.6" height="37.44"/><rect class="cls-3" x="171.68" y="396.29" width="7.21" height="7.19"/><rect class="cls-3" x="171.68" y="376.39" width="7.21" height="7.19"/><path class="cls-2" d="M149.7,391.54c-1.9,7.28-9.3,5.27-15.24,5.58v-24.65c2.87-.11,5.71-.08,8.66.18,8.65.76,7.8,12.73,6.58,18.89Z"/><path class="cls-2" d="M400.68,390.47c.66,3.1-.34,7.14-3.73,7.84-2.01.42-4.04-.15-5.24-1.88-1.84-2.64-1.72-6.41.47-8.81,1.31-1.42,3.32-1.61,5.21-1.04,1.52.45,2.88,1.98,3.29,3.88Z"/><path class="cls-3" d="M399.53,403.76c-3.15.74-6.34.53-9.2-.57-4.7-1.81-7.31-6.16-6.97-11.12.27-3.9,2.25-7.22,6.17-8.83-3.12-1.31-5.07-3.93-5.24-7.35-.22-4.43,2.44-8.22,6.71-9.49,3-.82,6.09-.82,9.09.01,4.02,1.23,6.66,4.66,6.72,8.87.05,3.44-1.67,6.28-5,7.94,4.26,1.85,6.45,5.58,6.19,10.07-.29,4.99-3.37,9.26-8.47,10.46ZM400.12,376.05c0-2.51-2.04-4.55-4.55-4.55s-4.55,2.04-4.55,4.55,2.04,4.55,4.55,4.55,4.55-2.04,4.55-4.55ZM400.68,390.47c-.4-1.9-1.77-3.42-3.29-3.88-1.89-.57-3.9-.38-5.21,1.04-2.2,2.4-2.31,6.17-.47,8.81,1.2,1.72,3.22,2.3,5.24,1.88,3.39-.71,4.39-4.75,3.73-7.84Z"/><circle class="cls-2" cx="395.57" cy="376.05" r="4.55"/><path class="cls-2" d="M365.99,387.7c1.12,3.32,1.12,9.96-3.52,10.5-1.63.19-3.3-.58-4.35-2.11-1.71-2.47-1.88-5.97-.74-8.78.75-1.86,2.56-2.85,4.34-2.81s3.61,1.25,4.27,3.2Z"/><path class="cls-2" d="M263.55,391.47c-.23,2.72-.92,6.38-3.9,6.73-3.62.42-4.63-3.64-4.86-6.67-.32-4.26-.32-8.44-.02-12.7.21-2.85.9-6.9,4.18-7.06s4.36,3.63,4.6,6.54c.35,4.42.37,8.73,0,13.15Z"/></svg>