<?xml version="1.0" encoding="utf-8"?>
<!-- Generator: Adobe Illustrator 16.0.0, SVG Export Plug-In . SVG Version: 6.00 Build 0)  -->
<!DOCTYPE svg PUBLIC "-//W3C//DTD SVG 1.1//EN" "http://www.w3.org/Graphics/SVG/1.1/DTD/svg11.dtd">
<svg version="1.1" id="Layer_1" xmlns="http://www.w3.org/2000/svg" xmlns:xlink="http://www.w3.org/1999/xlink" x="0px" y="0px"
	 width="1190.551px" height="595.275px" viewBox="0 0 1190.551 595.275" enable-background="new 0 0 1190.551 595.275"
	 xml:space="preserve">
<g id="Layer_2">
	<rect x="0" y="0" fill="#FFFFFF" width="1189.999" height="595.001"/>
</g>
<g id="Layer_1_1_">
	<g id="N">
		<path fill="#DF2626" d="M36.617,239.977h102.964l32.021,39.425l0.563-39.425h57.703l-0.004,135.132l-105.563-0.002l-34.63-38.802
			l-0.696,38.802H36.039c0,0-4.745,0-4.745-4.725c0-3.103,0-124.891,0-124.891S31.223,239.977,36.617,239.977z"/>
	</g>
	<g id="I">
		<path fill="#DF2626" d="M253.094,30.975h102.165c0,0,9.415,0.687,9.415,11.414v81.143H240.542V44.924
			C240.542,44.924,240.029,30.975,253.094,30.975z"/>
		<path fill="#DF2626" d="M240.542,557.76V133.94h124.396v423.82c0,0,0,10.31-8.31,10.31H248.665
			C248.665,568.068,240.542,568.385,240.542,557.76z"/>
	</g>
	<g id="C_3_">
		<path fill="#DF2626" d="M383.119,239.977h191.057c0,0,7.965,0.317,7.965,7.965c0,7.645,0,55.543,0,55.543H481.4v-44.676
			c0,0,0.002-5.812-3.809-5.812c0,0-4.174-0.252-4.174,5.779v95.438c0,0-0.449,7.498,4.094,7.498c0,0,3.912,0.055,3.912-7.529
			v-42.612l100.696,0.07v55.522c0,0-0.127,7.94-7.939,7.94c-7.815,0-191.063,0-191.063,0s-7.691-0.135-7.691-7.94
			c0-7.807,0-119.211,0-119.211S375.404,239.977,383.119,239.977z"/>
	</g>
	<g id="E">
		<path d="M635.531,239.977H825.82v37.063H709.218c0,0-5.495,0.039-5.495,5.496c0,0.453,0.146,5.148,5.495,5.148
			c5.523,0,116.604,0,116.604,0v39.797H709.218c0,0-5.229,0.076-5.229,5.538c0,0-0.116,5.038,5.347,5.038
			c5.244,0,116.486,0,116.486,0v37.048h-190.29c0,0-8.397,0-8.397-8.574c0-8.267,0-118.081,0-118.081
			S627.132,239.977,635.531,239.977z"/>
	</g>
	<g id="I_1_">
		<rect x="836.309" y="239.977" width="100.802" height="135.13"/>
	</g>
	<g id="C">
		<path d="M955.409,239.821h191.06c0,0,7.965,0.32,7.965,7.965c0,7.646,0,55.543,0,55.543h-100.74v-44.675
			c0,0,0.002-5.81-3.809-5.81c0,0-4.174-0.255-4.174,5.776v95.438c0,0-0.449,7.499,4.094,7.499c0,0,3.912,0.055,3.912-7.53v-42.607
			l100.698,0.066v55.525c0,0-0.127,7.938-7.941,7.938c-7.815,0-191.063,0-191.063,0s-7.69-0.135-7.69-7.938
			c0-7.809,0-119.211,0-119.211S947.697,239.821,955.409,239.821z"/>
	</g>
</g>
</svg>
