<?xml version="1.0" encoding="UTF-8"?><svg id="Layer_1" xmlns="http://www.w3.org/2000/svg" viewBox="0 0 635.48 367.45"><defs><style>.cls-1{fill:#050505;}.cls-2{font-family:MyriadPro-Regular, 'Myriad Pro';font-size:19.73px;}.cls-3{fill:#575757;}.cls-4{letter-spacing:0em;}.cls-5{letter-spacing:0em;}.cls-6{letter-spacing:-.08em;}.cls-7{letter-spacing:-.01em;}.cls-8{letter-spacing:-.01em;}.cls-9{letter-spacing:0em;}.cls-10{letter-spacing:.03em;}.cls-11{letter-spacing:0em;}.cls-12{letter-spacing:0em;}.cls-13{fill:#fdfdfd;}</style></defs><path class="cls-1" d="M168.08,164.03c-.39.19-.82-.28-1.14-.19-.54.15-.14,1.41-.34,2.05-.31.22-1.43.34-1.54-.2-.28-1.36.04-2.72-.13-4.08-.47-.12-.96-.15-1.49,0l-.09,4.31c-.21.22-1.12.24-1.2-.06l-.12-4.06c-.01-.49-1.26.1-1.52-.64-.08-.23-.07-.85.33-.87,1.22-.05,2.48-.13,3.7.02.47.06.74.19,1.21-.02.59-.25.96.15,1.17.57l.55,1.12c.42.87.68-1.16,1.41-1.62.3-.19,1.28-.27,1.34.15.25,1.7.08,3.38.09,5.06,0,.41-.46.48-.67.49-.29,0-.7.03-.78-.36-.16-.71.09-1.4-.16-2.1-.38.12-.46.38-.61.45Z"/><path class="cls-1" d="M136.21,136.8c.32-.84-.15-1.76-.79-2.31-1.29-1.12-2.82-1.83-4.3-2.69l-1.72-1-7.93-4.68c-2.44-1.44-5.09-4.48-5.86-7.26-.19-.69-.54-1.38-.65-2.08-.25-1.7-.06-3.43-.07-5.13,0-.67.31-1.25.42-1.83.2-1.07.64-1.9,1.14-2.85,1.31-2.46,3.26-4.31,5.72-5.52l1.77-.87c.56-.27,1.17-.32,1.7-.54.79-.34,1.47-.41,2.3-.57,2.86-.53,3.74-.65,6.75-.45,2.8.19,4.4-.23,7.68.2l3.27.44c.67.09,1.23.41,1.96.46.56.04,1.03.82,1.01,1.39-.08,2.94.14,5.79-.09,8.75-.07.83-1.59.96-2.18.77-.63-.21-1.28-.3-1.89-.23s-1.18-.13-1.79-.12h-9.5c-.67,0-1.2.29-1.77.46-.89.27-1.66.66-2.05,1.47-.46.98-.58,1.78,0,2.76,1.28,2.17,4.68,3.33,6.77,4.49l1.85,1.02c-.69-.38,3.92,1.97,2.97,1.54,2.33,1.05,4.33,2.46,6.07,4.34.91.98,1.75,1.85,2.39,3.06l.89,1.68c.38.72,1.1,3.07,1.1,3.83,0,.21.2.34.32.35.22.01.22-.16.3-.36.48-1.13,1.01-2.17,1.54-3.27l3.03-6.21,2.27-4.61,2.78-5.68,2.35-4.86c.23-.48.36-1.02.64-1.44.21-.32.36-.61.52-.94l.62-1.29c.16-.34.32-.62.47-.96.7-1.59,1.58-3.03,2.29-4.63l.62-1.4,4-7.97c.8-1.59,3.63-3.49,5.64-3.5l12.68-.03c-.18.94-.52,1.64-.9,2.4l-3.95,7.87c-.19.37-.34.68-.5,1.07-.71,1.68-1.55,3.22-2.4,4.81s-1.68,3.51-2.55,5.25l-4.5,9.07-5.02,10.16-.47,1.12-4.71,9.4-7.34,14.85-3.34,6.75c-1.63,3.28-3.37,6.63-6.8,8.42-.49.25-1.1.39-1.57.72l-18.13-.05c-.97,0-3.37-1.19-4-1.44-1.22-.49-2.2-1.22-3.29-1.95-.77-.52-1.32-1.23-1.99-1.87-2.08-1.98-3.36-3.68-5.05-5.99l-2.3-3.12-2.05-3.07-3.54-5.58-2.79-4.58-3.5-5.92-2.32-4.11-1.27-2.22-7.12-12.84c-.12-.21-.06-.41-.21-.5-.21-.12-.39-.19-.68-.06v32.15c-.27.22-.5.68-.85.69l-12.45.03c-.48,0-.99-.29-.99-.86v-43.9c.6-2.19,2.01-3.82,4-4.87.49-.26,1.04-.36,1.52-.77h13.47c3.7,2.15,8.17,9.62,10.37,13.36l2.8,4.75,2.39,4,4.11,6.76,2.64,4.22c1.19,1.9,2.07,3.36,3.36,5.24,1.31-.03,2.53.38,3.81.46l5.73.33c1.82.11,3.82.06,5.57-.37.63-.16,1.31-.91,1.53-1.5ZM137.23,163.44c-1.83-1.42-3.37-2.95-4.83-4.66l-2.66-3.1-3.55-4.41-1.7-.17c-.64-.07-1.08-.23-1.65-.27l-3.48-.25c-.82-.06-1.54-.47-2.4-.49-.7-.01-1.51-.18-1.99-.72-.28-.32-.27-.93-.26-1.36l.03-9.59c0-.82.99-1.23,1.65-1.15.28-.51-.21-.71-.43-1.07l-4.72-7.55-3.32-5.48-5.35-9.04-3.18-5.12c-1.5-2.41-3.12-4.67-5.15-6.65-.67-.65-1.4-1.09-2.36-.64-1.01-.37-1.93.35-2.06,1.36-.03.25-.31.4-.35.61-.41,2.08-.25,4.15-.14,6.28.04.81.11,1.43.43,2.17.25.59.37,1.24.72,1.85l4.26,7.67.53,1.1,2.55,4.52,7.04,12.25,4.96,8.16c2.33,3.84,4.77,7.45,7.47,11.04,1.29,1.71,2.58,3.21,4.08,4.73,1.78,1.81,3.72,3.28,6.17,4.18,2.68.98,3.66.85,6.62.75,1.28-1.02,2.02-2.21,2.9-3.53.22-.34.73-1,.21-1.41ZM137.89,161.18c.31.27.44.51.87.37.27-.09.19-.41.33-.68l2.44-4.77,1.23-2.28,1.7-3.41c.12-.25.5-.51.1-.74s-.75.09-1.12.23c-2.95,1.09-6.02,1.41-9.13,1.56-1.42.07-2.79.16-4.19,0-.25-.03-.47-.19-.62.08-.07.13-.1.33.06.51l4.23,5.02c1.26,1.5,2.6,2.79,4.1,4.11Z"/><path class="cls-1" d="M193.4,83.37l-15.69.05c-.45,0-.31-.6-.2-.8l2.28-4.44,2.8-5.36c1.12-2.15,3.62-3.8,6.14-3.81l12.61-.08c.33,0,.1.65.01.84l-3.75,7.54-2.21,4.48c-.31.63-1.18,1.59-2,1.59Z"/><path class="cls-1" d="M187.36,224.24c0,26.77-21.71,48.48-48.48,48.48s-48.48-21.7-48.48-48.48,21.71-48.48,48.48-48.48,48.48,21.7,48.48,48.48ZM185.25,224.23c0-25.6-20.76-46.36-46.36-46.36s-46.36,20.76-46.36,46.36,20.76,46.36,46.36,46.36,46.36-20.76,46.36-46.36Z"/><path class="cls-1" d="M174.86,224.24c0,19.87-16.11,35.98-35.98,35.98s-35.98-16.11-35.98-35.98,16.11-35.98,35.98-35.98,35.98,16.11,35.98,35.98ZM129.11,200.36c.06-.02.16.04.33.03.18.31.61.21.93.31,1.09.32,2.03.16,3.09-.07.54-.12,1.15-.12,1.71-.18.68-.08,1.22-.29,1.84-.44,1.65-.41.87-.18,2.68-.99,1.56-.7,2.99-1.49,4.31-2.57.52-.43,3.09-2.24,2.79-2.71-.16-.64-.92-.07-1.23.14-1.95,1.3-5.38,2.7-7.79,3.11-.81.14-1.55.57-2.44.41-.68-.12-1.29.2-1.95.28-2.98.36-2.54-.44-4.13-.29-.76.07-1.52-.07-2.1-.6-.71.22-1.19-.24-1.76-.42-.71-.23-2.29-.69-2.86-1.17-.1-.08-.4-.02-.4.08,0,.07-.1.26-.05.36,1.08,2.22,3.06,3.6,5.33,4.42.59.21,1.09.53,1.7.32ZM130.38,205.08c.1.47.78-.15.96-.37,1.26-1.49,3.45-1.54,5.27-1.67,1.17-.09,2.29-.37,3.37-.59,2.44-.48,4.37-3.07,3.71-3.27-.78-.23-1.53.64-2.59.92l-2.11.56-2.24.21c-1.21.11-2.39.35-3.67.49-1.74.19-3.09,1.85-2.7,3.71ZM125.46,202.54h.3l1.01,1.06c-.4.21-.68-.02-1.01.04s-.29.4-.27.62c.01.14-.01.29-.01.43,0,.1-.11.28.05.35.14.06.33-.03.43-.14l.59-.03c.19-.01.31-.19.25-.43.03-.28-.28-.5-.04-.89.28.21.4.78.75.8.49.03.36-.6.41-.86.17-1.04-.16-1.73-.99-2.32-.49-.35-1.11-.61-1.64-.28h-.51c-.27-.51-.79-.81-1.25-1.33-.53.55-.54,1.3-.17,1.83.49.69,1.5,1.71,2.1,1.16ZM131.3,209.62c1.8,2.84,4.78,3.07,7.64,2.04,2.54-.91,4.77-2.63,6.16-4.98.99-1.68.61-4.01.16-5.79-.05-.21-.4-.14-.52-.1,0,0-1.08,1.98-1.23,2.97-.08.58.13,1.19-.03,1.75-.35,1.21-1.48,1.92-2.72,2.03-.04,1.08-.77,1.55-1.68,1.79-.6.15-1.08.58-1.76.64-1.52.12-3.11.12-4.59-.36-.49-.16-.94-.65-1.43.03ZM123.33,204.41c.02.13,0,.31,0,.45-.36-.08-.34.31-.28.56.06.23.21.43.47.45.04.1.11.2.2.26-.3.77,2.52.9,2.06.38l.29-.03c.13.02.26.07.32.15.11.15.07.4-.07.56-.39.44-.17,1.01-.24,1.52-.21,1.5,1.38,4.36,2.27,4.11.77-.22.76-1.56.71-2.03,0-.05.03-.1.03-.15.07.04.17.05.23,0,.1-.09.09-.24.07-.35l.04-.16c.29-.1.71-.32.6-.77-.05-.19-.35-.09-.47-.1-.15,0-.33-.02-.48-.04-1.25-1.2-.23-1.9-.78-2.92l.02-.77c.08-.16.18-.3.01-.47-.11-.12-.21-.15-.43-.05-.26.12-.38.3-.36.53,0,.05-.04.11-.04.16-1.32.56.1.48-1.44.3-.28-.03-.55-.22-.82-.31l-.82-1.27c.14-.27-.07-.71-.01-.99.03-.15,0-.32-.07-.44s-.38-.24-.48-.09c.09-.15-1.03,1.83-.56,1.51ZM145.65,210.86c.34-.3.14-.79.31-1.07.96-1.57,1.75-2.5,2.4-3.87.21-.45.32-.66,0-1.15s-.52-1.37-1.19-1.56c-.35-.1-.43.51-.35.76.45,1.31-.93,3.04-1.52,3.99-.4.64-.46,1.66-.78,2.39,0,.35.84.78,1.13.52ZM135.48,203.75c-.5-.11-1.4.1-1.63.56-.45.9,0,1.96.51,2.6,1.08,1.35,3.96,1.49,5.32-.21.67-.84.81-1.91.43-2.94-.14-.39-.69-.46-1.01-.48-1.63-.08-.12,1.65-1.12,2.61-.49.47-1.06.6-1.62.31-1.35-.7-.12-2.29-.89-2.46ZM137.09,204.18c-.56.18-.43.65-.34,1.01.11.43.47.34.84.24.41-.11.51-.46.39-.9-.09-.31-.43-.5-.89-.35ZM123.68,208.7c-1.08-.55-.81-2.38-1.43-1.8-.32.3-.86,2,.67,2.94.11.07,2.46.59,2.35-.54-.07-.65-1.42-.51-1.59-.6ZM157.07,236.02c-.92-.6-.78-1.53-.7-2.38.12-1.44.09-2.86,0-4.29.04.64-.46-2.52-.43-2.72.13-.87-.17-1.56-.37-2.35l-.46-1.77-.66-2.05-.61-1.79-.5-1.42c-.62-1.77-2.17-5.81-3.28-7.12-.42-.49-1-.83-1.31-1.42-.14-.26-.22-.53-.56-.46-.18.04-.25.26-.34.52-.65,1.86.29,5.06,1.47,6.42.83.96,1.21,2.02,1.65,3.2l.48,1.29c.18.49.42.97.6,1.46l.61,1.62.54,1.54c.27.77.29,1.48.48,2.26.65,2.7.71,5.46.19,8.12.46,3.13,2.15,2.55,4.56,4.64.42.37.75.87,1.25,1.08.45-.32.05-.57-.03-.85-.41-1.47-1.31-2.66-2.61-3.5ZM138.87,215.55c.84-.95,1.6-1.64,2.78-2,1.42-.44,3.2-1.5,2.5-3.23-.09-.22-.38-.14-.49-.06-.07.05-.17,1.21-2.97,2.06-1.09.33-1.7,1.05-2.01,2.13-.06.22-.29.52-.3.72,0,.15.31.59.49.38ZM123.01,210.84c-.2-.06-.33-.57-.57-.5-.61.22-.3.78-.08,1.16.3.52.45,1.22,1.15,1.29.23.02.52-.08.59-.22.06-.11.02-1.37-1.09-1.73ZM142.35,231.1l-.64-1.26-1.91-3.68c-1.49-2.88-4.07-4.05-5.74-6.56-.79-1.18-.94-2.5-.21-3.71.26-.43.37-.91.81-1.28.18-.15.24-.48.13-.6-.51-.52-3.04,1.13-3.57,2.39-.29.69-.26,1.89-.06,2.65,1.28,4.73,5.47,3.91,8.04,10.12.29.71.8,1.36,1.17,2.02,1.04,1.84,2.46,3.24,4.28,4.33.21.13.41.27.55.05.23-.38-1.93-2.66-2.85-4.48ZM148.07,217.36c-.25-1.45-.5-2.72-1.57-2.5-.33.07-.88.21-.9.75-.02.9.31,2.13,1.13,2.64.38.23,1.41-.49,1.34-.89ZM131.1,238.11c.85.35,2.93.45,3.67-.36-2.41-1.15-4.37-2.74-5.93-4.8-1.13-1.5-2.11-2.97-2.86-4.69l-.53-1.23c-.71-1.64-.72-2.16-1.12-3.67-.7-2.65-.38-5.38,1.05-7.66.13-.21.34-.43.17-.66-.28-.38-1.59.46-1.63.49-1.84,1.46-2.46,2.53-2.57,4.91-.09,2.17.35,3.92,1.13,5.92l.63,1.62,1.27,2.43c.68,1.3,1.49,2.58,2.51,3.66,1.33,1.42,2.54,2.87,4.21,4.01ZM149.76,222.05c.33-.99.23-2.48-.77-3.12-.44-.29-1.07.11-1.44.47-.47.46-.18,1.37.22,1.84.25.29.11.66.38.94.32.32,1.43.43,1.61-.12ZM149.23,226.56c.22.6.98.55,1.4.4,1.01-.35.94-2.09.77-2.72-.12-.44-.7-.96-1.2-.92-.35.03-.99.43-1.05.78-.12.78-.21,1.72.07,2.46ZM151.96,228.53c-.25-.32-.72-.32-1.11-.22-.31.08-.8.27-.76.74l.14,1.41c.07.65.37,1.32.95,1.22,1.49-.26,1.05-2.78.77-3.14ZM136.28,247.65c.5-.27.87-.7,1.37-1.01.83-.53,1.79-.9,2.43-1.72,1.36-1.74,1.92-4.44.59-6.29l-3.01-4.17c-1.27,1.19.93,5.02,1.14,5.82.17.63.22,1.48.03,2.14-.95,3.27-2.83,2.55-4.63,5.75-.09.15-.29.25-.27.43.15,1.12,1.36-.42,2.35-.95ZM159.45,241.98c.2-.46-2.5-2.09-2.93-2.29-.46-.22-1.03-.11-1.36-.63-.88.16-1.56-.28-2.32-.46-.68-.16-1.26-.24-1.89-.55-.31-.15-2.16-.76-2.63-1.22-.29-.28-.7-.34-1.07-.25,0,.56.3.92.66,1.3,1.17,1.24,3.07,3.31,4.86,3.53.93.11,1.62.31,2.46.58.9.28,1.87.12,2.76.64.27.16.81-.09,1.08.22.25.29.88.59,1.13.12.17-.32-.3-.79-.74-1.01ZM154.33,242.84c-.48-.16-1.16-.61-1.63-.3-.31.2.05.69.19.9.89,1.32,1.6,3.3,1.86,3.63.14.18.12.43,0,.48-.19.08-.37,0-.5-.19-.64-.93-1.34-1.75-1.89-2.76-1.17.56.76,2.82-.06,3.78-1.4-1.68-2.16-3.59-2.81-5.55-.4-1.2-.78-2.36-1.58-3.35-.52-.64-1.35-2.02-1.87-1.99-.12,0-.39.34-.26.42.5.31.4.81.59,1.21.45.94.39,1.86.59,2.86.25,1.27.83,2.51,1.33,3.7.98,2.33,2.28,4.35,4.1,6.08.88-.8.98.21,2.24-.16.21-.06.27-.57.52-.61.37-.07.85.31,1.21-.01.16-.14.26-.4.48-.36.15.03.24.21.44.36.36.27,1.44-.33,1.37-.8-.5-1.36-1.84-2.18-2.42-3.48-.79-1.76-.46-3.37-1.89-3.83ZM128.61,247.13c1.61-1.59,4.84-1.66,6.32-3.17.98-1,1.81-3.09,1.14-4.59-.73-.15-1.3,1.95-2.16,2.75-2.93,2.76-5.85,1.62-6.8,4.17-.26.71-.18,1.62.35,2.07.56-.25.73-.82,1.14-1.23ZM142.85,247.62c.49-.47-.44-.76,1.1-2.33l1.2-1.23c.61-.62.94-1.96.61-2.78-.18-.43-1.72-2.15-2.1-1.78-.57.56.99,1.66-.43,2.87s-2.35,2.17-1.85,4.31c.16.27,1.17,1.23,1.47.95ZM136.6,251.84c.83-2.03,3.61-.51,4.68-3.8l-.58-1.39c-.07-.16-.21-.21-.32-.21-.67-.02.35,1.16-1.81,1.83l-1.58.49c-.81.25-1.18,1.18-1.17,1.96,0,.57.23,1.04.78,1.11ZM130.78,249.78c.62-.36,1.51-1.26,1.43-2.07-.05-.57-1.31-.31-1.58.05-.85,1.14-2.32,1.28-2.37,2.12-.04.59.76,1.43.82,1.46.91.34.11-.65,1.7-1.56ZM145.83,251.66c.95-.69,1.01-2.77.49-3.38-1.07-1.25-3.23,0-3.24.75,0,.4.49.75.62,1.2.5-.28.82-.31,1.11-.06.9.78.07,2.18,1.03,1.48ZM132.66,253.64c-.29-1.42,2.04-.68,1.3-1.85-.99-1.54-.22-2.26-.79-2.45-.38-.13-2.09.74-2.5,1.79-.61,1.58.67,3.17,2.04,3.76.2-.45.05-.8-.05-1.26ZM126.38,251.93c.4-.36,1.56-.17,1.41-.69-.09-.31-.64-.29-.86-.56-.29-.35-.48-1.08-1.07-1.15-.49-.06-1.29.59-1.44,1.07-.17.55-.12,1.2-.02,1.72.13.66,1.75,2.62,2.22,2.01.51-.67-.94-1.75-.24-2.39Z"/><path class="cls-1" d="M114.83,194.66c.26.51-.61.99-1.01.87-1.18-1.52-2.5-3.15-3.6-4.81-.27-.41.18-.86.4-1.07,1.17-1.1,4.17,2.06,4.61,1.44.13-.18-1.51-1.9-2.05-2.86-.22-.4.5-1,.86-.88.5.17.66.64.93,1l2.66,3.53c.43.57,0,1.19-.44,1.47-.59.38-1.02.16-1.6-.18l-2.02-1.19c-.16-.09-.38-.01-.44.08-.2.33,1.21,1.68,1.69,2.61Z"/><path class="cls-1" d="M107.75,254.68c-.31.29-.6.38-.92.39-.25.01-1.45-.74-.79-2.01.52-1,1.07-1.97,1.39-3.18l-2.83,2.38c-.25.21-.54-.12-.66-.26-.14-.17-.4-.63-.16-.85l3.26-2.84c.47-.41.89-1.07,1.61-1.03.45.03,1.02.75,1.08,1.19-.38.9-.83,1.86-1.26,2.73-.19.4-.59.75-.14,1.22.86-.84,1.6-1.53,2.53-2.23.35-.26,1.35.4,1.04.74-1.27,1.41-2.77,2.46-4.17,3.75Z"/><path class="cls-1" d="M96.98,224.27c1.08.54,4.02-.5,4.16.69.03.29-.22.71-.63.7-1.92-.05-3.8.09-5.71-.08-.55-.05-.52-.88-.47-1.22.09-.57.37-.85.96-1.05,1.03-.36,1.98-.88,3.05-1.12.1-.02.12-.21.1-.26-.32-.67-4.11.66-4.11-1,0-.31.39-.54.76-.53.99.02,5.6-.06,6.07.4.18.18.21.57.15.86-.3,1.32-2.9,1.66-4.31,2.6Z"/><path class="cls-1" d="M174.08,207.56c-.21.34-.31.6-.64.63s-.56-.23-.66-.59c-.16-.59.06-.92.37-1.35.29-.4.46-.87.8-1.25.17-.19.05-.55-.09-.67-.52-.47-2,1.76-2.74.35-.14-.26-.15-.72.17-.9l5.26-2.91c1.14.92,2.39,2.8,1.79,4.09-.41.89-1.8,1.66-2.65,1.26-.3-.14-.72-.06-.91.24l-.71,1.11ZM176.48,202.81c-.17,0-1.22.29-1.31.59-.11.39-.05.69.17.97.36.47.88.71,1.32.34.81-.68.13-1.89-.18-1.91Z"/><path class="cls-1" d="M158.74,263.95c-1.12-.62-2.11-1.95-2.54-1.39-.3.39.46,1.09.68,2.17.08.42-1.01.99-1.3.5-.93-1.6-1.58-3.3-2.4-4.93-.66-1.32,1.87-2.1,2.77-2.27.81-.16,1.86.39,2.17,1.24.28.76.02,1.54-.05,2.3.56.58,1.5.95,1.95,1.6.11.42-.79,1.06-1.27.79ZM155.6,261.46c.51-.24,1.14-.45,1.29-1s-.41-1.06-.86-1.08-1.06.1-1.16.64c-.11.58.28,1.01.73,1.44Z"/><path class="cls-1" d="M149.45,267.61c-1.3.3-2.38-.21-2.88-1.42-.35-.84-.64-1.87-.75-2.81-.14-1.23.84-2.07,1.87-2.52,1.23-.54,2.69.11,3.22,1.33s.71,2.41.56,3.81c-.1.9-1.11,1.41-2.01,1.62ZM150.18,265.34c.06-.68-.35-1.19-.4-1.81s-.29-1.11-.75-1.33c-.35-.17-1.26-.24-1.42.28-.34,1.17-.16,2.67.69,3.58.57.62,1.81.02,1.88-.73Z"/><path class="cls-1" d="M110.24,199.69c-.68.56-1.46.98-2.36.62-1.02-.41-1.93-1.2-2.68-2.02-1.1-1.2-.8-2.76.41-3.85.7-.63,1.99-.78,2.86-.22s1.57,1.29,2.27,1.96c.77,1.24.62,2.58-.51,3.52ZM108.61,198.97c.49.1.85-.33,1.02-.57.78-1.1-1.25-2.49-2.15-3.03-.52-.31-.93.05-1.23.4-.34.41-.45.78-.09,1.24.38.49,1.61,1.78,2.45,1.95Z"/><path class="cls-1" d="M174.45,197.24c.08.42-.34.8-.64,1.04-.83.65-1.56,1.26-2.35,1.96-.65.58-1.61,1.02-2.51.69-.75-.27-1.46-1.06-1.74-1.76-.44-1.12-.01-2.13.83-2.82,1-.83,1.88-1.74,2.99-2.41.31-.19.71.02.91.19.23.2.22.71-.08.97l-2.9,2.5c-.3.26-.58.46-.57.83,0,.63.89,1.2,1.08,1.19s.38-.14.58-.3l3.58-2.83c.29-.05.77.45.83.76Z"/><path class="cls-1" d="M163.55,259.21c-.22.37.69,1.28.32,1.88-.16.26-.61.76-.97.63-.45-.41-2.48-6.08-2.48-6.1.03-.34.23-.56.52-.84.62-.61,1.41-.62,2.07-.03,1.37,1.24,2.93,2.24,4.23,3.58.27.28-.37.69-.61.8-.82.38-1.06-.73-1.79-.75-.34,0-1.27.8-1.29.82ZM163.7,257.17l-.92-.94c-.18-.19-.42-.27-.58-.12-.36.33.22,1.11.63,1.71.17.24.53,0,.71-.08.16-.08.39-.35.16-.58Z"/><path class="cls-1" d="M100.25,215.2c-.54,1.72,2,1.19,1.48,2.5-.16.41-.64.81-1.06.47-.23-.18-4.04-2.19-4.51-2.4-.57-.26-.98-.97-.86-1.48.17-.7.62-1.22,1.41-1.19.54.02,1.05-.15,1.58-.17,1.32-.06,2.62-.07,3.94.02.42.03.42.62.31.9-.46,1.26-1.75-.34-2.28,1.35ZM98.67,215.54c.47.07.72-.81.36-1.02-.58-.34-1.39-.24-1.97.06-.16.08.18.44.35.41.51-.07.79.48,1.26.55Z"/><path class="cls-1" d="M121.77,188.53c-1.67.7-.15,1.61-.82,2.36-.17.2-.52.54-.89.35-.33-.16-.21-.65-.35-.9-.46-.88-.38-1.76-.57-2.67-.21-.98-.71-1.98-.31-3.01.27-.68,1.5-1.2,2.01-.6l3.57,4.1c.16.19.35.32.38.51.07.5-.69.98-1.16.85-.57-.16-.54-1.54-1.87-.98ZM121.57,187.05c-.34-.71-.83-1.36-1.59-1.73.1.86.29,1.66.64,2.28.26.17,1.1-.23.95-.55Z"/><path class="cls-1" d="M160.66,189.2c-.61,1.08-1.75-.9-2.63-.39-.24.14-.44.5-.3.85.27.69.9.96,1.53,1.24.25.11.27.75.08.88-.63.42-1.3.1-1.84-.26-.79-.51-2.1-1.35-1.35-2.61s1.26-2.59,2.22-3.67c.48-.54,1.75-.38,2.26-.08s.85.54,1.27.84c.34.25.4.74.14,1.04-.71.81-1.57-1.07-2.58-.43-1.84,1.18,1.98,1.22,1.21,2.59Z"/><path class="cls-1" d="M174.51,244.83c.96,1.01-2.2,2.99.35,2.9.7-.03.93-1.19,1.58-1.55.27-.08.81.31.93.6-.41.84-.89,1.84-1.67,2.44-.5.38-1.49.38-1.97.06l-2.23-1.47c-.66-.43-1.49-.95-1.47-1.85.02-.78.6-1.31.95-1.95.25-.46.8-1.05,1.34-.68.88.6-.61,1.27-.56,2.38.01.33.31.89.83.7s1.11-2.44,1.92-1.58Z"/><path class="cls-1" d="M128.69,264.15c-.66,1.16-2.91-1.14-2.79.57.09,1.27,1.2,1.05,1.89,1.57.28.21.15.61,0,.79-.5.55-1.92-.07-2.62-.4-1.62-.76-.79-2.55-.32-3.91.25-.73.34-1.56.87-2.14,1.08-1.18,1.92-.42,3.37.05.34.11.49.41.51.68.06,1.35-1.4-.02-2.4.34-.34.12-.61.32-.63.62-.02.43.39.47.75.61l1.4.54c.19.07.06.53-.02.67Z"/><path class="cls-1" d="M153.59,185.59c.62.79.52,1.63.03,2.35-1.16,1.71-4.3.06-4.33-.29-.02-.21-.12-.54.11-.68,1.24-.73,1.95,1.03,2.83.13.18-1.66-2.88-2.62-1.27-4.72.61-.8,1.67-.84,2.58-.31.49.29,1.18.34,1.55.87.22.32-.28,1.07-.67.96-.51-.14-1.79-.95-2.2-.43-.1.13-.05.3.09.48l1.3,1.64Z"/><path class="cls-1" d="M112.57,259.99c-.78-.17-2.81-1.55-2.53-2.22.77-1.8,1.69,1.07,2.84.61,1-.39-.87-2.15-.44-3.92.11-.45.68-.99,1.1-1.18.7-.31,1.52.02,2.01.48l1.07,1c.22.2.44.51.31.78-.82,1.78-1.56-1.23-3.05-.5.03,1.25,1.48,2.51.62,3.84-.32.5-1,1.3-1.95,1.09Z"/><path class="cls-1" d="M118.44,261.61c-.34.52-.43,1.27-1.04,1.55-.32.14-.81-.23-.96-.46-.19-.3.08-.73.25-1.05l1.9-3.55c.22-.41.38-1.16.98-1.19.68-.03,1.32.54,1.92.78,1,.4,1.46,1.21,1.4,2.24-.06.9-.71,1.83-1.78,1.96-1.36.16-2.26-.91-2.67-.29ZM120.3,260.52c.22.02.44-.03.66-.05.38-.04.59-.42.65-.73.13-.69-1.13-1.4-1.63-1.34-.34.93-.86,1.13-.57,1.76.12.25.46.55.89.36Z"/><path class="cls-1" d="M183.09,226.06c-.49.02-3.33-1.46-3.71-1.6-.97-.36-2.71.49-2.79-.8-.02-.34.07-.72.49-.83.74-.19,1.6.19,2.28-.14.36-.18.65-.54,1.07-.69.88-.32,1.66-.86,2.58-1.08.4-.1.55.45.58.68.17,1.2-2.61,1.18-2.61,2.23.68.03,2.46.56,2.59,1.17.06.3-.02,1.04-.47,1.05Z"/><path class="cls-1" d="M133.67,267.14c.51.29,1.2.06,1.78.33.3.14.35.96,0,1.07-.68.22-1.47.08-2.21-.09-1.4-.31-1.97-1.99-1.53-3.32-.13-1.21.17-2.53,1.25-3.16.92-.54,2.2-.42,3.09,0,.31.15.26.71.17.91-.39.79-1.92-.45-2.59.51-.37.52-.26,1.22-.44,1.84-.19.65-.18,1.52.49,1.9Z"/><path class="cls-1" d="M163.51,193.49c-.18.93,1.75,1.2,1.47,2.15-.36,1.23-2.4-.39-2.83-1.53-.59-1.58.98-3.24,2.09-4.24,2-1.8,4.18.87,4.18,1.08,0,.31.05.8-.38.9-.38.09-.83-.21-1.08-.54-.41-.55-1.32-.82-1.81-.22-.57.7-1.46,1.4-1.65,2.39Z"/><path class="cls-1" d="M103.76,209.61c-.98-.15-4.19-2.02-4.77-1.85-.66.19-.15,1.19-1.12,1.12-.26-.02-.61-.13-.66-.47-.08-.56.3-.92.49-1.35l1.01-2.4c.18-.43.68-.53,1.05-.36.74.34-.17,1.32-.04,1.74s4.06,1.78,4.7,2.28c.2.32-.26,1.27-.65,1.29Z"/><path class="cls-1" d="M177.14,217.32c-.43.09-.86.09-1.05-.15-.17-.2-.51-.8-.21-.97,1.02-.61,2.22-.65,3.35-.83.6-.09,1.16-.38,1.74-.54.41-.11-.35-1.13.11-1.52.19-.17.53-.31.8-.14.56.36.5.89.63,1.47l.55,2.55c.08.38-.21.69-.51.76-.4.09-.76-.12-.82-.58-.04-.32-.17-.54-.39-.7-.25-.18-.57-.07-.92,0l-3.27.65Z"/><path class="cls-1" d="M171.7,254c.31.3-.67,1.26-.98,1.03-1.22-.91-2.2-1.95-3.28-2.97-1.14-1.07-.9.65-1.94.44-.26-.05-.49-.24-.57-.55-.1-.37.3-.53.53-.81.82-1.02,1.57-1.99,2.66-2.76.25.18.73.45.73.79,0,.53-.71.7-.8,1.23l3.66,3.61Z"/><path class="cls-1" d="M130.1,187.5c-.85.37-1.86.73-2.69.27-.72-.39-.77-1.01-.94-1.65-.14-.56-.41-1.02-.47-1.62s-1.04-2.36-.27-2.87c.24-.16.66-.35.94-.04.51.56.43,1.37.71,2.01.3.69.41,1.33.53,2.06.25,1.55,2.6-.12,2.79.91.11.56-.1.72-.6.93Z"/><path class="cls-1" d="M100.71,236.96c-.77.62-1.66.73-2.42.18-.91-.66-1.23-1.55-.78-2.58.4-.91,1.29-1.29,2.4-1.11,1.18.19,1.74,1.33,1.45,2.48-.11.45-.26.71-.65,1.03Z"/><path class="cls-1" d="M176.79,236.74c-.74-.8-.66-1.71-.08-2.48s1.35-1.04,2.27-.79c1.14.31,1.52,1.29,1.31,2.44-.14.74-.69,1.29-1.31,1.51-.84.29-1.61-.05-2.19-.68Z"/><path class="cls-1" d="M140.78,184.05c-.32.98-1.27,1.29-2.28,1.18-1.11-.12-1.93-1.39-1.64-2.4.33-1.13,1.38-1.85,2.53-1.55s1.81,1.46,1.38,2.77Z"/><path class="cls-1" d="M141.66,268.47c-.26.36-.72.14-.9-.03-.63-.62-.03-1.59-.44-3.17-.15-.59.15-1.26-.12-1.8-.25-.5-1.58.14-1.68-.66-.03-.26.12-.67.51-.68l2.68-.08c.45-.01.94-.31,1.34,0,.22.17.14.5.05.66-.32.55-.99.17-1.37.57-.21.22-.12.5-.05.8.18.77-.02,1.52.09,2.32.09.65.33,1.45-.11,2.07Z"/><path class="cls-1" d="M101.71,248.09c-.4.25-1.31-.77-.97-1.1,1.63-1.32,3.49-2.23,5.25-3.34.31-.19.78.3.88.55.13.33-.07.75-.43.97l-4.73,2.92Z"/><path class="cls-1" d="M174.48,210.68c.42-.34,3.26-1.29,4-1.53.65-.22,1.3-.7,2.03-.49.3.08.35.56.38.78.05.36-.24.57-.64.71-1.78.62-3.6,1.36-5.43,1.88-.38-.03-.7-1.07-.34-1.35Z"/><path class="cls-1" d="M106.87,203.26c.38.24.14.9-.08,1.1-.32.28-.73.21-1.11-.03l-4.47-2.86c-.17-.11-.32-.21-.33-.36-.03-.24.43-.86.48-.9.13-.1.48-.16.68-.03l4.84,3.09Z"/><path class="cls-1" d="M168.02,291.84c-.13,3.76-2.58,6.35-6.3,6.69l-4.33-.07c-.64,0-1.44-.11-2.08-.15-.38-.03-1.07-.65-1.07-1.1v-15.62c0-1.17,1.31-1.41,2.17-1.47l2.43-.15c.8-.05,1.47-.27,2.3-.03.38.11.96.21,1.35.19.63-.04.9.26,1.37.44,4.18,1.6,3.95,4.94,4.41,8.19.16,1.11-.22,2.08-.25,3.08ZM163.75,286.87c-.03-.68-.37-1.56-.77-2.09-.88-1.17-3.14-1.41-4.27-.92l.02,10.77c.26.51,1.2.35,1.65.31,1.11-.1,2.29-.4,2.82-1.48.84-1.69.65-4.46.55-6.59Z"/><path class="cls-1" d="M139,294.42c-.46,1.29-1.4,2.61-2.57,3.21-.37.19-.83.48-1.2.57-1.92.5-3.92.37-5.84.05-2.53-.89-4.33-3.82-4.36-6.27l-.08-5.29c.31-2.57,1.89-5.81,4.53-6.33l2.85-.56c1.37.34,2.96.32,4.19,1.15,1.11.75,2.05,1.87,2.49,3.16.19.56.55,1.23.58,1.83.11,2.24.1,4.42,0,6.67-.03.59-.39,1.27-.58,1.83ZM131.94,294.81c1.67.19,3.21-1.24,3.21-2.81v-5.31c.01-.94-.56-1.94-1.31-2.48-.88-.62-1.99-.53-2.94-.02-.73.39-1.37,1.35-1.42,2.39-.09,1.75-.06,3.45-.01,5.22.04,1.45.98,2.83,2.47,3.01Z"/><path class="cls-1" d="M118.92,288.76c.99-.28,2.03-.05,2.99-.11,1.17-.07.88,1.83.86,2.57l-.15,6.29c-.02.86-1.51.83-2.11.85-2.02.09-4.68.37-6.53-.2-1.43-.65-2.58-1.55-3.3-2.94-.56-1.08-1-2.31-1-3.58.01-1.99-.15-3.91.07-5.87.08-.69.44-1.52.7-2.1,1.39-3.21,4.83-4.04,8.01-3.73l1.91.19c.65.06,1.88-.05,2.23.78.29.68.17,2.07.04,2.8-.68.7-1.92.34-2.77.26-1.16-.1-2.21-.05-3.36-.01-1.44.04-2.24,1.64-2.24,2.9v4.92c0,.8.31,1.46.82,2.14.61.81,2.26,1.09,3.11.58.38-1.01-.43-5.42.73-5.75Z"/><path class="cls-1" d="M152.61,297.16c.08.84-.47,1.16-1.1,1.23-1.64.18-5.24.24-6.73-.17-1.4-.6-2.33-1.68-2.59-3.16-.05-.29-.26-.54-.26-.87v-12.29c0-.57.15-1.53.78-1.64,1.05-.18,2.11-.07,3.17-.04.35,0,.6.57.6.9l.04,12.91c.09.31.66.67.95.68h4.03c.41.01.95.22,1.05.64.13.56,0,1.17.06,1.81Z"/><path class="cls-1" d="M463.94,297.47c-1.73,1.75-4.91,1.92-6.76.56-1.67-1.23-2.74-3.55-2.97-5.65l-.31-2.87.31-2.56c.16-1.3.47-2.29,1.02-3.44.32-.68.76-1.12,1.25-1.66.93-1.01,2.03-1.67,3.51-1.6.87.04,1.87-.07,2.68.36,1.07.58,2.6,2.14,2.93,3.23l.45,1.47c.23.73.17,1.53.32,2.26.27,1.31.08,2.55.03,3.84-.09,2.24-.9,4.47-2.46,6.05ZM458.8,296.24c.91.7,2.03.7,2.91-.04,1.34-1.13,1.73-2.8,1.87-4.54.19-2.38.25-5.74-.98-7.82-.63-1.07-1.81-1.76-3.1-1.3-1.48.52-2.14,2.17-2.41,3.63-.33,1.73-.55,2.68-.39,4.48s.53,4.37,2.11,5.59Z"/><path class="cls-1" d="M491.16,298.13c-.01.85-2,.44-2.76.41l-.08-4.03c0-.16-.12-.68-.33-.68h-6.89c-.45-.01-.96-.18-1.06-.61-.2-.91.19-1.51.67-2.2l7.03-10.09c.21-.3.54-.51.89-.51h1.76c.46-.01.76.3.77.77l.03,10.36,2.07.07c.26.64.21,1.41.01,2.1l-2.06.15-.07,4.26ZM487.91,291.74c.41,0,.61-.27.61-.61l-.05-6.74c0-.2-.4-.14-.53-.13-.03,0-.63,1.21-1.1,1.85l-3.62,5.03c-.1.13,0,.38.06.46s.21.16.4.16l4.23-.02Z"/><path class="cls-1" d="M507.94,298.62l-11.4-.05c-.78-.62-.17-2,.51-2.56,1.52-1.25,2.73-2.57,4.1-3.93,2.21-2.2,4.4-4.81,3.21-8.01-.6-1.61-3.14-1.42-4.5-1.14-.7.14-1.68,1.15-2.28.95-.2-.07-1.08-1.63-.62-1.98,2.45-1.92,6.76-2.41,8.97-.33.52.48,1.01.9,1.17,1.69.07.32.46.6.43,1-.16,2.26.48,2.01-.67,4.43-.75,1.58-1.81,2.82-2.95,4.08-.87.96-1.74,2.06-2.82,2.73-.21.13-.69.64-.38.73l7,.09c.38,0,.41.53.39.8l-.15,1.52Z"/><path class="cls-3" d="M473.41,283.36l-1.8,1c-.29.16-.9.62-1.28.21-.31-.34-.32-1.14-.37-1.57-.09-.83.58-.78,1.02-1.03l2.25-1.29c.73-.42,3.18-.52,3.19.38l.02,17.45c-.62.3-2.55.25-2.75.1-.16-.11-.22-.33-.23-.62l-.05-14.64ZM473.75,285.04l-.03,13.12c.69.17,1.29.1,1.98.03l.06-1.81v-15.38c-1.45-.77-3.84.9-5.28,1.76-.37.22-.15,1.14.1,1.41.3.31.67-.13.89-.22,1.21-.51,1.53-1.15,1.94-.89.32.21.34,1.36.34,1.98Z"/><path class="cls-1" d="M473.75,285.04c0-.62-.01-1.78-.34-1.98-.41-.26-.73.38-1.94.89-.22.09-.59.53-.89.22-.25-.27-.47-1.19-.1-1.41,1.43-.86,3.83-2.53,5.27-1.76v15.38s-.06,1.81-.06,1.81c-.69.08-1.29.14-1.98-.03l.03-13.12Z"/><path class="cls-1" d="M560.57,68.52v204.17s-159.36,0-159.36,0V68.52s159.36,0,159.36,0ZM406.02,139.93l5.11-.02c.24.52.42,1.4,0,1.89-1.63.04-3.37.08-4.94-.04-.24-.02-.41-.31-.59-.2s-.25.33-.25.58v2.25c0,1.2-.07,2.33-.05,3.52l.07,3.21-.06,3.52.06,3.36-.07,3.05.02,7.2.06,3.36-.06,3.36c-.02,1.14.03,2.22.03,3.37v2.24c.01.21.17.33.23.44.13.24.33-.05.52-.04,1.66.09,3.28.09,5.04.02.24.54.27,1.09.12,1.66l-5.69.07c-.09.12-.02.33-.02.43l-.02,2.53c0,.62-.33,1.29.06,2.05l5.52.03c.39.45.26,1.29.01,1.79h-5.16c-.27.01-.43.01-.53.3-.05.14-.03.3.21.36-.21,1.25-.08,2.53-.11,3.8,0,.2-.08.48.03.69.11.22.52,0,.72.08.86.33,1.6.06,2.43.05l8.15-.05c.09.57.13.99,0,1.5l-11.27.03c-.14.28-.07.55-.05.77,0,.09,0,.19,0,.29-.08.06-.19.15-.19.26s.1.2.18.26v67.55c-.14-.03-.19.15-.19.34l.04,1.75c0,.34.14,1.12.66,1.12h149.81c.6-.16.71-.4.71-.99v-69.12c.01-.87.34-1.52-.26-2.23l-12.05-.03c0-.54-.18-1.14.12-1.61h11.38c.23.01.5.19.6.02.07-.12.32-.38.31-.57-.08-1.36-.11-2.67-.11-4.06,0-.18-.15-.39-.21-.55-.06-.18-.37.05-.58.05h-5.15c-.17-.73.09-1.32.04-1.95l.61-.02c-.23.39,4.67.12,4.99.08.78-.09.4-4.14.22-4.95-1.97-.09-3.87-.12-5.84,0-.21-.48-.07-1.96.35-2.02l4.92.03c.02.14.14.3.24.25.13-.06.46-.23.46-.44l-.04-3.98c0-.19-.13-.6-.34-.6l-5.12-.04c-.31,0-.56-.12-.78-.19.01-.41-.03-.82,0-1.23.21-.03.34-.34.62-.35,1.84-.03,3.59.07,5.41-.08.52.08.33-4,.3-4.33-.02-.2-.2-.38-.24-.5-.1-.31-5.26-.18-5.97-.21-.28-.55-.11-1.22-.11-1.88.35-.15.64-.01.91-.07-.04.07.07.18.18.18h4.61c.38,0,.54-.28.53-.62-.05-1.32-.03-2.56.03-3.86.01-.23-.09-.45-.3-.47-.12-.01-.29.04-.4.15l-11.66.02c-.05-.68-.11-1.27,0-1.92.04-.26.56-.32.82-.32h10.99c0,.13.14.32.25.25.08-.05.32-.25.3-.41-.09-1.21-.07-2.32.04-3.51.01-.14-.12-1.27-.48-1.07-.07.04-.11.13-.14.22-.77,0-5.39.22-5.68-.24-.07-.12-.06-.33-.05-.49.11.11.24-.02.32-.12.14-.19-.17-.3-.19-.41-.04-.23-.03-.6.08-.93l5.41-.03c.11.11.28.17.4.17.19,0,.31-.27.29-.49-.29-3.29.8-4.54-.85-4.59s-3.3-.13-5,.06c-.22-.28-.22-.53-.33-.75.07-.25-.04-.56,0-.82.3-.29.72-.24,1.18-.2,1.64.15,3.21.01,4.87-.07.26-.83.4-4.33-.11-4.96-1.67-.02-3.27-.1-4.93,0-.4.02-.76.05-1-.2v-1.42c.14-.06.23-.19.23-.34l5.08.02c.08.16.26.23.41.23.87.03.48-2.56.41-3.45-.02-.33.23-1.72-.39-1.72-.17,0-.32.16-.44.28l-4.29.02c-.09-.21-.4-.15-.69-.16-.21-.21-.12-.52-.33-.67v-.47c.08-.17.1-.36.22-.71h5.77c.41-1.78.32-3.49-.02-5.27l-11.45.04c-.13-.57-.11-1.01-.12-1.46,0-.03.02-.09,0-.12l11.56.04c.27-.8.28-1.45.28-2.34v-50.99c0-.24-.21-.32-.3-.43-.08-.1-.21,0-.31.05h-150.27c-.05-.09-.15-.16-.22-.15-.09,0-.25.15-.25.36v51.32s-.02,2.93-.02,2.93l.05,3.36-.07,3.52c-.02,1.03.06,2.01.06,3.05v3.03c.45-.01.59-.11.66-.29Z"/><path class="cls-3" d="M405.54,265.47l.19,2.23c.04.44.31.67.79.67h149.03c.53,0,.7-.38.7-.84v-70.37c0-.27-.32-.42-.48-.4-1.05.11-2.01-.12-3.05-.12h-7.81c-.2,0-.37.22-.52.05-.08-.09-.14-.23-.14-.38l12.05.03c.6.72.28,1.37.28,2.23v69.12c-.01.6-.12.83-.72,1h-149.81c-.52,0-.65-.79-.66-1.13l-.04-1.75c0-.19.05-.37.19-.34Z"/><path class="cls-3" d="M405.84,153.65c.11.54-.23,1.18,0,1.91,1.75-.1,3.5-.24,5.37.06.24-.77.05-1.41.08-2.07.76-.01.49,1.39.36,2.16l-5.9.12c-.16,1.35-.06,2.63-.08,3.94,0,.32.18.46.48.47,3.63.12,7.2-.16,10.72.13.06.08-.05.17-.18.2h-9.74c-.31,0-.91-.25-1.05.05-.26.57.02,1.24-.03,1.77-.03.32-.27.64-.24,1.06.07,1.17-.19,3.53.36,3.68-.35.57-.27,1.34-.11,2.05,1.86-.17,3.46-.21,5.32,0,.15-.74.14-1.42.08-2.07.77,0,.46,1.35.38,2.22l-5.36.06c-.2,0-.54.12-.56.36-.13,1.32-.14,2.64.04,4.05l5.15.06c.32,0,.64.15.73.33s.24,1.51-.08,1.82c-.16.16-.46.24-.79.24l-5,.05c-.19,1.32-.15,2.53-.08,3.78.02.35.29.59.62.61,1.64.13,3.23,0,4.86-.03.69,0,.71,1.77.41,2.07-.12.12-.38.23-.66.23h-3.82c-.58,0-1.08.02-1.56.19,0-.09-.07-.31.02-.43l5.69-.07c.15-.57.13-1.12-.12-1.66-1.76.07-3.37.07-5.04-.02-.18-.01-.39.28-.52.04-.06-.11-.22-.24-.22-.44v-2.24c-.01-1.15-.06-2.23-.04-3.37l.06-3.36-.06-3.36-.02-7.2.07-3.05-.06-3.36.06-3.52-.07-3.21c-.03-1.19.04-2.32.04-3.52v-2.25c0-.26.08-.48.26-.58s.35.18.59.2c1.57.12,3.31.08,4.94.04.41-.49.24-1.37,0-1.89.18,0,.34-.02.45.1.35.4.31,2.09-.45,2.1l-5.38.09c-.14,1.34-.12,2.62-.03,3.92.02.28.32.5.59.5h4.63c.3,0,.52.08.67.23.28.28.28,1.94-.21,1.95l-5.52.1c-.37,1.01-.23,3.73-.03,4.73ZM411.16,148.6c.2-.72.24-1.21.04-1.76-1.84.23-3.46.11-5.26.03-.22.42-.25,1.33.12,1.61l5.09.12ZM411.3,175.85c.09-.7.17-1.22-.12-1.54h-5.32c-.09.55-.12.98-.03,1.56l5.47-.02Z"/><path class="cls-3" d="M405.83,72.8c-.17.46-.16.87-.16,1.49v51.01c0,.36.19.81.51.81l11.31.08c.54.37.5,1.7-.04,2.17l-11.11.03c-.22,0-.57.15-.59.38-.11,1.35-.18,2.72.09,4.07l5.68.07c.38.78.38,1.61.07,2.38h-5.11c-.26,0-.52.1-.63.22s-.16.33-.16.55v2.89c-.02.41.12.73.34.98-.06.18-.2.28-.65.29v-3.03c0-1.04-.09-2.02-.07-3.05l.07-3.52-.05-3.36.02-2.93v-51.32c0-.22.16-.36.25-.36.08,0,.17.06.22.15ZM417.48,126.52h-11.73s0,1.43,0,1.43h11.73s0-1.43,0-1.43ZM411.17,135c.22-.63.18-1.11.1-1.68h-5.43c-.08.59-.1,1.09-.01,1.67h5.34Z"/><path class="cls-3" d="M544.87,126.47c-.03-.05-.01-.31.06-.31l10.52-.02c.56,0,.81-.25.81-.83v-51.49c0-.46.14-.75-.16-1.01.1-.05.23-.15.31-.05.09.11.3.19.3.43v50.99c0,.89,0,1.54-.28,2.34l-11.56-.04Z"/><path class="cls-3" d="M405.55,197.11c-.02-.22-.09-.49.05-.77l11.27-.03c.12-.51.08-.93,0-1.5l-8.15.05c-.83,0-1.57.28-2.43-.05-.19-.07-.6.14-.72-.08s-.03-.49-.03-.69l.61.33h10.38c.29,0,.54.13.67.24.29.26.22,1.57.08,1.82-.13.22-.49.35-.88.35l-9.59-.03c-.55,0-.9-.08-1.26.36Z"/><path class="cls-3" d="M544.86,126.59c0,.45-.02.89.12,1.46l11.45-.04c.34,1.77.43,3.48.02,5.26h-5.77c-.12.35-.14.54-.23.71-.22-.15-.25-1.03.08-1.04l5.65-.14c.15-1.23.04-2.43.07-3.62,0-.54-.3-.78-.8-.79l-10.53-.07c-.51,0-.49-2.14-.06-1.74Z"/><path class="cls-3" d="M550.66,187.64c.06.62-.21,1.22-.04,1.96h5.15c.22-.01.52-.24.58-.06.05.16.21.36.21.55,0,1.38.02,2.69.11,4.06.01.2-.24.45-.31.57-.09.17-.37-.01-.6-.01h-11.38c.03-.06-.02-.18.03-.24.07-.07.15-.1.31-.1l11.47-.02c.16-1.29.04-2.44.07-3.66.02-.52-.31-.8-.81-.8l-5.03-.02c-.3-.14-.03-2.33-.08-2.13.04-.14.19-.1.32-.1Z"/><path class="cls-3" d="M550.99,180.74c-.42.05-.56,1.54-.35,2.02,1.97-.12,3.87-.1,5.84,0,.18.8.56,4.86-.22,4.95-.32.04-5.22.3-4.99-.08.82-.03,4.92-.07,4.95-.48.08-1.36.08-2.69-.03-4.07l-5.75-.13c-.39-.35-.15-2.82.56-2.2Z"/><path class="cls-3" d="M550.34,174.54c.01-.12-.06-.26.01-.4.06-.12.26-.25.48-.25l5.36-.08.02-4.27c-.87-.32-5.51,0-5.73-.25-.05-.06,0-.16-.03-.22.71.03,5.87-.1,5.97.21.04.12.22.3.24.5.03.34.22,4.42-.3,4.33-1.82.15-3.57.05-5.41.08-.27,0-.41.32-.62.35Z"/><path class="cls-3" d="M550.44,147.11c-.1-.07-.12-.14-.09-.21.04-.1.17-.27.32-.27,1.71,0,3.37.05,5.08-.03.36-.02.51-.25.52-.58v-3.18c.01-.2.08-.35-.02-.44-.12-.11-.27-.23-.48-.23h-5.23c-.1,0-.16-.23-.19-.27-.05-.06.07-.15.11-.21.24.24.61.22,1,.2,1.67-.09,3.26-.02,4.93,0,.5.63.37,4.14.11,4.96-1.66.08-3.24.21-4.87.07-.46-.04-.88-.09-1.18.2Z"/><path class="cls-3" d="M405.66,190.24c-.24-.06-.26-.21-.21-.36.1-.28.26-.28.53-.28h5.16c.25-.51.38-1.35-.01-1.8l-5.52-.03c-.39-.76-.07-1.44-.06-2.05.27-.26-.06,1.43.38,1.72l5.51.09c.48.47.53,1.75.06,2.28-1.05.33-5.35-.29-5.83.44Z"/><path class="cls-3" d="M555.93,153.52c.58.1.26-3.9.26-4.57-1.74-.13-3.36-.05-5.08-.05-.33,0-.66.08-.8-.27-.09-.23-.02-.49.12-.7.11.22.1.47.33.75,1.7-.19,3.31-.11,5-.06s.56,1.3.85,4.59c.02.22-.11.48-.29.49-.12,0-.29-.07-.4-.17Z"/><path class="cls-3" d="M555.91,180.77c.59.13.31-3.81.27-4.44l-5.34-.07c-.37,0-.51-.22-.5-.48.22.06.47.18.78.19l5.12.04c.2,0,.33.41.34.6l.04,3.98c0,.21-.32.38-.46.44-.11.05-.22-.11-.24-.25Z"/><path class="cls-3" d="M551.27,167.12c1.6-.33,3.26-.01,4.98-.16l.02-3.66c0-.36-.12-.64-.34-.81.11-.11.28-.16.4-.15.2.02.31.24.3.47-.06,1.31-.09,2.55-.03,3.86.01.34-.15.61-.53.61h-4.61c-.12,0-.23-.11-.18-.17Z"/><path class="cls-3" d="M555.76,139.94c.78-.1.41-2.12.53-3.71.04-.49-.14-.8-.53-.96.12-.12.27-.28.44-.28.62,0,.36,1.39.39,1.72.07.9.46,3.49-.41,3.45-.15,0-.33-.08-.41-.23Z"/><path class="cls-3" d="M556.07,160.27c.09-.16.2-.37.19-.64l-.02-3.05c.15-.35,0-.62-.18-.84.03-.09.08-.19.14-.22.36-.2.49.94.48,1.07-.11,1.19-.13,2.31-.04,3.51.01.16-.22.35-.3.41-.11.07-.25-.12-.25-.24Z"/><path class="cls-3" d="M551.47,135.29c-.3,0-.57.37-.9-.03-.18-.21-.42-.5-.12-.8.21.15.12.47.33.67.29.01.6-.04.69.16Z"/><path class="cls-3" d="M550.32,155.01c.02-.17-.07-.46.13-.53.02.12.33.22.19.41-.07.1-.21.23-.32.12Z"/><path class="cls-3" d="M405.54,197.92c-.08-.06-.18-.15-.18-.26s.11-.2.19-.26c.16-.05.12.18.11.26,0,.09.03.3-.12.26Z"/><path class="cls-3" d="M550.68,139.92c0,.15-.09.28-.22.34-.04-.07-.21-.16-.13-.26.1-.13.26-.08.35-.08Z"/><path class="cls-1" d="M473.11,221.53l5.7,6.37c.15.17.4.29.34.48-.06.21-.32.4-.6.4l-6.84-.02-5.03-6.18c-.65-.8-1.25-1.48-1.86-2.36-.45-.66-1.99-1.03-2.37-.18-.29,2.7.01,5.39-.13,8.11-.02.36-.22.62-.6.63h-4.49c-.34,0-.63-.26-.63-.64v-20.3c0-.38.28-.65.63-.65h4.65c.29-.01.41.23.42.5l.14,8.12c.41.77,1.89.27,2.41-.39l6.2-7.86c.16-.21.49-.41.75-.4,2.09.1,4.06-.11,6.28.11l-5.59,6.97-2.01,2.49c-.43.53-.57,1.07-.09,1.65.88,1.04,1.74,2.06,2.71,3.15Z"/><path class="cls-1" d="M531.27,228.33c-.66.24-3.56.8-4.17.8l-4.94-.05-3.89-.48c-.84-.1-1.64-.44-2.47-.69-.02-.84-.24-3.86.17-4.23s.56.19,2.15.37c1.03.12,2.01.49,3.05.57l1.95.15c1.33.1,2.63.05,3.98.03,1.16-.02,2.75-.66,2.78-2,.04-1.87-2.28-2.06-3.71-2.24-.61-.07-1.21-.36-1.85-.35-.92.01-1.69-.23-2.55-.48-2.53-.72-3.05-.76-4.87-2.65-.91-.95-.95-2.1-1.04-3.33-.32-4.7,3.71-6.44,7.72-6.73,1.64-.12,3.16-.21,4.79,0,.95.13,1.93.02,2.86.24.62.14,1.14.35,1.84.39.51.03,1.36.26,1.46.86.17,1.04.05,2.08.05,3.15,0,.42-.7.63-1.03.46-.91-.45-1.8-.36-2.71-.54-1.94-.38-8.94-1.27-9.22,1.45-.16,1.59,1.96,1.92,3.08,2.06.59.08,1.19.4,1.83.39,1.16-.02,2.19.22,3.3.5,3.68.9,6.09,2.25,5.93,6.57-.11,3-1.79,4.8-4.49,5.78Z"/><path class="cls-1" d="M502.85,226.99c-.63-1.46-.78-2.99-2.04-2.98l-8.58.02c-.7,0-.91.49-1.11,1.02l-1.09,2.89c-.17.46-.31.86-.9.85l-4.92-.04c-.49,0-.22-.59-.11-.85l7.27-17.5c.22-.54,1.28-3.46,1.63-3.14l7.52-.07c.76.91,1.02,1.97,1.45,3.03l.61,1.48.62,1.45,5.61,13.6c.28.67.71,1.21.6,2h-5.72c-.54-.29-.6-1.24-.84-1.77ZM499.86,219.83c.66.23-.71-2.94-.75-3.06l-.58-1.49-.49-1.28c-.31-.81-.84-2.87-1.63-2.55-.64.26-.65,1.26-.92,1.78-.25.47-1.48,3.82-1.78,4.61-.24.65-.8,1.26-.41,1.99h6.57Z"/><path class="cls-1" d="M447.29,207.8l-.06,13.19c0,1.12-.28,2.05-.65,3.07-.75,2.09-2.37,3.71-4.55,4.4-.73.23-1.61.54-2.4.6-1.83.15-3.61.11-5.43,0-.97-.06-1.96-.36-2.83-.66-2.26-.76-3.82-2.41-4.55-4.71-.23-.71-.59-3.26-.6-4.02l-.02-12.44h5.71s.04,12.75.04,12.75l.29,1.31c.33,1.48.96,2.91,2.42,3.36s2.97.52,4.47-.02c.9-.33,1.84-1.03,2.14-2.03.15-.49.43-1.11.43-1.65l.06-13.71,4.91-.07c.21,0,.61.25.61.62Z"/><path class="cls-1" d="M417.55,160.71c-.13-.03-.18.18-.18.34v1.31c-.56.08-1.15.12-1.79.12l-8.79.03c-.35,0-.65-.06-.91-.11.05-.53-.23-1.2.03-1.77.14-.3.74-.06,1.05-.06h9.74c.12-.02.24-.11.18-.19.33.03.5.03.67.33Z"/><path class="cls-1" d="M411.29,167.13c.07.65.08,1.33-.08,2.07-1.86-.21-3.47-.17-5.32,0-.16-.72-.24-1.48.11-2.05h5.29Z"/><path class="cls-1" d="M411.29,153.55c-.03.66.15,1.3-.08,2.07-1.87-.3-3.62-.16-5.37-.06-.23-.73.11-1.37,0-1.91l5.45-.1Z"/><path class="cls-3" d="M417.36,162.36v-1.31c0-.17.05-.37.19-.34.12.21.42,1.57-.19,1.65Z"/><path class="cls-1" d="M411.16,148.6l-5.09-.12c-.36-.27-.34-1.19-.12-1.61,1.79.08,3.42.2,5.26-.03.19.54.15,1.04-.04,1.76Z"/><path class="cls-1" d="M411.3,175.85l-5.47.02c-.1-.58-.06-1.01.03-1.55h5.32c.29.31.22.83.12,1.53Z"/><rect class="cls-1" x="405.75" y="126.53" width="11.73" height="1.42"/><path class="cls-1" d="M411.17,135h-5.34c-.08-.59-.06-1.09.01-1.67h5.43c.08.56.12,1.04-.1,1.67Z"/><path class="cls-3" d="M520.54,161.42c0,21.83-17.7,39.53-39.54,39.53s-39.54-17.7-39.54-39.53,17.7-39.53,39.54-39.53,39.54,17.7,39.54,39.53ZM520.15,161.42c0-21.62-17.53-39.14-39.15-39.14s-39.15,17.52-39.15,39.14,17.53,39.14,39.15,39.14,39.15-17.52,39.15-39.14Z"/><path class="cls-1" d="M520.15,161.42c0,21.62-17.53,39.14-39.15,39.14s-39.15-17.52-39.15-39.14,17.53-39.14,39.15-39.14,39.15,17.52,39.15,39.14ZM516.04,161.43c0-19.35-15.69-35.03-35.04-35.03s-35.04,15.68-35.04,35.03,15.69,35.03,35.04,35.03,35.04-15.68,35.04-35.03Z"/><path class="cls-1" d="M493.31,90.9c.32-.09.75.07,1.07,0,.18.3.63.1.96.2.49.13.88.47,1.34.43.15-.01.32.06.46.03.1.24.36.36.63.48,1.84.81,2.27,1.9,3.48,3.02.04.1.02.22.05.31.25.76.64,1.46.77,2.32.03.16.18.27.28.27-.03.17.04.44.03.62-.23.59-.23,1.38,0,1.97-.02.16-.06.43-.03.6-.47.32-.6,1.04-.57,1.59,0,.11-.03.23-.04.35-.57-.13-.89,1.63-.61,1.76v.31c-.09.09-.15.21-.1.35.03.08.12.12.22.13.03.1,0,.24.04.34.35.78,1.15,1.29,2.13,1.46l-4.01,10.09-1.18,3c-.14.35-.23.6-.57.68-.01,0-1.77-.77-2.28-.94l-1.66-.55c-.75-.25-1.4-.48-2.12-.63l-2.36-.51c-1.07-.23-2.13-.2-3.2-.53-.88-.27-5.42-.2-6.7-.21-1.85-.01-3.64.06-5.31.64-.09.03-.23.03-.33.02-.26-.02-.55-.05-.87.03l-2.74.67c-.69.17-1.34.31-2.02.55l-3.23,1.15c-.19.07-.68.59-.83.21l-3.23-8.13-.58-1.44-1.57-4.01c.61-.35,1.32-.57,1.79-1.07.81-.86.77-1.98.22-2.97-.66-1.18-1.25-3.73-.92-4.98l.5-1.88c.9-3.38,4.5-5.41,7.88-5.73.17-.02.51-.06.68-.01l2.74.77,1.38.57c1.1.45,3.96,1.29,5.12,1.03.16-.89.83-1.43,1.41-2.19-2.23-.97-2.47-3.69-1.63-5.21.41-.75,1.91-2.06,2.26-3.37.08-.28.51-1.02.07-1.13-.92-.22-1.71.52-2.62.89-.13-.75-.32-3.03.19-3.2.34-.11,1.45,1.02,2.38.69.68-.25-.46-2.11-.78-2.41-.97-.9,3.09-.44,3.4-.5.08.46-.24.74-.48,1.07-.16.22-.67,1.6-.54,1.77.44.56,2.07-.46,2.88-.92.33,1.15.24,2.31.15,3.44-.05.55-2.35-1.58-3.03-.73.12,2.95,3.63,3.83,2.92,7-.22.97-.89,1.95-1.96,2.53.21.57.62.75.89,1.19.17.27.11.93.52,1.03,1.93.48,5.46-1.31,6.53-1.6l2.71-.73ZM471.43,107.57c-.21,0-1.62.66-1.18,1.89.62,1.72,1.94,2.78,3.67,3.21,2.36.58,4.23-.72,5.54-2.58.3-.43.6-1.13.23-1.52-2.46.12-3.9,2.39-4.27,2.39-.07,0-.27-.05-.27-.2.08-2.19-.13-4.27.12-6.6,1.17,1.13,2.11,1.93,3.49,2.36.22.07.55.31.76.21.13-.06.45-.2.39-.43-.27-.99-.79-1.86-1.64-2.5-.29-1.86-.25-4.66-.17-6.61.02-.45.25-1.13-.23-1.47-.29-.2-.99-.45-1.37-.43-1.43.09-4.49-1.14-5.79-1.62l-1.4-.51c-.94-.34-1.87-.02-2.72.21-3.39.92-5.62,4.85-4.57,7.68l.65,1.75c.76,2.05.51,4.26-1.2,5.65-.02.75.37,1.32.61,1.96l.48,1.29c.19.52.44.94.63,1.43.27.73.39,1.51.99,2.13,1.8-.22,3.24-1.47,3.9-3.13.46-1.16.59-2.5-.52-3.31-.39-.28-1.07-.03-1.3.28-.29.41-.16.83.17,1.32-1.07.31-1.72-.36-2.05-1.13-.35-.81-.07-1.65.67-2.28.52-.45,1.39-.27,2.02-.14.23-.39-.08-.74-.15-1.12-.12-.62-.35-3.22.42-3.56,1.33-.59,2.3,1.92,2.32,3.24,0,.25-.04.42.15.54.13.08.3.22.5.07.75-.57,1.91-.81,2.69-.13s.7,1.9.18,2.68c-.16.23-.44.33-.61.24-.3-.15-.26-1.25-1.15-1.25ZM491.36,105.82c.33.2.39.61.67.36.69-.6-.2-.73.73-2.5.27-.52.71-1.66,1.44-1.6.23.02.72.08.79.45.26,1.38.04,2.77-.08,4.17l1.67.08c1,.05,1.36,1.3,1.16,2.26-.16.74-1.19,1.68-2,1.35-.05-.46.31-1.43-.34-1.65-.43-.14-1.15.08-1.35.46-1.42,2.64,1.29,5.83,3.56,5.97.57.03.79-.86.94-1.22l2.14-5.3c-.53-.62-1.22-1.18-1.49-1.98-.96-2.84.6-4.41.92-5.86.26-1.18.04-3.01-.56-4.02-.41-.69-.84-1.49-1.42-1.96-1.51-1.2-3.71-2.24-5.56-1.59s-3,1.19-4.81,1.61c-.98.23-1.86.62-2.95.57-.33-.01-.9.4-.9.78l-.03,7.47c-.77.72-1.34,1.5-1.78,2.44,0,.21.06.64.33.59,1.74-.31,3.04-1.29,4.43-2.68l.04,6.92c-.49-.08-.68-.31-.91-.55-1.04-1.04-2.39-1.88-3.95-1.81.61,2.88,3.64,4.87,6.29,4.05,1.65-.51,3.02-1.56,3.41-3.31.14-.62-.11-1.03-.53-1.42-.3-.27-.56-.44-.97-.3-.8.28-.14,1.41-.69,1.39-.37-.01-1.3-.98-1.18-1.83.06-.43.29-1.05.83-1.39.5-.32,1.64-.29,2.2.04Z"/><path class="cls-3" d="M493.31,90.9l-2.71.73c-1.08.29-4.6,2.08-6.53,1.6-.41-.1-.35-.75-.52-1.03-.26-.44-.67-.61-.89-1.19,1.07-.58,1.74-1.56,1.96-2.53.72-3.17-2.8-4.04-2.92-7,.69-.85,2.99,1.28,3.03.73.09-1.14.18-2.29-.15-3.44-.82.45-2.44,1.48-2.88.92-.13-.17.38-1.55.54-1.77.24-.33.55-.61.48-1.07-.31.05-4.37-.4-3.4.5.32.3,1.46,2.16.78,2.41-.93.33-2.03-.8-2.38-.69-.51.17-.31,2.45-.19,3.2.91-.37,1.7-1.1,2.62-.89.44.1,0,.84-.07,1.13-.35,1.3-1.85,2.62-2.26,3.37-.84,1.52-.6,4.24,1.63,5.21-.58.76-1.25,1.3-1.41,2.19-1.16.25-4.02-.58-5.12-1.03l-1.38-.57-2.74-.77c.54-.31,1.19-.04,1.92-.16-.18-.96-.8-1.47-.09-2.34.13-.16.13-.43.36-.46.17-.02.36-.02.51.09-.53.34-.81.78-.81,1.39s.38,1.29,1.21,1.28c.5,0,1.16-.68,1.39-1.13s-.14-.88-.33-1.15c-.27-.36-.73-.34-1.12-.4.1-.36.54-.14.76-.14.26,0,1.2.98,1.11,1.45-.2,1.05-1.12,1.7-2.28,1.73-.1.38,4.09,1.91,3.89,1.27-1.01-.28-1.31-.72-1.33-1.57-.01-.7.17-1.32.79-1.61.99-.46,2.63.71,2.18,1.13-.39-.44-1.07-1-1.74-.91-.96.13-1.16,1.17-.86,1.84.35.76,1.39,1.12,1.94.49l.66-.76c.42,1.09-1.73,1.33-1.08,1.77.36.24,1.27.35,1.93.37.15-.82.61-1.32,1.13-1.96-.92.08-1.92-2.45-2.03-2.96-.16-.73.46-2.35.64-2.57.5-.62,2.84-3.13,1.98-3.62-.76-.44-1.88,1.16-2.62.67-.1-.61-.18-3.78.09-4.09.54-.65,2.27,1.56,2.81.75-.11-1.54-.95-1.4-1.04-2.58,1.47-.21,2.98-.32,4.39.04.54.14-1.54,2.2-.87,2.66.11.07.42.12.54-.03.35-.39.84-.43,1.23-.71.27-.19.42-.44.72-.29.4.2.44,4.17,0,4.42-.62.34-1.09-1.17-2.45-.99-.44.21.05.92.2,1.23,1,2.08,3.06,2.35,2.43,5.86-.07.36-.43.76-.66,1.06l-1.11,1.46c.6.26.65,1.04,1.01,1.35.66.55,1.59,0,2.23-.1.92-.12,1.59-.39,2.39-.74-.06.03,2.38-.81,2.49-.87.62-.35,1.43-.45,2-.15ZM471.19,90.98s-.04-.08-.08-.08-.08.04-.08.08.04.08.08.08.08-.04.08-.08Z"/><path class="cls-3" d="M468.13,90.9c-3.39.31-6.99,2.35-7.88,5.73l-.5,1.88c-.33,1.25.27,3.8.92,4.98.55.99.59,2.11-.22,2.97-.47.5-1.19.72-1.79,1.07l1.57,4.01.58,1.44,3.23,8.13c.15.38.64-.14.83-.21l3.23-1.15c.69-.24,1.33-.38,2.02-.55l2.74-.67c.32-.08.62-.05.87-.03-.22.44-.97.63-1.5.61-.88-.02-1.49.42-2.24.6s-2.86.52-3.58,1.14c-.26.22-.91-.09-1.21.27-.24.3-.73.47-1.09.41-.28-.05-.72-.45-.75-.8-.06-.64-.3-1-.53-1.56l-.56-1.35c-.02-.06-1.9-4.87-1.75-4.28-.14-.55-.27-1-.49-1.49l-.63-1.42c-.22-.5-.22-.94-.57-1.42-.23-.31-.03-.86-.51-1.16-.2-.13-.24-.72.02-.81.64-.24,1.18-.47,1.68-.93-.47-.28-.74.06-1.13.18-.83.25-1.82-.53-1.89-1.25-.09-.99.42-1.75,1.4-1.97.66-.15,1.38.12,1.53.76-.3-.07-.57-.27-.93-.33-.71-.12-1.33.16-1.56.78-.22.58.06,1.42.79,1.6.5.12,1.29,0,1.61-.4s.05-.97.16-1.36c.11-.03.42.07.49-.08.13-.6-.36-.9-.53-1.29-.2-.46,0-1.06-.74-1.38-.22.85-.64,1.14-1.3,1.31-1.03.26-1.82-.32-2.03-1.23-.22-1.01.49-1.86,1.49-1.93s1.44.36,1.88,1.33l.09-2.83-.68.34c.14-.53.39-1.24.02-1.8s-1.37-.58-1.91-.26c-.63.37-.63,1.14-.38,1.68s.92.85,1.59.65c.26-.08.49-.18.68-.27-.08.32-.21.52-.65.61-.85.17-1.81-.25-2.06-1.11-.21-.73,0-1.61.83-2.06.73-.41,1.93.04,2.3.82.12.25.04.5.31.5.52,0,.38-1,.65-1.39.23-.34.68-.66.21-1.15-.6.91-1.71,1.04-2.53.52-.22-.19-.57-.71-.61-1.07-.06-.61.45-1.38.93-1.69.65-.42,1.44-.07,1.93.32.55.44.58,1.06.69,1.84l1.36-1.56c.21-.24.57-.32.49-.66.3.07.54-.09.79-.32.77-.72,4.79-2.18,4.8-1.28ZM460.08,94.47c.36-.84-.32-1.67-1.07-1.75-.64-.07-1.12.35-1.29.82-.19.51-.24,1.2.31,1.56.61.4,1.73.14,2.05-.63ZM456.58,102.25c.46.63,1.5.45,1.97-.03s.39-1.29-.01-1.8c-.46-.58-1.25-.65-1.82-.11-.3.29-.6.56-.6.92,0,.33.17.63.45,1.02Z"/><path class="cls-3" d="M474.06,118.47c1.67-.58,3.46-.66,5.31-.64,1.28,0,5.82-.06,6.7.21,1.07.34,2.12.3,3.2.53l2.36.51c.72.15,1.37.39,2.12.63l1.66.55c.51.17,2.27.95,2.28.94.34-.09.43-.33.57-.68l1.18-3,4.01-10.09c-.99-.17-1.78-.68-2.13-1.46.48.4,1.99,1.25,2.2,1.44s.08.81-.06,1.02c-.12.18-.96,2.36-1.13,2.76l-.51,1.25-.65,1.58-.47,1.15-.61,1.62c-.17.45-.41.93-.56,1.36l-.59,1.65c-.17.46-.34.83-.51,1.32-.23.65-1.36.07-1.82-.03l-1.06-.24c-.6-.13-1.09-.44-1.66-.66l-1.48-.56c-1-.38-1.85-.43-2.89-.52-.98-.09-1.89-.76-2.95-.36-.02-.37-3.97-.65-3.68-.69-2.21.26-2.82-.2-5.77.26-1.04.16-2.1.55-3.06.14Z"/><path class="cls-1" d="M464.54,90.9c-1.09-.01-1.86-1.36-1.51-2.08.43-.88,1.25-1.21,2.17-.92.75.24,1.24,1.44.83,2.11s-.83.91-1.49.9Z"/><path class="cls-1" d="M505.73,98.51c-.12.34-.78.6-1.07.65-.89.15-1.5-.5-1.68-1.18-.21-.79.08-1.59.93-1.88.62-.22,1.62,0,1.87.65.19.48.14,1.22-.06,1.77Z"/><path class="cls-1" d="M505.7,100.47c.3.35.21,1.17.05,1.65-.22.64-1.01.78-1.61.73-.56-.05-1.1-.57-1.2-1.22-.12-.76.18-1.47.83-1.74s1.36-.11,1.93.57Z"/><path class="cls-1" d="M494.86,87.54c.32.23.39.93.4,1.27.02.73-.63,1.29-1.12,1.41-.82.2-1.53-.22-1.81-.82-.33-.72-.18-1.52.55-1.98.47-.3,1.41-.28,1.97.12Z"/><path class="cls-1" d="M466.95,89.45c-.41-.56-.24-1.2.09-1.65.38-.52.88-.65,1.6-.55s1.16.73,1.23,1.36c.07.71-.42,1.27-.97,1.52-.77.36-1.44.02-1.95-.68Z"/><path class="cls-1" d="M491.2,90.34c-.37.32-.6.57-1.04.57-.58,0-1.38-.74-1.69-1.18-.25-.35.06-.6.15-.94.18-.72.62-.95,1.31-.95s1.05.16,1.43.67c.44.6.49,1.27-.15,1.83Z"/><path class="cls-1" d="M462.53,92.5c-.58-.14-1.55.68-2.47-.5-.41-.53-.34-1.45.12-1.91.51-.5,1.33-.66,1.92-.28,1.5.97.36,2.39.42,2.69Z"/><path class="cls-1" d="M498.6,90.03c-.45.52-.93.89-1.5.69-.62-.21-1.06-.68-.96-1.42.05-.37-.03-.72.27-.97.57-.46,1.74-.57,2.21.21.26.43.43.95-.03,1.48Z"/><path class="cls-1" d="M503.65,95.34c-.6.21-1.22-.14-1.57-.5-.39-.4-.46-1.2-.09-1.62.41-.47,1.03-.7,1.59-.5.43.16.91.68.96,1.16.06.58-.28,1.25-.89,1.46Z"/><path class="cls-1" d="M502.4,105.89c-.41-.33-.52-.71-.5-1.13s.16-.76.59-.98c.66-.34,1.33-.32,1.85.19.47.46.47,1.34-.03,1.86s-1.22.62-1.9.07Z"/><path class="cls-1" d="M471.84,87.99c.39.06.85.04,1.12.4.2.27.57.69.33,1.15s-.9,1.12-1.39,1.13c-.82.02-1.21-.65-1.21-1.28s.28-1.05.81-1.39c.11,0,.23-.03.33-.01Z"/><path class="cls-1" d="M476.95,90.26c.04.18-.07.48,0,.65l-.66.76c-.55.63-1.59.27-1.94-.49-.31-.67-.1-1.71.86-1.84.68-.09,1.35.47,1.74.91Z"/><path class="cls-1" d="M486.84,91.88c-.73.08-1.22.05-1.53-.45-.63-1.03.37-1.96.77-2.08.33-.11.62.1.99.23.57.19.67.69.64,1.25-.02.42-.26,1-.87,1.06Z"/><path class="cls-1" d="M459.94,104.04c.02.08.09.22.07.3-.11.39.15.97-.16,1.36s-1.11.52-1.61.4c-.73-.18-1.01-1.03-.79-1.6.24-.62.86-.9,1.56-.78.36.06.63.26.93.33Z"/><path class="cls-3" d="M502.22,91.9c-.47.68-1.17,1.01-1.89.81-.62-.18-1.29-.83-1.26-1.55.03-.68.53-1.49,1.24-1.59.82-.11,1.28.07,1.73.55.42.45.6,1.2.19,1.79ZM500.11,92.29c.7.39,1.34-.01,1.62-.42.39-.56.29-1.18-.14-1.65-.39-.42-1.06-.59-1.62-.13-.63.51-.63,1.77.14,2.2Z"/><path class="cls-3" d="M501.26,95.05c-1.21-1.12-1.64-2.21-3.48-3.02-.28-.12-.53-.24-.63-.48.57-.14,1.12.43,1.66.75,1.13.67,2.01,1.6,2.46,2.76Z"/><path class="cls-3" d="M502.37,97.95c-.1,0-.25-.11-.28-.27-.14-.86-.53-1.56-.77-2.32.51-.13,1.19,1.91,1.05,2.59Z"/><path class="cls-3" d="M496.69,91.51c-.46.04-.85-.29-1.34-.43-.34-.09-.79.1-.96-.2.29-.53,2.6.36,2.31.62Z"/><path class="cls-3" d="M501.76,103.08c-.01.42-.46.72-.4,1.21.02.15.13.3.1.45-.02.11-.18.16-.31.1-.29-.13.03-1.88.61-1.76Z"/><path class="cls-3" d="M502.37,101.14c.08.58-.08,1.25-.57,1.59-.03-.55.1-1.27.57-1.59Z"/><path class="cls-3" d="M502.41,100.54c-.24-.59-.23-1.38,0-1.97.31.55.31,1.41,0,1.97Z"/><path class="cls-3" d="M501.27,105.63c-.09,0-.19-.05-.22-.13-.05-.14.01-.26.1-.35.16-.07.36.02.28.21-.03.07-.09.17-.16.26Z"/><path class="cls-3" d="M471.43,107.57c.88,0,.85,1.11,1.15,1.25.17.08.46-.01.61-.24.52-.77.58-2.02-.18-2.68s-1.94-.44-2.69.13c-.2.15-.37.01-.5-.07-.19-.12-.14-.29-.15-.54-.02-1.32-.99-3.83-2.32-3.24-.78.34-.54,2.94-.42,3.56.07.38.38.73.15,1.12-.63-.13-1.5-.31-2.02.14-.74.63-1.02,1.47-.67,2.28.33.77.99,1.44,2.05,1.13-.32-.49-.46-.91-.17-1.32.22-.31.91-.56,1.3-.28,1.11.81.98,2.16.52,3.31-.67,1.66-2.1,2.91-3.9,3.13-.6-.62-.72-1.41-.99-2.13-.19-.49-.43-.91-.63-1.43l-.48-1.29c-.24-.65-.63-1.21-.61-1.96,1.72-1.39,1.97-3.59,1.2-5.65l-.65-1.75c-1.05-2.82,1.18-6.76,4.57-7.68.85-.23,1.78-.55,2.72-.21l1.4.51c1.3.48,4.36,1.71,5.79,1.62.38-.03,1.09.23,1.37.43.48.34.24,1.02.23,1.47-.08,1.96-.12,4.75.17,6.61.85.64,1.37,1.51,1.64,2.5.06.23-.26.37-.39.43-.21.1-.55-.14-.76-.21-1.38-.43-2.32-1.23-3.49-2.36-.25,2.33-.03,4.4-.12,6.6,0,.15.2.2.27.2.37,0,1.81-2.27,4.27-2.39.37.39.07,1.09-.23,1.52-1.32,1.86-3.19,3.16-5.54,2.58-1.73-.43-3.05-1.49-3.67-3.21-.44-1.22.97-1.89,1.18-1.89ZM470.72,105.37c1.24-.56,2.58-.2,3.05,1.03.29.76.24,1.5-.18,2.23-.26.45-1.07,1.01-1.69.94-.31-.14-.15-.76-.13-1.02.03-.39-.15-.65-.5-.6-.22.03-.71.85-.7.91.26,1.32.82,2.09,1.94,2.88.56.39,1.05.38,1.69.48.58.1.93.18,1.53-.01.47-.15.92,0,1.41-.3.87-.54,1.77-1.31,2.14-2.27.06-.15.58-.45.21-.59-.54-.22-1.09.23-1.54.45-2.06.99-1.95,2-2.92,2.31-.22.07-.45-.34-.45-.55l.05-7.63c0-.21.48-.26.6-.17.99.76,1.27,1.88,3.76,2.73.14.05.22.28.32.27.19,0,.33-.11.3-.26.04.21-.88-1.51-.81-1.43-.37-.42-1.08-.77-1.08-1.4l-.08-7.2c0-.3-.66-.09-.82-.22-.63-.51-1.64-.3-2.38-.54l-1.93-.61c-1.97-.62-2.74-1.5-5.48-1.09-.62.09-1.02.31-1.54.55-1.31.61-2.14,1.64-2.79,2.91-.37.73-.3,1.54-.36,2.38-.2,2.72,2.06,3.88,1.13,6.75-.44,1.35-1.6,2.06-1.63,2.62-.02.31.42.53.44.8.06.63.48,1.06.6,1.54.16.64.27,1.01.66,1.54,0,0,.81,2.65.93,2.12,2-1.19.2.28,2.3-1.4,1.25-1,1.41-3.1.84-4.31-.19-.41-1.11.02-1.11.42,0,.29.41.3.51.4-.11.63-.48.66-.9.72-.92.14-1.38-.21-1.85-.88-.57-.83-.65-1.7-.01-2.53,1.28-1.67,2.02-.34,2.35-.97s-.71-2.01.17-4.09c.12-.28.58-.82.91-.73,2.57.69,1.87,3.64,3.06,3.83Z"/><path class="cls-3" d="M491.36,105.82c-.55-.33-1.69-.36-2.2-.04-.54.34-.77.96-.83,1.39-.11.86.81,1.82,1.18,1.83.55.02-.11-1.11.69-1.39.4-.14.67.03.97.3.42.39.67.8.53,1.42-.39,1.74-1.76,2.79-3.41,3.31-2.65.82-5.68-1.17-6.29-4.05,1.56-.07,2.91.77,3.95,1.81.24.24.43.47.91.55l-.04-6.92c-1.38,1.4-2.68,2.37-4.43,2.68-.26.05-.33-.38-.33-.59.44-.94,1.01-1.72,1.78-2.44l.03-7.47c0-.38.57-.79.9-.78,1.09.05,1.97-.34,2.95-.57,1.81-.43,3-.98,4.81-1.61s4.05.39,5.56,1.59c.59.47,1.01,1.27,1.42,1.96.6,1.01.81,2.84.56,4.02-.31,1.45-1.88,3.02-.92,5.86.27.8.96,1.36,1.49,1.98l-2.14,5.3c-.15.37-.37,1.26-.94,1.22-2.27-.14-4.98-3.33-3.56-5.97.2-.37.93-.6,1.35-.46.66.22.3,1.19.34,1.65.82.33,1.85-.61,2-1.35.2-.96-.15-2.21-1.16-2.26l-1.67-.08c.12-1.39.35-2.79.08-4.17-.07-.37-.57-.43-.79-.45-.73-.06-1.17,1.07-1.44,1.6-.93,1.77-.04,1.9-.73,2.5-.28.25-.34-.17-.67-.36ZM491.82,105.53c.42-.7.07-1.28.34-1.74l.58-.99c.31-.53.92-.88,1.38-1.35,1.17.31,1.67,1.43,1.53,2.59-.07.58.17,1.2-.22,1.69-.16.19-.34.47-.22.65.37.52,1.4-.45,2.38.65.45.51.5.93.43,1.68-.05.6-.01,1.09-.4,1.5-.81.85-2.69.67-2.42.03.12-.3.54-1.09-.03-1.17-.94-.14-1.24.94-1.19,1.68.05.81.11,1.21.57,1.8.52.66.99,1.76,2.48,2.07.16.03.29.41.52.34.34-.11.91-1.86.87-1.81.36-.48.36-.91.55-1.43.17-.48,1.36-2.5.94-3.22-.33-.57-.94-1.1-1.17-2.04-.19-.76-.74-1.65-.28-2.45.24-.42.28-1.05.51-1.39.37-.53.44-.96.58-1.56.17-.7.4-1.19.26-1.9-.28-1.37-.54-2.72-1.7-3.8-.6-.57-1.46-1.21-2.32-1.49-1.11-.36-2.97-.31-4.16.13l-1.3.48c-1.58.58-2.38.86-4.04,1.11-.59.09-1.11.53-1.86.42l-.02,7.73c-.38.36-2.36,2.09-1.46,2.34.6.16,1.38-.43,2.06-.86.76-.47,1.79-2.11,2.15-1.53.05.08.14.22.14.39l.02,7.01c0,.29-.18.59-.36.62-.79.13-.56-1.13-3.28-2.35-.21-.09-.56-.41-.86-.21-.57.39,1.35,2.67,2.33,2.93,1.28.34,2.67.25,3.94-.06.43-.11,1.43-1.17,1.74-1.49.19-.2.04-.63.3-.81.28-.2.37-.48.38-.78,0-.22-.77-1.16-1.11-1.03-.7.27.07,1.8-.65,1.65-.52-.11-1.34-.74-1.56-1.27-.24-.57-.12-1.48-.04-2.01,1.03-1.4,2.14-1.21,3.69-.73Z"/><circle class="cls-13" cx="471.11" cy="90.98" r=".08"/><path class="cls-1" d="M456.58,102.25c-.28-.39-.45-.69-.45-1.02,0-.37.29-.64.6-.92.57-.53,1.36-.47,1.82.11.41.52.51,1.31.01,1.8s-1.51.66-1.97.03Z"/><path class="cls-1" d="M458.68,98.59c-.19.09-.42.19-.68.27-.67.2-1.33-.08-1.59-.65s-.25-1.31.38-1.68c.54-.32,1.54-.3,1.91.26s.11,1.27-.02,1.8Z"/><path class="cls-1" d="M460.08,94.47c-.33.77-1.44,1.03-2.05.63-.55-.36-.51-1.05-.31-1.56.17-.46.66-.89,1.29-.82.76.08,1.43.9,1.07,1.75Z"/><path class="cls-1" d="M500.11,92.29c-.77-.43-.77-1.69-.14-2.2.56-.46,1.23-.29,1.62.13.43.46.53,1.09.14,1.65-.28.41-.92.82-1.62.42Z"/><path class="cls-1" d="M473.55,185.59c-.24.42-.36.84-.9.74-4.29-5.89-9.54-10.87-15.54-15.1v-10.96c.48-.28.99.08,1.41.35,4.27,2.11,8.26,4.56,12.04,7.47.27.21.75.59,1.05.24l3.45-3.94c3.97-4.53,11.44-11.12,16.44-14.58l1.43-.99c3.12-2.17,6.32-4.09,9.71-5.8.2-.1.29-.3.49-.26.12.03.4.1.4.36v8.95c-3.72,2.59-7.19,5.29-10.41,8.47l-5.08,5.02-3.43,3.93c-.9,1.02-1.64,2.1-2.49,3.14l-1.22,1.5c-2.36,2.91-4.34,6.06-6.18,9.34l-1.18,2.11Z"/><text class="cls-2" transform="translate(421.52 248.09)"><tspan class="cls-9" x="0" y="0">M</tspan><tspan x="15.67" y="0">AN</tspan><tspan class="cls-7" x="40.73" y="0">A</tspan><tspan x="52.51" y="0">GEMENT</tspan><tspan x="24.17" y="16.22">S</tspan><tspan class="cls-8" x="33.9" y="16.22">Y</tspan><tspan x="44.32" y="16.22">STEMS</tspan></text><path class="cls-1" d="M292.5,297.47c-1.73,1.75-4.91,1.92-6.76.56-1.67-1.23-2.74-3.55-2.97-5.65l-.31-2.87.31-2.56c.16-1.3.47-2.29,1.02-3.44.32-.68.76-1.12,1.25-1.66.93-1.01,2.03-1.67,3.51-1.6.87.04,1.87-.07,2.68.36,1.07.58,2.6,2.14,2.93,3.23l.45,1.47c.23.73.17,1.53.32,2.26.27,1.31.08,2.55.03,3.84-.09,2.24-.9,4.47-2.46,6.05ZM287.36,296.24c.91.7,2.03.7,2.91-.04,1.34-1.13,1.73-2.8,1.87-4.54.19-2.38.25-5.74-.98-7.82-.63-1.07-1.81-1.76-3.1-1.3-1.48.52-2.14,2.17-2.41,3.63-.33,1.73-.55,2.68-.39,4.48s.53,4.37,2.11,5.59Z"/><path class="cls-1" d="M319.71,298.13c-.01.85-2,.44-2.76.41l-.08-4.03c0-.16-.12-.68-.33-.68h-6.89c-.45-.01-.96-.18-1.06-.61-.2-.91.19-1.51.67-2.2l7.03-10.09c.21-.3.54-.51.89-.51h1.76c.46-.01.76.3.77.77l.03,10.36,2.07.07c.26.64.21,1.41.01,2.1l-2.06.15-.07,4.26ZM316.46,291.74c.41,0,.61-.27.61-.61l-.05-6.74c0-.2-.4-.14-.53-.13-.03,0-.63,1.21-1.1,1.85l-3.62,5.03c-.1.13,0,.38.06.46s.21.16.4.16l4.23-.02Z"/><path class="cls-1" d="M336.49,298.62l-11.4-.05c-.78-.62-.17-2,.51-2.56,1.52-1.25,2.73-2.57,4.1-3.93,2.21-2.2,4.4-4.81,3.21-8.01-.6-1.61-3.14-1.42-4.5-1.14-.7.14-1.68,1.15-2.28.95-.2-.07-1.08-1.63-.62-1.98,2.45-1.92,6.76-2.41,8.97-.33.52.48,1.01.9,1.17,1.69.07.32.46.6.43,1-.16,2.26.48,2.01-.67,4.43-.75,1.58-1.81,2.82-2.95,4.08-.87.96-1.74,2.06-2.82,2.73-.21.13-.69.64-.38.73l7,.09c.38,0,.41.53.39.8l-.15,1.52Z"/><path class="cls-3" d="M301.96,283.36l-1.8,1c-.29.16-.9.62-1.28.21-.31-.34-.32-1.14-.37-1.57-.09-.83.58-.78,1.02-1.03l2.25-1.29c.73-.42,3.18-.52,3.19.38l.02,17.45c-.62.3-2.55.25-2.75.1-.16-.11-.22-.33-.23-.62l-.05-14.64ZM302.3,285.04l-.03,13.12c.69.17,1.29.1,1.98.03l.06-1.81v-15.38c-1.45-.77-3.84.9-5.28,1.76-.37.22-.15,1.14.1,1.41.3.31.67-.13.89-.22,1.21-.51,1.53-1.15,1.94-.89.32.21.34,1.36.34,1.98Z"/><path class="cls-1" d="M302.3,285.04c0-.62-.01-1.78-.34-1.98-.41-.26-.73.38-1.94.89-.22.09-.59.53-.89.22-.25-.27-.47-1.19-.1-1.41,1.43-.86,3.83-2.53,5.27-1.76v15.38s-.06,1.81-.06,1.81c-.69.08-1.29.14-1.98-.03l.03-13.12Z"/><path class="cls-1" d="M389.12,68.52v204.17s-159.36,0-159.36,0V68.52s159.36,0,159.36,0ZM234.58,139.93l5.11-.02c.24.52.42,1.4,0,1.89-1.63.04-3.37.08-4.94-.04-.24-.02-.41-.31-.59-.2s-.25.33-.25.58v2.25c0,1.2-.07,2.33-.05,3.52l.07,3.21-.06,3.52.06,3.36-.07,3.05.02,7.2.06,3.36-.06,3.36c-.02,1.14.03,2.22.03,3.37v2.24c.01.21.17.33.23.44.13.24.33-.05.52-.04,1.66.09,3.28.09,5.04.02.24.54.27,1.09.12,1.66l-5.69.07c-.09.12-.02.33-.02.43l-.02,2.53c0,.62-.33,1.29.06,2.05l5.52.03c.39.45.26,1.29.01,1.79h-5.16c-.27.01-.43.01-.53.3-.05.14-.03.3.21.36-.21,1.25-.08,2.53-.11,3.8,0,.2-.08.48.03.69.11.22.52,0,.72.08.86.33,1.6.06,2.43.05l8.15-.05c.09.57.13.99,0,1.5l-11.27.03c-.14.28-.07.55-.05.77,0,.09,0,.19,0,.29-.08.06-.19.15-.19.26s.1.2.18.26v67.55c-.14-.03-.19.15-.19.34l.04,1.75c0,.34.14,1.12.66,1.12h149.81c.6-.16.71-.4.71-.99v-69.12c.01-.87.34-1.52-.26-2.23l-12.05-.03c0-.54-.18-1.14.12-1.61h11.38c.23.01.5.19.6.02.07-.12.32-.38.31-.57-.08-1.36-.11-2.67-.11-4.06,0-.18-.15-.39-.21-.55-.06-.18-.37.05-.58.05h-5.15c-.17-.73.09-1.32.04-1.95l.61-.02c-.23.39,4.67.12,4.99.08.78-.09.4-4.14.22-4.95-1.97-.09-3.87-.12-5.84,0-.21-.48-.07-1.96.35-2.02l4.92.03c.02.14.14.3.24.25.13-.06.46-.23.46-.44l-.04-3.98c0-.19-.13-.6-.34-.6l-5.12-.04c-.31,0-.56-.12-.78-.19.01-.41-.03-.82,0-1.23.21-.03.34-.34.62-.35,1.84-.03,3.59.07,5.41-.08.52.08.33-4,.3-4.33-.02-.2-.2-.38-.24-.5-.1-.31-5.26-.18-5.97-.21-.28-.55-.11-1.22-.11-1.88.35-.15.64-.01.91-.07-.04.07.07.18.18.18h4.61c.38,0,.54-.28.53-.62-.05-1.32-.03-2.56.03-3.86.01-.23-.09-.45-.3-.47-.12-.01-.29.04-.4.15l-11.66.02c-.05-.68-.11-1.27,0-1.92.04-.26.56-.32.82-.32h10.99c0,.13.14.32.25.25.08-.05.32-.25.3-.41-.09-1.21-.07-2.32.04-3.51.01-.14-.12-1.27-.48-1.07-.07.04-.11.13-.14.22-.77,0-5.39.22-5.68-.24-.07-.12-.06-.33-.05-.49.11.11.24-.02.32-.12.14-.19-.17-.3-.19-.41-.04-.23-.03-.6.08-.93l5.41-.03c.11.11.28.17.4.17.19,0,.31-.27.29-.49-.29-3.29.8-4.54-.85-4.59s-3.3-.13-5,.06c-.22-.28-.22-.53-.33-.75.07-.25-.04-.56,0-.82.3-.29.72-.24,1.18-.2,1.64.15,3.21.01,4.87-.07.26-.83.4-4.33-.11-4.96-1.67-.02-3.27-.1-4.93,0-.4.02-.76.05-1-.2v-1.42c.14-.06.23-.19.23-.34l5.08.02c.08.16.26.23.41.23.87.03.48-2.56.41-3.45-.02-.33.23-1.72-.39-1.72-.17,0-.32.16-.44.28l-4.29.02c-.09-.21-.4-.15-.69-.16-.21-.21-.12-.52-.33-.67v-.47c.08-.17.1-.36.22-.71h5.77c.41-1.78.32-3.49-.02-5.27l-11.45.04c-.13-.57-.11-1.01-.12-1.46,0-.03.02-.09,0-.12l11.56.04c.27-.8.28-1.45.28-2.34v-50.99c0-.24-.21-.32-.3-.43-.08-.1-.21,0-.31.05h-150.27c-.05-.09-.15-.16-.22-.15-.09,0-.25.15-.25.36v51.32s-.02,2.93-.02,2.93l.05,3.36-.07,3.52c-.02,1.03.06,2.01.06,3.05v3.03c.45-.01.59-.11.66-.29Z"/><path class="cls-3" d="M234.09,265.47l.19,2.23c.04.44.31.67.79.67h149.03c.53,0,.7-.38.7-.84v-70.37c0-.27-.32-.42-.48-.4-1.05.11-2.01-.12-3.05-.12h-7.81c-.2,0-.37.22-.52.05-.08-.09-.14-.23-.14-.38l12.05.03c.6.72.28,1.37.28,2.23v69.12c-.01.6-.12.83-.72,1h-149.81c-.52,0-.65-.79-.66-1.13l-.04-1.75c0-.19.05-.37.19-.34Z"/><path class="cls-3" d="M234.4,153.65c.11.54-.23,1.18,0,1.91,1.75-.1,3.5-.24,5.37.06.24-.77.05-1.41.08-2.07.76-.01.49,1.39.36,2.16l-5.9.12c-.16,1.35-.06,2.63-.08,3.94,0,.32.18.46.48.47,3.63.12,7.2-.16,10.72.13.06.08-.05.17-.18.2h-9.74c-.31,0-.91-.25-1.05.05-.26.57.02,1.24-.03,1.77-.03.32-.27.64-.24,1.06.07,1.17-.19,3.53.36,3.68-.35.57-.27,1.34-.11,2.05,1.86-.17,3.46-.21,5.32,0,.15-.74.14-1.42.08-2.07.77,0,.46,1.35.38,2.22l-5.36.06c-.2,0-.54.12-.56.36-.13,1.32-.14,2.64.04,4.05l5.15.06c.32,0,.64.15.73.33s.24,1.51-.08,1.82c-.16.16-.46.24-.79.24l-5,.05c-.19,1.32-.15,2.53-.08,3.78.02.35.29.59.62.61,1.64.13,3.23,0,4.86-.03.69,0,.71,1.77.41,2.07-.12.12-.38.23-.66.23h-3.82c-.58,0-1.08.02-1.56.19,0-.09-.07-.31.02-.43l5.69-.07c.15-.57.13-1.12-.12-1.66-1.76.07-3.37.07-5.04-.02-.18-.01-.39.28-.52.04-.06-.11-.22-.24-.22-.44v-2.24c-.01-1.15-.06-2.23-.04-3.37l.06-3.36-.06-3.36-.02-7.2.07-3.05-.06-3.36.06-3.52-.07-3.21c-.03-1.19.04-2.32.04-3.52v-2.25c0-.26.08-.48.26-.58s.35.18.59.2c1.57.12,3.31.08,4.94.04.41-.49.24-1.37,0-1.89.18,0,.34-.02.45.1.35.4.31,2.09-.45,2.1l-5.38.09c-.14,1.34-.12,2.62-.03,3.92.02.28.32.5.59.5h4.63c.3,0,.52.08.67.23.28.28.28,1.94-.21,1.95l-5.52.1c-.37,1.01-.23,3.73-.03,4.73ZM239.72,148.6c.2-.72.24-1.21.04-1.76-1.84.23-3.46.11-5.26.03-.22.42-.25,1.33.12,1.61l5.09.12ZM239.85,175.85c.09-.7.17-1.22-.12-1.54h-5.32c-.09.55-.12.98-.03,1.56l5.47-.02Z"/><path class="cls-3" d="M234.38,72.8c-.17.46-.16.87-.16,1.49v51.01c0,.36.19.81.51.81l11.31.08c.54.37.5,1.7-.04,2.17l-11.11.03c-.22,0-.57.15-.59.38-.11,1.35-.18,2.72.09,4.07l5.68.07c.38.78.38,1.61.07,2.38h-5.11c-.26,0-.52.1-.63.22s-.16.33-.16.55v2.89c-.02.41.12.73.34.98-.06.18-.2.28-.65.29v-3.03c0-1.04-.09-2.02-.07-3.05l.07-3.52-.05-3.36.02-2.93v-51.32c0-.22.16-.36.25-.36.08,0,.17.06.22.15ZM246.03,126.52h-11.73s0,1.43,0,1.43h11.73s0-1.43,0-1.43ZM239.73,135c.22-.63.18-1.11.1-1.68h-5.43c-.08.59-.1,1.09-.01,1.67h5.34Z"/><path class="cls-3" d="M373.42,126.47c-.03-.05-.01-.31.06-.31l10.52-.02c.56,0,.81-.25.81-.83v-51.49c0-.46.14-.75-.16-1.01.1-.05.23-.15.31-.05.09.11.3.19.3.43v50.99c0,.89,0,1.54-.28,2.34l-11.56-.04Z"/><path class="cls-3" d="M234.1,197.11c-.02-.22-.09-.49.05-.77l11.27-.03c.12-.51.08-.93,0-1.5l-8.15.05c-.83,0-1.57.28-2.43-.05-.19-.07-.6.14-.72-.08s-.03-.49-.03-.69l.61.33h10.38c.29,0,.54.13.67.24.29.26.22,1.57.08,1.82-.13.22-.49.35-.88.35l-9.59-.03c-.55,0-.9-.08-1.26.36Z"/><path class="cls-3" d="M373.41,126.59c0,.45-.02.89.12,1.46l11.45-.04c.34,1.77.43,3.48.02,5.26h-5.77c-.12.35-.14.54-.23.71-.22-.15-.25-1.03.08-1.04l5.65-.14c.15-1.23.04-2.43.07-3.62,0-.54-.3-.78-.8-.79l-10.53-.07c-.51,0-.49-2.14-.06-1.74Z"/><path class="cls-3" d="M379.21,187.64c.06.62-.21,1.22-.04,1.96h5.15c.22-.01.52-.24.58-.06.05.16.21.36.21.55,0,1.38.02,2.69.11,4.06.01.2-.24.45-.31.57-.09.17-.37-.01-.6-.01h-11.38c.03-.06-.02-.18.03-.24.07-.07.15-.1.31-.1l11.47-.02c.16-1.29.04-2.44.07-3.66.02-.52-.31-.8-.81-.8l-5.03-.02c-.3-.14-.03-2.33-.08-2.13.04-.14.19-.1.32-.1Z"/><path class="cls-3" d="M379.55,180.74c-.42.05-.56,1.54-.35,2.02,1.97-.12,3.87-.1,5.84,0,.18.8.56,4.86-.22,4.95-.32.04-5.22.3-4.99-.08.82-.03,4.92-.07,4.95-.48.08-1.36.08-2.69-.03-4.07l-5.75-.13c-.39-.35-.15-2.82.56-2.2Z"/><path class="cls-3" d="M378.89,174.54c.01-.12-.06-.26.01-.4.06-.12.26-.25.48-.25l5.36-.08.02-4.27c-.87-.32-5.51,0-5.73-.25-.05-.06,0-.16-.03-.22.71.03,5.87-.1,5.97.21.04.12.22.3.24.5.03.34.22,4.42-.3,4.33-1.82.15-3.57.05-5.41.08-.27,0-.41.32-.62.35Z"/><path class="cls-3" d="M378.99,147.11c-.1-.07-.12-.14-.09-.21.04-.1.17-.27.32-.27,1.71,0,3.37.05,5.08-.03.36-.02.51-.25.52-.58v-3.18c.01-.2.08-.35-.02-.44-.12-.11-.27-.23-.48-.23h-5.23c-.1,0-.16-.23-.19-.27-.05-.06.07-.15.11-.21.24.24.61.22,1,.2,1.67-.09,3.26-.02,4.93,0,.5.63.37,4.14.11,4.96-1.66.08-3.24.21-4.87.07-.46-.04-.88-.09-1.18.2Z"/><path class="cls-3" d="M234.21,190.24c-.24-.06-.26-.21-.21-.36.1-.28.26-.28.53-.28h5.16c.25-.51.38-1.35-.01-1.8l-5.52-.03c-.39-.76-.07-1.44-.06-2.05.27-.26-.06,1.43.38,1.72l5.51.09c.48.47.53,1.75.06,2.28-1.05.33-5.35-.29-5.83.44Z"/><path class="cls-3" d="M384.49,153.52c.58.1.26-3.9.26-4.57-1.74-.13-3.36-.05-5.08-.05-.33,0-.66.08-.8-.27-.09-.23-.02-.49.12-.7.11.22.1.47.33.75,1.7-.19,3.31-.11,5-.06s.56,1.3.85,4.59c.02.22-.11.48-.29.49-.12,0-.29-.07-.4-.17Z"/><path class="cls-3" d="M384.47,180.77c.59.13.31-3.81.27-4.44l-5.34-.07c-.37,0-.51-.22-.5-.48.22.06.47.18.78.19l5.12.04c.2,0,.33.41.34.6l.04,3.98c0,.21-.32.38-.46.44-.11.05-.22-.11-.24-.25Z"/><path class="cls-3" d="M379.82,167.12c1.6-.33,3.26-.01,4.98-.16l.02-3.66c0-.36-.12-.64-.34-.81.11-.11.28-.16.4-.15.2.02.31.24.3.47-.06,1.31-.09,2.55-.03,3.86.01.34-.15.61-.53.61h-4.61c-.12,0-.23-.11-.18-.17Z"/><path class="cls-3" d="M384.32,139.94c.78-.1.41-2.12.53-3.71.04-.49-.14-.8-.53-.96.12-.12.27-.28.44-.28.62,0,.36,1.39.39,1.72.07.9.46,3.49-.41,3.45-.15,0-.33-.08-.41-.23Z"/><path class="cls-3" d="M384.62,160.27c.09-.16.2-.37.19-.64l-.02-3.05c.15-.35,0-.62-.18-.84.03-.09.08-.19.14-.22.36-.2.49.94.48,1.07-.11,1.19-.13,2.31-.04,3.51.01.16-.22.35-.3.41-.11.07-.25-.12-.25-.24Z"/><path class="cls-3" d="M380.03,135.29c-.3,0-.57.37-.9-.03-.18-.21-.42-.5-.12-.8.21.15.12.47.33.67.29.01.6-.04.69.16Z"/><path class="cls-3" d="M378.88,155.01c.02-.17-.07-.46.13-.53.02.12.33.22.19.41-.07.1-.21.23-.32.12Z"/><path class="cls-3" d="M234.09,197.92c-.08-.06-.18-.15-.18-.26s.11-.2.19-.26c.16-.05.12.18.11.26,0,.09.03.3-.12.26Z"/><path class="cls-3" d="M379.23,139.92c0,.15-.09.28-.22.34-.04-.07-.21-.16-.13-.26.1-.13.26-.08.35-.08Z"/><path class="cls-1" d="M301.66,221.53l5.7,6.37c.15.17.4.29.34.48-.06.21-.32.4-.6.4l-6.84-.02-5.03-6.18c-.65-.8-1.25-1.48-1.86-2.36-.45-.66-1.99-1.03-2.37-.18-.29,2.7.01,5.39-.13,8.11-.02.36-.22.62-.6.63h-4.49c-.34,0-.63-.26-.63-.64v-20.3c0-.38.28-.65.63-.65h4.65c.29-.01.41.23.42.5l.14,8.12c.41.77,1.89.27,2.41-.39l6.2-7.86c.16-.21.49-.41.75-.4,2.09.1,4.06-.11,6.28.11l-5.59,6.97-2.01,2.49c-.43.53-.57,1.07-.09,1.65.88,1.04,1.74,2.06,2.71,3.15Z"/><path class="cls-1" d="M359.82,228.33c-.66.24-3.56.8-4.17.8l-4.94-.05-3.89-.48c-.84-.1-1.64-.44-2.47-.69-.02-.84-.24-3.86.17-4.23s.56.19,2.15.37c1.03.12,2.01.49,3.05.57l1.95.15c1.33.1,2.63.05,3.98.03,1.16-.02,2.75-.66,2.78-2,.04-1.87-2.28-2.06-3.71-2.24-.61-.07-1.21-.36-1.85-.35-.92.01-1.69-.23-2.55-.48-2.53-.72-3.05-.76-4.87-2.65-.91-.95-.95-2.1-1.04-3.33-.32-4.7,3.71-6.44,7.72-6.73,1.64-.12,3.16-.21,4.79,0,.95.13,1.93.02,2.86.24.62.14,1.14.35,1.84.39.51.03,1.36.26,1.46.86.17,1.04.05,2.08.05,3.15,0,.42-.7.63-1.03.46-.91-.45-1.8-.36-2.71-.54-1.94-.38-8.94-1.27-9.22,1.45-.16,1.59,1.96,1.92,3.08,2.06.59.08,1.19.4,1.83.39,1.16-.02,2.19.22,3.3.5,3.68.9,6.09,2.25,5.93,6.57-.11,3-1.79,4.8-4.49,5.78Z"/><path class="cls-1" d="M331.4,226.99c-.63-1.46-.78-2.99-2.04-2.98l-8.58.02c-.7,0-.91.49-1.11,1.02l-1.09,2.89c-.17.46-.31.86-.9.85l-4.92-.04c-.49,0-.22-.59-.11-.85l7.27-17.5c.22-.54,1.28-3.46,1.63-3.14l7.52-.07c.76.91,1.02,1.97,1.45,3.03l.61,1.48.62,1.45,5.61,13.6c.28.67.71,1.21.6,2h-5.72c-.54-.29-.6-1.24-.84-1.77ZM328.41,219.83c.66.23-.71-2.94-.75-3.06l-.58-1.49-.49-1.28c-.31-.81-.84-2.87-1.63-2.55-.64.26-.65,1.26-.92,1.78-.25.47-1.48,3.82-1.78,4.61-.24.65-.8,1.26-.41,1.99h6.57Z"/><path class="cls-1" d="M275.84,207.8l-.06,13.19c0,1.12-.28,2.05-.65,3.07-.75,2.09-2.37,3.71-4.55,4.4-.73.23-1.61.54-2.4.6-1.83.15-3.61.11-5.43,0-.97-.06-1.96-.36-2.83-.66-2.26-.76-3.82-2.41-4.55-4.71-.23-.71-.59-3.26-.6-4.02l-.02-12.44h5.71s.04,12.75.04,12.75l.29,1.31c.33,1.48.96,2.91,2.42,3.36s2.97.52,4.47-.02c.9-.33,1.84-1.03,2.14-2.03.15-.49.43-1.11.43-1.65l.06-13.71,4.91-.07c.21,0,.61.25.61.62Z"/><path class="cls-1" d="M246.1,160.71c-.13-.03-.18.18-.18.34v1.31c-.56.08-1.15.12-1.79.12l-8.79.03c-.35,0-.65-.06-.91-.11.05-.53-.23-1.2.03-1.77.14-.3.74-.06,1.05-.06h9.74c.12-.02.24-.11.18-.19.33.03.5.03.67.33Z"/><path class="cls-1" d="M239.85,167.13c.07.65.08,1.33-.08,2.07-1.86-.21-3.47-.17-5.32,0-.16-.72-.24-1.48.11-2.05h5.29Z"/><path class="cls-1" d="M239.85,153.55c-.03.66.15,1.3-.08,2.07-1.87-.3-3.62-.16-5.37-.06-.23-.73.11-1.37,0-1.91l5.45-.1Z"/><path class="cls-3" d="M245.92,162.36v-1.31c0-.17.05-.37.19-.34.12.21.42,1.57-.19,1.65Z"/><path class="cls-1" d="M239.72,148.6l-5.09-.12c-.36-.27-.34-1.19-.12-1.61,1.79.08,3.42.2,5.26-.03.19.54.15,1.04-.04,1.76Z"/><path class="cls-1" d="M239.85,175.85l-5.47.02c-.1-.58-.06-1.01.03-1.55h5.32c.29.31.22.83.12,1.53Z"/><rect class="cls-1" x="234.3" y="126.53" width="11.73" height="1.42"/><path class="cls-1" d="M239.73,135h-5.34c-.08-.59-.06-1.09.01-1.67h5.43c.08.56.12,1.04-.1,1.67Z"/><path class="cls-3" d="M349.09,161.42c0,21.83-17.7,39.53-39.54,39.53s-39.54-17.7-39.54-39.53,17.7-39.53,39.54-39.53,39.54,17.7,39.54,39.53ZM348.7,161.42c0-21.62-17.53-39.14-39.15-39.14s-39.15,17.52-39.15,39.14,17.53,39.14,39.15,39.14,39.15-17.52,39.15-39.14Z"/><path class="cls-1" d="M348.7,161.42c0,21.62-17.53,39.14-39.15,39.14s-39.15-17.52-39.15-39.14,17.53-39.14,39.15-39.14,39.15,17.52,39.15,39.14ZM344.59,161.43c0-19.35-15.69-35.03-35.04-35.03s-35.04,15.68-35.04,35.03,15.69,35.03,35.04,35.03,35.04-15.68,35.04-35.03Z"/><path class="cls-1" d="M321.86,90.9c.32-.09.75.07,1.07,0,.18.3.63.1.96.2.49.13.88.47,1.34.43.15-.01.32.06.46.03.1.24.36.36.63.48,1.84.81,2.27,1.9,3.48,3.02.04.1.02.22.05.31.25.76.64,1.46.77,2.32.03.16.18.27.28.27-.03.17.04.44.03.62-.23.59-.23,1.38,0,1.97-.02.16-.06.43-.03.6-.47.32-.6,1.04-.57,1.59,0,.11-.03.23-.04.35-.57-.13-.89,1.63-.61,1.76v.31c-.09.09-.15.21-.1.35.03.08.12.12.22.13.03.1,0,.24.04.34.35.78,1.15,1.29,2.13,1.46l-4.01,10.09-1.18,3c-.14.35-.23.6-.57.68-.01,0-1.77-.77-2.28-.94l-1.66-.55c-.75-.25-1.4-.48-2.12-.63l-2.36-.51c-1.07-.23-2.13-.2-3.2-.53-.88-.27-5.42-.2-6.7-.21-1.85-.01-3.64.06-5.31.64-.09.03-.23.03-.33.02-.26-.02-.55-.05-.87.03l-2.74.67c-.69.17-1.34.31-2.02.55l-3.23,1.15c-.19.07-.68.59-.83.21l-3.23-8.13-.58-1.44-1.57-4.01c.61-.35,1.32-.57,1.79-1.07.81-.86.77-1.98.22-2.97-.66-1.18-1.25-3.73-.92-4.98l.5-1.88c.9-3.38,4.5-5.41,7.88-5.73.17-.02.51-.06.68-.01l2.74.77,1.38.57c1.1.45,3.96,1.29,5.12,1.03.16-.89.83-1.43,1.41-2.19-2.23-.97-2.47-3.69-1.63-5.21.41-.75,1.91-2.06,2.26-3.37.08-.28.51-1.02.07-1.13-.92-.22-1.71.52-2.62.89-.13-.75-.32-3.03.19-3.2.34-.11,1.45,1.02,2.38.69.68-.25-.46-2.11-.78-2.41-.97-.9,3.09-.44,3.4-.5.08.46-.24.74-.48,1.07-.16.22-.67,1.6-.54,1.77.44.56,2.07-.46,2.88-.92.33,1.15.24,2.31.15,3.44-.05.55-2.35-1.58-3.03-.73.12,2.95,3.63,3.83,2.92,7-.22.97-.89,1.95-1.96,2.53.21.57.62.75.89,1.19.17.27.11.93.52,1.03,1.93.48,5.46-1.31,6.53-1.6l2.71-.73ZM299.99,107.57c-.21,0-1.62.66-1.18,1.89.62,1.72,1.94,2.78,3.67,3.21,2.36.58,4.23-.72,5.54-2.58.3-.43.6-1.13.23-1.52-2.46.12-3.9,2.39-4.27,2.39-.07,0-.27-.05-.27-.2.08-2.19-.13-4.27.12-6.6,1.17,1.13,2.11,1.93,3.49,2.36.22.07.55.31.76.21.13-.06.45-.2.39-.43-.27-.99-.79-1.86-1.64-2.5-.29-1.86-.25-4.66-.17-6.61.02-.45.25-1.13-.23-1.47-.29-.2-.99-.45-1.37-.43-1.43.09-4.49-1.14-5.79-1.62l-1.4-.51c-.94-.34-1.87-.02-2.72.21-3.39.92-5.62,4.85-4.57,7.68l.65,1.75c.76,2.05.51,4.26-1.2,5.65-.02.75.37,1.32.61,1.96l.48,1.29c.19.52.44.94.63,1.43.27.73.39,1.51.99,2.13,1.8-.22,3.24-1.47,3.9-3.13.46-1.16.59-2.5-.52-3.31-.39-.28-1.07-.03-1.3.28-.29.41-.16.83.17,1.32-1.07.31-1.72-.36-2.05-1.13-.35-.81-.07-1.65.67-2.28.52-.45,1.39-.27,2.02-.14.23-.39-.08-.74-.15-1.12-.12-.62-.35-3.22.42-3.56,1.33-.59,2.3,1.92,2.32,3.24,0,.25-.04.42.15.54.13.08.3.22.5.07.75-.57,1.91-.81,2.69-.13s.7,1.9.18,2.68c-.16.23-.44.33-.61.24-.3-.15-.26-1.25-1.15-1.25ZM319.91,105.82c.33.2.39.61.67.36.69-.6-.2-.73.73-2.5.27-.52.71-1.66,1.44-1.6.23.02.72.08.79.45.26,1.38.04,2.77-.08,4.17l1.67.08c1,.05,1.36,1.3,1.16,2.26-.16.74-1.19,1.68-2,1.35-.05-.46.31-1.43-.34-1.65-.43-.14-1.15.08-1.35.46-1.42,2.64,1.29,5.83,3.56,5.97.57.03.79-.86.94-1.22l2.14-5.3c-.53-.62-1.22-1.18-1.49-1.98-.96-2.84.6-4.41.92-5.86.26-1.18.04-3.01-.56-4.02-.41-.69-.84-1.49-1.42-1.96-1.51-1.2-3.71-2.24-5.56-1.59s-3,1.19-4.81,1.61c-.98.23-1.86.62-2.95.57-.33-.01-.9.4-.9.78l-.03,7.47c-.77.72-1.34,1.5-1.78,2.44,0,.21.06.64.33.59,1.74-.31,3.04-1.29,4.43-2.68l.04,6.92c-.49-.08-.68-.31-.91-.55-1.04-1.04-2.39-1.88-3.95-1.81.61,2.88,3.64,4.87,6.29,4.05,1.65-.51,3.02-1.56,3.41-3.31.14-.62-.11-1.03-.53-1.42-.3-.27-.56-.44-.97-.3-.8.28-.14,1.41-.69,1.39-.37-.01-1.3-.98-1.18-1.83.06-.43.29-1.05.83-1.39.5-.32,1.64-.29,2.2.04Z"/><path class="cls-3" d="M321.86,90.9l-2.71.73c-1.08.29-4.6,2.08-6.53,1.6-.41-.1-.35-.75-.52-1.03-.26-.44-.67-.61-.89-1.19,1.07-.58,1.74-1.56,1.96-2.53.72-3.17-2.8-4.04-2.92-7,.69-.85,2.99,1.28,3.03.73.09-1.14.18-2.29-.15-3.44-.82.45-2.44,1.48-2.88.92-.13-.17.38-1.55.54-1.77.24-.33.55-.61.48-1.07-.31.05-4.37-.4-3.4.5.32.3,1.46,2.16.78,2.41-.93.33-2.03-.8-2.38-.69-.51.17-.31,2.45-.19,3.2.91-.37,1.7-1.1,2.62-.89.44.1,0,.84-.07,1.13-.35,1.3-1.85,2.62-2.26,3.37-.84,1.52-.6,4.24,1.63,5.21-.58.76-1.25,1.3-1.41,2.19-1.16.25-4.02-.58-5.12-1.03l-1.38-.57-2.74-.77c.54-.31,1.19-.04,1.92-.16-.18-.96-.8-1.47-.09-2.34.13-.16.13-.43.36-.46.17-.02.36-.02.51.09-.53.34-.81.78-.81,1.39s.38,1.29,1.21,1.28c.5,0,1.16-.68,1.39-1.13s-.14-.88-.33-1.15c-.27-.36-.73-.34-1.12-.4.1-.36.54-.14.76-.14.26,0,1.2.98,1.11,1.45-.2,1.05-1.12,1.7-2.28,1.73-.1.38,4.09,1.91,3.89,1.27-1.01-.28-1.31-.72-1.33-1.57-.01-.7.17-1.32.79-1.61.99-.46,2.63.71,2.18,1.13-.39-.44-1.07-1-1.74-.91-.96.13-1.16,1.17-.86,1.84.35.76,1.39,1.12,1.94.49l.66-.76c.42,1.09-1.73,1.33-1.08,1.77.36.24,1.27.35,1.93.37.15-.82.61-1.32,1.13-1.96-.92.08-1.92-2.45-2.03-2.96-.16-.73.46-2.35.64-2.57.5-.62,2.84-3.13,1.98-3.62-.76-.44-1.88,1.16-2.62.67-.1-.61-.18-3.78.09-4.09.54-.65,2.27,1.56,2.81.75-.11-1.54-.95-1.4-1.04-2.58,1.47-.21,2.98-.32,4.39.04.54.14-1.54,2.2-.87,2.66.11.07.42.12.54-.03.35-.39.84-.43,1.23-.71.27-.19.42-.44.72-.29.4.2.44,4.17,0,4.42-.62.34-1.09-1.17-2.45-.99-.44.21.05.92.2,1.23,1,2.08,3.06,2.35,2.43,5.86-.07.36-.43.76-.66,1.06l-1.11,1.46c.6.26.65,1.04,1.01,1.35.66.55,1.59,0,2.23-.1.92-.12,1.59-.39,2.39-.74-.06.03,2.38-.81,2.49-.87.62-.35,1.43-.45,2-.15ZM299.74,90.98s-.04-.08-.08-.08-.08.04-.08.08.04.08.08.08.08-.04.08-.08Z"/><path class="cls-3" d="M296.68,90.9c-3.39.31-6.99,2.35-7.88,5.73l-.5,1.88c-.33,1.25.27,3.8.92,4.98.55.99.59,2.11-.22,2.97-.47.5-1.19.72-1.79,1.07l1.57,4.01.58,1.44,3.23,8.13c.15.38.64-.14.83-.21l3.23-1.15c.69-.24,1.33-.38,2.02-.55l2.74-.67c.32-.08.62-.05.87-.03-.22.44-.97.63-1.5.61-.88-.02-1.49.42-2.24.6s-2.86.52-3.58,1.14c-.26.22-.91-.09-1.21.27-.24.3-.73.47-1.09.41-.28-.05-.72-.45-.75-.8-.06-.64-.3-1-.53-1.56l-.56-1.35c-.02-.06-1.9-4.87-1.75-4.28-.14-.55-.27-1-.49-1.49l-.63-1.42c-.22-.5-.22-.94-.57-1.42-.23-.31-.03-.86-.51-1.16-.2-.13-.24-.72.02-.81.64-.24,1.18-.47,1.68-.93-.47-.28-.74.06-1.13.18-.83.25-1.82-.53-1.89-1.25-.09-.99.42-1.75,1.4-1.97.66-.15,1.38.12,1.53.76-.3-.07-.57-.27-.93-.33-.71-.12-1.33.16-1.56.78-.22.58.06,1.42.79,1.6.5.12,1.29,0,1.61-.4s.05-.97.16-1.36c.11-.03.42.07.49-.08.13-.6-.36-.9-.53-1.29-.2-.46,0-1.06-.74-1.38-.22.85-.64,1.14-1.3,1.31-1.03.26-1.82-.32-2.03-1.23-.22-1.01.49-1.86,1.49-1.93s1.44.36,1.88,1.33l.09-2.83-.68.34c.14-.53.39-1.24.02-1.8s-1.37-.58-1.91-.26c-.63.37-.63,1.14-.38,1.68s.92.85,1.59.65c.26-.08.49-.18.68-.27-.08.32-.21.52-.65.61-.85.17-1.81-.25-2.06-1.11-.21-.73,0-1.61.83-2.06.73-.41,1.93.04,2.3.82.12.25.04.5.31.5.52,0,.38-1,.65-1.39.23-.34.68-.66.21-1.15-.6.91-1.71,1.04-2.53.52-.22-.19-.57-.71-.61-1.07-.06-.61.45-1.38.93-1.69.65-.42,1.44-.07,1.93.32.55.44.58,1.06.69,1.84l1.36-1.56c.21-.24.57-.32.49-.66.3.07.54-.09.79-.32.77-.72,4.79-2.18,4.8-1.28ZM288.63,94.47c.36-.84-.32-1.67-1.07-1.75-.64-.07-1.12.35-1.29.82-.19.51-.24,1.2.31,1.56.61.4,1.73.14,2.05-.63ZM285.14,102.25c.46.63,1.5.45,1.97-.03s.39-1.29-.01-1.8c-.46-.58-1.25-.65-1.82-.11-.3.29-.6.56-.6.92,0,.33.17.63.45,1.02Z"/><path class="cls-3" d="M302.61,118.47c1.67-.58,3.46-.66,5.31-.64,1.28,0,5.82-.06,6.7.21,1.07.34,2.12.3,3.2.53l2.36.51c.72.15,1.37.39,2.12.63l1.66.55c.51.17,2.27.95,2.28.94.34-.09.43-.33.57-.68l1.18-3,4.01-10.09c-.99-.17-1.78-.68-2.13-1.46.48.4,1.99,1.25,2.2,1.44s.08.81-.06,1.02c-.12.18-.96,2.36-1.13,2.76l-.51,1.25-.65,1.58-.47,1.15-.61,1.62c-.17.45-.41.93-.56,1.36l-.59,1.65c-.17.46-.34.83-.51,1.32-.23.65-1.36.07-1.82-.03l-1.06-.24c-.6-.13-1.09-.44-1.66-.66l-1.48-.56c-1-.38-1.85-.43-2.89-.52-.98-.09-1.89-.76-2.95-.36-.02-.37-3.97-.65-3.68-.69-2.21.26-2.82-.2-5.77.26-1.04.16-2.1.55-3.06.14Z"/><path class="cls-1" d="M293.1,90.9c-1.09-.01-1.86-1.36-1.51-2.08.43-.88,1.25-1.21,2.17-.92.75.24,1.24,1.44.83,2.11s-.83.91-1.49.9Z"/><path class="cls-1" d="M334.28,98.51c-.12.34-.78.6-1.07.65-.89.15-1.5-.5-1.68-1.18-.21-.79.08-1.59.93-1.88.62-.22,1.62,0,1.87.65.19.48.14,1.22-.06,1.77Z"/><path class="cls-1" d="M334.26,100.47c.3.35.21,1.17.05,1.65-.22.64-1.01.78-1.61.73-.56-.05-1.1-.57-1.2-1.22-.12-.76.18-1.47.83-1.74s1.36-.11,1.93.57Z"/><path class="cls-1" d="M323.41,87.54c.32.23.39.93.4,1.27.02.73-.63,1.29-1.12,1.41-.82.2-1.53-.22-1.81-.82-.33-.72-.18-1.52.55-1.98.47-.3,1.41-.28,1.97.12Z"/><path class="cls-1" d="M295.5,89.45c-.41-.56-.24-1.2.09-1.65.38-.52.88-.65,1.6-.55s1.16.73,1.23,1.36c.07.71-.42,1.27-.97,1.52-.77.36-1.44.02-1.95-.68Z"/><path class="cls-1" d="M319.76,90.34c-.37.32-.6.57-1.04.57-.58,0-1.38-.74-1.69-1.18-.25-.35.06-.6.15-.94.18-.72.62-.95,1.31-.95s1.05.16,1.43.67c.44.6.49,1.27-.15,1.83Z"/><path class="cls-1" d="M291.08,92.5c-.58-.14-1.55.68-2.47-.5-.41-.53-.34-1.45.12-1.91.51-.5,1.33-.66,1.92-.28,1.5.97.36,2.39.42,2.69Z"/><path class="cls-1" d="M327.16,90.03c-.45.52-.93.89-1.5.69-.62-.21-1.06-.68-.96-1.42.05-.37-.03-.72.27-.97.57-.46,1.74-.57,2.21.21.26.43.43.95-.03,1.48Z"/><path class="cls-1" d="M332.2,95.34c-.6.21-1.22-.14-1.57-.5-.39-.4-.46-1.2-.09-1.62.41-.47,1.03-.7,1.59-.5.43.16.91.68.96,1.16.06.58-.28,1.25-.89,1.46Z"/><path class="cls-1" d="M330.95,105.89c-.41-.33-.52-.71-.5-1.13s.16-.76.59-.98c.66-.34,1.33-.32,1.85.19.47.46.47,1.34-.03,1.86s-1.22.62-1.9.07Z"/><path class="cls-1" d="M300.39,87.99c.39.06.85.04,1.12.4.2.27.57.69.33,1.15s-.9,1.12-1.39,1.13c-.82.02-1.21-.65-1.21-1.28s.28-1.05.81-1.39c.11,0,.23-.03.33-.01Z"/><path class="cls-1" d="M305.51,90.26c.04.18-.07.48,0,.65l-.66.76c-.55.63-1.59.27-1.94-.49-.31-.67-.1-1.71.86-1.84.68-.09,1.35.47,1.74.91Z"/><path class="cls-1" d="M315.4,91.88c-.73.08-1.22.05-1.53-.45-.63-1.03.37-1.96.77-2.08.33-.11.62.1.99.23.57.19.67.69.64,1.25-.02.42-.26,1-.87,1.06Z"/><path class="cls-1" d="M288.49,104.04c.02.08.09.22.07.3-.11.39.15.97-.16,1.36s-1.11.52-1.61.4c-.73-.18-1.01-1.03-.79-1.6.24-.62.86-.9,1.56-.78.36.06.63.26.93.33Z"/><path class="cls-3" d="M330.78,91.9c-.47.68-1.17,1.01-1.89.81-.62-.18-1.29-.83-1.26-1.55.03-.68.53-1.49,1.24-1.59.82-.11,1.28.07,1.73.55.42.45.6,1.2.19,1.79ZM328.66,92.29c.7.39,1.34-.01,1.62-.42.39-.56.29-1.18-.14-1.65-.39-.42-1.06-.59-1.62-.13-.63.51-.63,1.77.14,2.2Z"/><path class="cls-3" d="M329.82,95.05c-1.21-1.12-1.64-2.21-3.48-3.02-.28-.12-.53-.24-.63-.48.57-.14,1.12.43,1.66.75,1.13.67,2.01,1.6,2.46,2.76Z"/><path class="cls-3" d="M330.92,97.95c-.1,0-.25-.11-.28-.27-.14-.86-.53-1.56-.77-2.32.51-.13,1.19,1.91,1.05,2.59Z"/><path class="cls-3" d="M325.25,91.51c-.46.04-.85-.29-1.34-.43-.34-.09-.79.1-.96-.2.29-.53,2.6.36,2.31.62Z"/><path class="cls-3" d="M330.31,103.08c-.01.42-.46.72-.4,1.21.02.15.13.3.1.45-.02.11-.18.16-.31.1-.29-.13.03-1.88.61-1.76Z"/><path class="cls-3" d="M330.93,101.14c.08.58-.08,1.25-.57,1.59-.03-.55.1-1.27.57-1.59Z"/><path class="cls-3" d="M330.96,100.54c-.24-.59-.23-1.38,0-1.97.31.55.31,1.41,0,1.97Z"/><path class="cls-3" d="M329.83,105.63c-.09,0-.19-.05-.22-.13-.05-.14.01-.26.1-.35.16-.07.36.02.28.21-.03.07-.09.17-.16.26Z"/><path class="cls-3" d="M299.99,107.57c.88,0,.85,1.11,1.15,1.25.17.08.46-.01.61-.24.52-.77.58-2.02-.18-2.68s-1.94-.44-2.69.13c-.2.15-.37.01-.5-.07-.19-.12-.14-.29-.15-.54-.02-1.32-.99-3.83-2.32-3.24-.78.34-.54,2.94-.42,3.56.07.38.38.73.15,1.12-.63-.13-1.5-.31-2.02.14-.74.63-1.02,1.47-.67,2.28.33.77.99,1.44,2.05,1.13-.32-.49-.46-.91-.17-1.32.22-.31.91-.56,1.3-.28,1.11.81.98,2.16.52,3.31-.67,1.66-2.1,2.91-3.9,3.13-.6-.62-.72-1.41-.99-2.13-.19-.49-.43-.91-.63-1.43l-.48-1.29c-.24-.65-.63-1.21-.61-1.96,1.72-1.39,1.97-3.59,1.2-5.65l-.65-1.75c-1.05-2.82,1.18-6.76,4.57-7.68.85-.23,1.78-.55,2.72-.21l1.4.51c1.3.48,4.36,1.71,5.79,1.62.38-.03,1.09.23,1.37.43.48.34.24,1.02.23,1.47-.08,1.96-.12,4.75.17,6.61.85.64,1.37,1.51,1.64,2.5.06.23-.26.37-.39.43-.21.1-.55-.14-.76-.21-1.38-.43-2.32-1.23-3.49-2.36-.25,2.33-.03,4.4-.12,6.6,0,.15.2.2.27.2.37,0,1.81-2.27,4.27-2.39.37.39.07,1.09-.23,1.52-1.32,1.86-3.19,3.16-5.54,2.58-1.73-.43-3.05-1.49-3.67-3.21-.44-1.22.97-1.89,1.18-1.89ZM299.28,105.37c1.24-.56,2.58-.2,3.05,1.03.29.76.24,1.5-.18,2.23-.26.45-1.07,1.01-1.69.94-.31-.14-.15-.76-.13-1.02.03-.39-.15-.65-.5-.6-.22.03-.71.85-.7.91.26,1.32.82,2.09,1.94,2.88.56.39,1.05.38,1.69.48.58.1.93.18,1.53-.01.47-.15.92,0,1.41-.3.87-.54,1.77-1.31,2.14-2.27.06-.15.58-.45.21-.59-.54-.22-1.09.23-1.54.45-2.06.99-1.95,2-2.92,2.31-.22.07-.45-.34-.45-.55l.05-7.63c0-.21.48-.26.6-.17.99.76,1.27,1.88,3.76,2.73.14.05.22.28.32.27.19,0,.33-.11.3-.26.04.21-.88-1.51-.81-1.43-.37-.42-1.08-.77-1.08-1.4l-.08-7.2c0-.3-.66-.09-.82-.22-.63-.51-1.64-.3-2.38-.54l-1.93-.61c-1.97-.62-2.74-1.5-5.48-1.09-.62.09-1.02.31-1.54.55-1.31.61-2.14,1.64-2.79,2.91-.37.73-.3,1.54-.36,2.38-.2,2.72,2.06,3.88,1.13,6.75-.44,1.35-1.6,2.06-1.63,2.62-.02.31.42.53.44.8.06.63.48,1.06.6,1.54.16.64.27,1.01.66,1.54,0,0,.81,2.65.93,2.12,2-1.19.2.28,2.3-1.4,1.25-1,1.41-3.1.84-4.31-.19-.41-1.11.02-1.11.42,0,.29.41.3.51.4-.11.63-.48.66-.9.72-.92.14-1.38-.21-1.85-.88-.57-.83-.65-1.7-.01-2.53,1.28-1.67,2.02-.34,2.35-.97s-.71-2.01.17-4.09c.12-.28.58-.82.91-.73,2.57.69,1.87,3.64,3.06,3.83Z"/><path class="cls-3" d="M319.91,105.82c-.55-.33-1.69-.36-2.2-.04-.54.34-.77.96-.83,1.39-.11.86.81,1.82,1.18,1.83.55.02-.11-1.11.69-1.39.4-.14.67.03.97.3.42.39.67.8.53,1.42-.39,1.74-1.76,2.79-3.41,3.31-2.65.82-5.68-1.17-6.29-4.05,1.56-.07,2.91.77,3.95,1.81.24.24.43.47.91.55l-.04-6.92c-1.38,1.4-2.68,2.37-4.43,2.68-.26.05-.33-.38-.33-.59.44-.94,1.01-1.72,1.78-2.44l.03-7.47c0-.38.57-.79.9-.78,1.09.05,1.97-.34,2.95-.57,1.81-.43,3-.98,4.81-1.61s4.05.39,5.56,1.59c.59.47,1.01,1.27,1.42,1.96.6,1.01.81,2.84.56,4.02-.31,1.45-1.88,3.02-.92,5.86.27.8.96,1.36,1.49,1.98l-2.14,5.3c-.15.37-.37,1.26-.94,1.22-2.27-.14-4.98-3.33-3.56-5.97.2-.37.93-.6,1.35-.46.66.22.3,1.19.34,1.65.82.33,1.85-.61,2-1.35.2-.96-.15-2.21-1.16-2.26l-1.67-.08c.12-1.39.35-2.79.08-4.17-.07-.37-.57-.43-.79-.45-.73-.06-1.17,1.07-1.44,1.6-.93,1.77-.04,1.9-.73,2.5-.28.25-.34-.17-.67-.36ZM320.38,105.53c.42-.7.07-1.28.34-1.74l.58-.99c.31-.53.92-.88,1.38-1.35,1.17.31,1.67,1.43,1.53,2.59-.07.58.17,1.2-.22,1.69-.16.19-.34.47-.22.65.37.52,1.4-.45,2.38.65.45.51.5.93.43,1.68-.05.6-.01,1.09-.4,1.5-.81.85-2.69.67-2.42.03.12-.3.54-1.09-.03-1.17-.94-.14-1.24.94-1.19,1.68.05.81.11,1.21.57,1.8.52.66.99,1.76,2.48,2.07.16.03.29.41.52.34.34-.11.91-1.86.87-1.81.36-.48.36-.91.55-1.43.17-.48,1.36-2.5.94-3.22-.33-.57-.94-1.1-1.17-2.04-.19-.76-.74-1.65-.28-2.45.24-.42.28-1.05.51-1.39.37-.53.44-.96.58-1.56.17-.7.4-1.19.26-1.9-.28-1.37-.54-2.72-1.7-3.8-.6-.57-1.46-1.21-2.32-1.49-1.11-.36-2.97-.31-4.16.13l-1.3.48c-1.58.58-2.38.86-4.04,1.11-.59.09-1.11.53-1.86.42l-.02,7.73c-.38.36-2.36,2.09-1.46,2.34.6.16,1.38-.43,2.06-.86.76-.47,1.79-2.11,2.15-1.53.05.08.14.22.14.39l.02,7.01c0,.29-.18.59-.36.62-.79.13-.56-1.13-3.28-2.35-.21-.09-.56-.41-.86-.21-.57.39,1.35,2.67,2.33,2.93,1.28.34,2.67.25,3.94-.06.43-.11,1.43-1.17,1.74-1.49.19-.2.04-.63.3-.81.28-.2.37-.48.38-.78,0-.22-.77-1.16-1.11-1.03-.7.27.07,1.8-.65,1.65-.52-.11-1.34-.74-1.56-1.27-.24-.57-.12-1.48-.04-2.01,1.03-1.4,2.14-1.21,3.69-.73Z"/><circle class="cls-13" cx="299.66" cy="90.98" r=".08"/><path class="cls-1" d="M285.14,102.25c-.28-.39-.45-.69-.45-1.02,0-.37.29-.64.6-.92.57-.53,1.36-.47,1.82.11.41.52.51,1.31.01,1.8s-1.51.66-1.97.03Z"/><path class="cls-1" d="M287.24,98.59c-.19.09-.42.19-.68.27-.67.2-1.33-.08-1.59-.65s-.25-1.31.38-1.68c.54-.32,1.54-.3,1.91.26s.11,1.27-.02,1.8Z"/><path class="cls-1" d="M288.63,94.47c-.33.77-1.44,1.03-2.05.63-.55-.36-.51-1.05-.31-1.56.17-.46.66-.89,1.29-.82.76.08,1.43.9,1.07,1.75Z"/><path class="cls-1" d="M328.66,92.29c-.77-.43-.77-1.69-.14-2.2.56-.46,1.23-.29,1.62.13.43.46.53,1.09.14,1.65-.28.41-.92.82-1.62.42Z"/><path class="cls-1" d="M302.1,185.59c-.24.42-.36.84-.9.74-4.29-5.89-9.54-10.87-15.54-15.1v-10.96c.48-.28.99.08,1.41.35,4.27,2.11,8.26,4.56,12.04,7.47.27.21.75.59,1.05.24l3.45-3.94c3.97-4.53,11.44-11.12,16.44-14.58l1.43-.99c3.12-2.17,6.32-4.09,9.71-5.8.2-.1.29-.3.49-.26.12.03.4.1.4.36v8.95c-3.72,2.59-7.19,5.29-10.41,8.47l-5.08,5.02-3.43,3.93c-.9,1.02-1.64,2.1-2.49,3.14l-1.22,1.5c-2.36,2.91-4.34,6.06-6.18,9.34l-1.18,2.11Z"/><text class="cls-2" transform="translate(270.5 248.09)"><tspan x="0" y="0">P</tspan><tspan class="cls-5" x="10.5" y="0">R</tspan><tspan x="21.17" y="0">ODU</tspan><tspan class="cls-10" x="60.68" y="0">C</tspan><tspan x="72.67" y="0">T</tspan><tspan x="-20.75" y="16.22">CE</tspan><tspan class="cls-12" x=".4" y="16.22">R</tspan><tspan x="11.2" y="16.22">TIFI</tspan><tspan class="cls-11" x="40.05" y="16.22">C</tspan><tspan class="cls-6" x="51.57" y="16.22">A</tspan><tspan class="cls-4" x="62.13" y="16.22">TION</tspan></text></svg>