<?xml version="1.0" encoding="UTF-8"?><svg id="Layer_1" xmlns="http://www.w3.org/2000/svg" viewBox="0 0 500 500"><defs><style>.cls-1{fill:#fff;}</style></defs><circle class="cls-1" cx="206.25" cy="153.23" r=".15"/><path class="cls-1" d="M412.37,311.71c-1.95.27-3.58.09-5.5.11l-4.9-7.29c-1.28-1.9-3.19-2.77-5.58-2.18l-.03,9.45c-1.63.02-3.07.12-4.66-.06v-23.01c4.53,0,8.71-.1,13.02.14,3.28.19,5.67,2.49,5.84,5.73.41,3.63-1.91,6.42-5.73,7.05,1.49,1.19,2.62,2.17,3.51,3.6l4.03,6.45ZM405.77,295.23c-.11-1.53-1.38-2.55-3.11-2.54l-6.25.03c.01,2.01-.14,3.84.08,5.75,3.64-.26,9.59,1.28,9.27-3.23Z"/><path class="cls-1" d="M310.76,306.36c.74-.66.25-2.07.23-2.92l-5.13-.13c-.22-1.23-.15-2.51-.04-3.85h9.97s-.05,9.33-.05,9.33c-3.73,2.87-8.36,4.05-12.92,3.12-3.53-.72-6.33-3.02-7.62-6.37-2.48-6.44-.38-14.77,6.72-16.72,5.1-1.4,12.36-.17,13.55,6.26l-4.59.96c-.75-2.44-2.8-3.7-5.31-3.69-3.08.02-5.6,1.87-6.24,4.93-.45,2.15-.42,4.35.21,6.46.85,2.83,3.33,4.62,6.32,4.45,1.67-.09,3.48-.56,4.88-1.82Z"/><path class="cls-1" d="M305.82,268.17c-1.35,5.6-8.57,6.16-13.02,4.87-3.32-.96-5.37-4.05-5.44-7.39l4.43-.38c.41,1.35.79,2.76,2.07,3.54,1.87,1.14,4.48,1.14,6.27-.09.96-.66,1.38-1.77,1.19-2.75-.73-3.73-13.12-1.53-13.21-9.7-.03-2.63,1.58-4.99,4.23-5.91s5.61-.9,8.33-.08c2.86.86,4.75,3.44,4.66,6.4-1.65.1-3.08.25-4.6.19-.3-1.24-.79-2.44-2.01-2.9-2.04-.76-5.96-.45-6.11,1.75-.22,3.21,7.71,2.55,11.23,5.53,2,1.7,2.61,4.33,1.99,6.92Z"/><path class="cls-1" d="M346.39,306.91c-1.28,5.09-7.22,5.79-11.67,5.11-3.92-.59-6.59-3.66-6.79-7.68,1.49-.26,2.93-.36,4.46-.43.4,1.27.7,2.57,1.82,3.37,1.9,1.35,4.73,1.36,6.59.04.89-.63,1.2-1.55,1.13-2.49s-.83-1.69-1.88-2l-6.9-2.01c-2.71-.79-4.42-3.21-4.46-5.89s1.75-5.17,4.55-6.03c2.51-.76,5.18-.74,7.73-.07,3,.79,5.02,3.37,4.98,6.49l-4.61.21c-.32-1.16-.71-2.37-1.88-2.85-2.13-.87-6.09-.5-6.25,1.67-.23,3.16,7.26,2.55,10.96,5.35,2.22,1.68,2.93,4.44,2.23,7.21Z"/><path class="cls-1" d="M274.19,263l-11.45.05-.03,6.11,12.81.14c.13,1.35.15,2.52-.03,3.88l-17.53-.06v-23.02s17.03-.02,17.03-.02c.21,1.39.19,2.59.01,3.89l-12.25.07v5.05s11.45.04,11.45.04c.1,1.23.14,2.44-.01,3.87Z"/><path class="cls-1" d="M289.72,301.65l-11.42.03c-.15,2.14-.12,4.1-.01,6.25l12.73.02c.17,1.25.1,2.47.03,3.87h-17.52s0-23.03,0-23.03h17.04c.22,1.35.18,2.53.02,3.88l-12.27.03c-.18,1.74-.15,3.31-.02,5.06l11.38.03c.22,1.26.18,2.33.05,3.87Z"/><path class="cls-1" d="M369.1,262.99l-11.41.04c-.23,2.04-.09,3.92-.08,6.17l12.84.09-.04,3.85h-17.5s.01-23.04.01-23.04l16.94-.04c.32,1.3.14,2.54.11,3.91l-12.28.06c-.18,1.74-.17,3.34,0,5.06l11.38.04c.13,1.29.08,2.31.03,3.86Z"/><path class="cls-1" d="M386.45,301.65l-11.53.05v6.19s12.74.07,12.74.07c.21,1.33.2,2.53,0,3.87h-17.43s-.03-23-.03-23l17.01-.08c.28,1.26.18,2.5.06,3.91l-12.29.02c-.18,1.65-.08,3.25-.05,5.05l11.48.04c.14,1.26.09,2.32.04,3.86Z"/><path class="cls-1" d="M220.35,259.44c.19,1.36.18,2.55,0,3.89l-9.49.04-.08,9.77c-1.55.07-3.01.11-4.66-.04v-23.01s15.81,0,15.81,0c.11,1.41.09,2.59.01,3.9l-11.1.11.05,5.31,9.47.03Z"/><path class="cls-1" d="M347.47,259.44c.15,1.33.11,2.53.02,3.88l-9.54.06-.07,9.77c-1.6.05-3.04.11-4.63-.05v-23s15.74,0,15.74,0c.11,1.42.08,2.56.01,3.9l-11.04.06-.02,5.36,9.51.04Z"/><path class="cls-1" d="M413.18,250.2l-8.35,13.24-.08,9.66c-1.57.09-3.17.22-4.54-.04l-.29-9.62-8.09-13.26c1.84-.18,3.61-.18,5.37-.02l5.33,8.87,5.34-8.87c1.71-.12,3.21-.19,5.32.05Z"/><path class="cls-1" d="M360.42,311.76c-1.64.16-3.1.08-4.69.02l-.02-18.99-6.76-.14c-.14-1.21-.08-2.45-.04-3.87h18.27c.09,1.37.08,2.52,0,3.85l-6.75.07v19.05Z"/><path class="cls-1" d="M384.25,273.07c-1.54.25-3.01.12-4.65.07l-.03-19.08-6.81-.06c-.07-1.31-.1-2.49.02-3.9h18.19c.22,1.39.18,2.59.02,3.91l-6.68.03-.04,19.04Z"/><rect class="cls-1" x="225.61" y="250.07" width="4.75" height="23.12"/><rect class="cls-1" x="319.96" y="288.77" width="4.68" height="23.07"/><path class="cls-1" d="M270.95,311.74c-1.97.21-3.59.06-5.51.06l-4.9-7.27c-1.28-1.91-3.18-2.79-5.58-2.17l-.03,9.44c-1.63.03-3.07.12-4.65-.06v-23.01c4.53,0,8.72-.12,13.02.15,3.28.2,5.65,2.49,5.83,5.73.4,3.63-1.91,6.42-5.73,7.04,3.54,2.6,5.13,6.3,7.55,10.09ZM261.68,298.38c1.91-.13,2.75-1.58,2.65-3.15s-1.36-2.55-3.09-2.54l-6.26.02c0,2.01-.14,3.85.08,5.76,2.32.03,4.36.06,6.62-.08Z"/><path class="cls-1" d="M255.34,272.96c-1.78.46-3.53.17-5.47.16l-4.89-7.29c-1.3-1.94-3.38-2.78-5.56-2.08l-.02,9.38h-4.62s-.01-23.06-.01-23.06c4.48,0,8.66-.12,12.95.12,3.37.19,5.81,2.58,5.89,5.96.31,3.57-2.05,6.21-5.76,6.83,1.56,1.21,2.71,2.27,3.63,3.76l3.86,6.2ZM248.81,256.88c0-4.24-5.97-2.52-9.34-2.83,0,2.06-.13,3.85.07,5.77,3.56-.28,9.27,1.23,9.27-2.94Z"/><path class="cls-1" d="M323.69,268l-9.14-.07-2.06,5.23c-1.68.04-3.16.1-4.88-.04l8.95-23h4.98s9.21,23.02,9.21,23.02c-1.74.11-3.31.09-5.05.01l-2.01-5.14ZM322.09,263.87l-3.14-8.1-2.98,8.17c2.17.09,4,.22,6.12-.06Z"/><path class="cls-1" d="M129.46,159.23c-.06,3.29-1.2,6.28-4.05,7.76-2.11,1.09-4.53,1.48-6.93,1.49l-14.45.04-.03-18.27,14.31-.03c1.89-.01,3.7.28,5.44.79,3.67,1.06,5.77,4.26,5.71,8.22Z"/><path class="cls-1" d="M133.28,196.98c-.35,7.3-6.44,9.4-12.59,9.53l-16.69-.02v-19.55h16.7c2.25.14,4.38.34,6.45,1.02,3.93,1.25,6.34,4.72,6.13,9.02Z"/><path class="cls-1" d="M133.28,196.98c-.35,7.3-6.44,9.4-12.59,9.52l-16.68-.02v-19.54s16.7,0,16.7,0c2.25.14,4.38.34,6.44,1.02,3.93,1.24,6.34,4.72,6.13,9.02Z"/><path class="cls-1" d="M129.46,159.23c-.05,3.29-1.2,6.28-4.05,7.76-2.11,1.09-4.53,1.48-6.93,1.49l-14.45.04-.03-18.27,14.31-.03c1.89,0,3.7.29,5.44.8,3.67,1.06,5.77,4.26,5.71,8.22Z"/><path class="cls-1" d="M270.02,344.38c-1.7.35-3.25.21-4.9.18-.17-1.4-.16-2.54.01-3.84,2.1.15,5.84-.78,6.1,1.53.1.8-.14,1.91-1.21,2.13Z"/><path class="cls-1" d="M189.71,344.41c-1.69.29-3.26.22-4.85.11l-.04-3.75c1.93.06,5.98-.86,6.21,1.53.08.85-.22,1.93-1.32,2.11Z"/><path class="cls-1" d="M253.89,348.38c-.62,1.84-2.26,2.71-3.88,2.69-1.64-.03-3.2-1.01-3.77-2.73-.62-1.85-.6-3.96.23-5.73.69-1.45,2.15-2.1,3.53-2.12,1.56-.01,3.07.67,3.75,2.25.74,1.7.78,3.75.14,5.64Z"/><path class="cls-1" d="M221.71,350.84c-1.11.01-2.12.16-3.21-.06l-.02-9.95c2.24-.26,5.59-.59,6.29,2.36.55,2.36.91,7.62-3.06,7.65Z"/><path class="cls-1" d="M365.11,347.23c-1.4.31-2.68.16-4.04.07.67-1.92,1.13-3.5,2.01-5.35l2.03,5.28Z"/><path class="cls-1" d="M306.06,347.27c-1.43.19-2.68.19-4.06.03.7-1.93,1.12-3.53,2.04-5.36l2.02,5.33Z"/><path class="cls-1" d="M82.14,344.32c-1.65.44-3.4.28-5.15.2-.08-1.42-.08-2.51.01-3.8,2.25.17,5.9-.83,6.19,1.59.09.75-.16,1.77-1.05,2.01Z"/><path class="cls-1" d="M64.07,74v352h371.86V74H64.07ZM73.85,83.48h352.86v38.56H73.85v-38.56ZM420.61,166.46l.06,19.77h-46.01s-.04,19.08-.04,19.08h52.08v22.03l-81.74-.04v-96.95s81.7-.03,81.7-.03v20.7h-51.98s-.04,15.43-.04,15.43h45.97ZM333.11,168.08l.03,19.58h-37.15v39.62l-29.77.05.02-96.98,73.15-.02.04,20.85h-43.39l-.06,16.9h37.13ZM206.1,153.23c0-.08.07-.15.15-.15.09,0,.15.07.15.15,0,.09-.06.15-.15.15-.08,0-.15-.06-.15-.15ZM205.63,154.95l-54.19,142.66-32.28-62.46,29.75,26.55,57.04-108.05c.53.6-.11.76-.32,1.3ZM200.46,130.5l28.59-.06,32.42,96.97-28.56.15-32.45-97.06ZM73.85,130.61l56.09-.03c4.84,0,9.24.65,13.62,2.24,10.21,3.88,16.29,13.71,15.05,24.55-.69,6.01-3.54,11.41-8.49,14.96-2.11,1.5-4.31,2.37-6.83,3.53,9.09,2.41,16.42,6.96,18.94,16.31,3.35,12.41-1.64,25.53-13.32,31.29-2.35,1.16-4.75,1.51-7.27,2.16-5.25.52-10.18,1.64-15.57,1.65l-52.22.05v-96.71ZM73.85,234.31l38.19-.02,40.08,85.1,32.94-85.07,241.65-.02.02,94.13H73.84v-94.12ZM409.78,348.65c-.84,3.16-3.53,5.05-6.95,5.09-3.32.04-6.08-1.57-7.1-4.61-.73-2.17-.7-4.57.03-6.73,1.03-3.06,3.77-4.62,6.91-4.6,3.11.03,5.87,1.53,6.91,4.53.71,2.03.76,4.25.2,6.32ZM390.99,353.38c-.18.04-.34.05-.51.07-.84.1-1.62.05-2.58-.02l-.02-10.65v-4.58c.83-.19,1.62-.18,2.51-.1.18.02.36.03.55.05l.06,15.23s0,0,0,0h0ZM384.03,339.37c0,.4-.05.81-.11,1.25h0s0,0,0,0l-4.4.1-.05,8.94-.02,3.67s0,0,0,0h0c-.13.04-.27.05-.4.08-.56.11-1.13.12-1.72.08-.32-.02-.65-.05-.99-.08h0s0,0,0,0l-.04-12.68-2.97-.08-1.45-.04s0,0,0,0h0c-.06-.37-.09-.73-.09-1.07-.01-.49.02-.97.12-1.46h11.92c.17.4.21.83.21,1.29ZM370.88,353.4c-1.02,0-2.3.38-3.2-.08-.86-.71-.8-2.23-1.55-3.31l-6.06.05c-.68.99-.57,2.43-1.4,3.19-.67.61-2.11.15-3.12.12l5.89-15.21c1.18-.16,2.18-.16,3.35.01l6.09,15.23ZM340.05,348.5c.17-.03.33-.05.48-.08.84-.13,1.59-.21,2.46-.19.11.4.25.78.42,1.12.29.6.66,1.1,1.17,1.34.75.36,1.52.46,2.28.38.06,0,.12,0,.18-.01,0,0,.02,0,.03,0,.26-.04.53-.1.79-.19.42-.13.78-.38,1.04-.69.09-.1.14-.22.21-.34.03-.06.08-.11.1-.17.08-.18.13-.36.14-.55.21-2.61-5.89-1.75-8.06-4.56-.5-.65-.8-1.49-.75-2.62.07-1.68,1.23-3.23,3.05-3.77,1.83-.54,3.85-.51,5.63.15.25.09.47.21.69.34,1.31.77,2.11,2.14,2.08,3.72-1.07.26-2.02.25-3.07.15-.12-.72-.44-1.24-.89-1.59-.54-.41-1.27-.57-2.04-.54-.29.01-.59.04-.89.11-.09.02-.18.05-.27.08-.61.18-1.16.48-1.27,1.1-.04.22-.03.42.03.59.72,2.18,8.7.9,8.89,6.33.07,1.99-.94,3.97-3.16,4.7-.41.13-.81.23-1.22.3-.03,0-.05.01-.08.02-.03,0-.06,0-.1,0-1.28.2-2.56.13-3.78-.12-.26-.05-.51-.13-.76-.22-.04-.01-.08-.02-.12-.04-1.95-.77-3.16-2.63-3.24-4.75,0,0,0,0,0,0,0,0,0,0,0,0ZM335.88,353.34c-.52.14-1.01.18-1.51.18-.06,0-.12,0-.18,0-.44-.01-.89-.06-1.38-.12h0s0,0,0,0v-10.58s-.01-4.57-.01-4.57c0,0,0,0,0,0h0c.17-.04.32-.06.48-.09.9-.16,1.71-.13,2.6.1h0s0,0,0,0v15.08s0,0,0,0h0ZM327.67,353.33c-.41.12-.81.16-1.21.17-.63.03-1.26-.03-1.94-.09h0s0,0,0,0l-.27-.44-5.76-9.21-.08,4.55-.09,5.1c-.61.08-1.24.09-1.89.06-.31-.01-.62-.02-.96-.06v-15.25c.4-.07.81-.1,1.22-.11.45-.01.9,0,1.36.06.15.02.3.03.46.06l6.16,9.77.04-3.17.07-6.62s0,0,0,0h0c.19-.03.38-.05.57-.07.4-.04.81-.04,1.24-.02.33.02.67.04,1.02.09h0s0,0,0,0l.02,8.05.02,7.12s0,0,0,0h0ZM311.77,353.32c-.98.13-2.52.53-3.22-.09-.83-.72-.73-2.12-1.45-3.19-2.1-.1-4.13-.1-6.09.01-.68.98-.56,2.41-1.38,3.19-.66.62-2.11.15-3.13.14l5.83-15.15c1.12-.29,2.19-.19,3.39-.07l6.05,15.16ZM292.95,342.34l-2.95.57c-.79-1.77-2.21-2.59-4.06-2.41-.13.01-.26.04-.39.06-1.46.27-2.81,1.21-3.25,2.88-.11.43-.2.87-.25,1.31-.14,1.3,0,2.65.5,3.85,1.01,2.39,3.74,3.04,6.01,1.98.13-.06.25-.11.38-.17.46-.21.88-.41.98-.78.07-.26.15-.74.14-1.13,0-.24-.05-.45-.16-.54-.04-.04-.09-.06-.15-.06l-2.21-.12-1-.05s0,0,0,0h0c-.02-.13-.02-.26-.04-.39-.04-.41-.05-.8-.03-1.19.01-.27.04-.55.08-.83,0-.03,0-.05.01-.08h0s0,0,0,0l6.51-.02h0s0,0,0,0l.07,6.15c-.69.57-1.45,1.03-2.25,1.39-.97.45-2.01.75-3.07.88-1.16.14-2.36.08-3.54-.19-1.55-.35-2.85-1.17-3.79-2.33,0,0,0-.01-.01-.02-.18-.23-.35-.46-.5-.71-.03-.04-.05-.09-.07-.14-.28-.48-.51-.99-.67-1.54-.04-.13-.06-.26-.1-.39-.67-2.53-.45-5.21.97-7.41.52-.81,1.18-1.42,1.91-1.9.83-.54,1.76-.88,2.75-1.05.9-.16,1.85-.2,2.81-.11,2.33.22,4.34,1.42,5.1,3.52.11.3.2.62.25.96h0s0,0,0,0ZM264.96,353.35c-.96.23-1.97.22-3.03.02v-15.23c2.87-.12,5.69-.13,8.62.03,2.33.13,4.02,1.9,3.89,4.26.13,2.2-1.41,3.79-3.7,4.24,2.2,1.98,3.2,3.78,4.84,6.72-1.03.05-2.51.36-3.48-.03-1.95-1.62-3.73-7.68-6.89-6.07-.54,1.88.08,4.08-.25,6.06ZM257.49,346.96c-.31,4.29-3.55,6.92-7.65,6.79-3.41-.11-6.28-2.06-6.98-5.52-.33-1.62-.32-3.4.04-5,.79-3.52,3.74-5.49,7.25-5.44,3.5.06,6.38,2.05,7.14,5.54.24,1.13.29,2.36.2,3.63ZM227.69,349.49c-.89,2.6-3.1,3.96-5.7,3.96h-6.59s0-15.28,0-15.28c4.51.06,10.33-1.4,12.21,3.7.88,2.39.94,5.11.08,7.62ZM199.14,338.1h3.12s8.05-.03,8.05-.03c.27.6.31,1.3.2,1.96-.04.22-.09.44-.17.65l-8.01.05c-.05.35-.08.68-.11,1.02-.02.34-.03.68-.01,1.02.02.42.05.85.14,1.28l7.56.11c.08.53.11.99.09,1.52-.01.28-.03.58-.08.94l-6.19.13-1.46.03c-.05,1.46-.09,2.66.02,4.04h.58s7.79.07,7.79.07c.28.75.2,1.6.07,2.55h0l-11.57.03v-7.45s-.01-7.93-.01-7.93h0ZM195.37,353.42c-1.05-.02-2.43.33-3.46-.04-2.05-1.82-3.83-7.76-6.95-6.07l-.21,6.09c-1.01.13-2.02.2-3.05-.06l.02-15.21c2.69-.13,5.3-.05,7.96-.02,2.53.03,4.39,1.42,4.58,3.92.17,2.2-1.12,4.21-3.78,4.63,2.18,1.84,3.57,4.3,4.89,6.76ZM165.44,338.13h0s11.23-.07,11.23-.07c.02.09.04.17.06.26.11.47.15.95.1,1.45-.02.28-.06.57-.14.88h-.81s-7.23.06-7.23.06c-.05.24-.09.48-.12.71-.1.82-.06,1.66.11,2.59l7.57.09c.01.11.02.22.03.33.04.5.03,1,.02,1.67,0,.16,0,.31,0,.49h0s-.61.01-.61.01l-7.09.17c-.05,1.44-.13,2.64.05,3.99,0,.03,0,.05,0,.07l8.39.07c.19.87.19,1.64-.01,2.57h-11.55v-15.35ZM161.49,339.52c0,.35-.05.7-.11,1.08h0s0,0,0,0l-4.41.13-.02,12.64c-.89.17-1.72.19-2.55.07-.18-.03-.36-.05-.55-.09h0s0,0,0,0v-3.06s-.04-9.49-.04-9.49l-4.36-.12c-.06-.16-.1-.33-.13-.5-.13-.65-.07-1.36.09-2.08h11.91c.16.48.2.95.19,1.43ZM141.67,347.63c-2.29-1.19-7.72-.96-7.81-5.36,0-.17.01-.34.03-.51.12-1.19.74-2.27,1.77-2.96.29-.2.61-.38.97-.5,1.82-.64,3.86-.64,5.71-.04,1.54.5,2.65,1.77,2.9,3.29.05.27.07.55.06.83,0,0,0,0,0,0,0,0,0,0,0,0-.11.03-.22.04-.32.07-.91.2-1.72.15-2.7.12-.18-1.04-.79-1.66-1.58-1.95-.68-.25-1.5-.27-2.32-.07-.46.11-.89.3-1.17.59-.15.16-.27.33-.31.56-.08.49.07.84.4,1.12,1.79,1.52,8.56.83,8.52,6.05,0,.39-.06.76-.15,1.13-.25,1.08-.84,2.06-1.8,2.72-.44.31-.96.55-1.55.7-1.64.41-3.3.46-4.85.08-.31-.08-.62-.16-.91-.28-2-.76-3.08-2.67-3.21-4.7.77-.13,1.45-.26,2.15-.26.04,0,.08,0,.11,0,0,0,.01,0,.02,0,.24,0,.48.02.72.06,0,0,0,0,0,0,0,0,0,0,0,0,0,0,0,.01,0,.02.26,1.13.84,2.06,1.63,2.42.01,0,.02.01.04.02.65.28,1.44.39,2.18.32.11,0,.21-.02.32-.04.02,0,.03,0,.05,0,.11-.02.22-.04.33-.07,0,0,.02,0,.03,0,.43-.12.82-.31,1.12-.58.34-.3.57-.7.62-1.21.07-.73-.34-1.19-1-1.53ZM126.09,338.28c.73-.23,1.41-.27,2.15-.19.31.03.62.08.95.15l.02,15.13c-.53.12-1.01.16-1.48.16-.54,0-1.06-.05-1.63-.1h0s0,0,0,0v-15.13s0,0,0,0h0ZM110.9,348.89c1.12,2.2,3.74,2.68,5.9,1.69.29-.13.58-.26.83-.4.26-.16.47-.34.56-.58.15-.41.26-1.57-.16-1.68-.35-.1-.69-.12-1.02-.12-.75,0-1.47.12-2.23-.03-.02-.14-.03-.27-.05-.41-.08-.71-.07-1.38.06-2.12l6.58.08h0s0,0,0,0l-.02,6.14s0,0,0,0h0c-2.57,2.17-6.91,2.96-10.08,1.61-1.19-.51-2.22-1.31-2.92-2.46-.6-.99-.99-2.07-1.19-3.18-.4-2.17-.05-4.44,1.1-6.36.77-1.29,1.87-2.12,3.13-2.62,1.2-.48,2.55-.65,3.93-.59.23,0,.45.04.67.07,1.38.17,2.66.68,3.6,1.53.8.73,1.37,1.69,1.49,2.91-.42.11-.81.19-1.19.26-.5.1-.98.17-1.47.23-.09.01-.19.02-.28.03,0,0,0,0,0,0,0,0,0,0,0,0-.11-.3-.26-.56-.42-.8-.55-.83-1.35-1.35-2.32-1.52-.32-.05-.65-.08-1-.06-1.43.08-2.68.73-3.4,1.85-.24.37-.42.8-.53,1.27-.41,1.74-.38,3.67.44,5.28ZM94.5,344.05l7.55.11c.09.55.11,1.01.08,1.57-.01.27-.03.56-.07.9l-7.6.11c-.16,1.35-.16,2.65,0,4.09l8.43.09s0,0,0,0h0c.17.76.17,1.46.08,2.24-.01.1-.02.21-.04.31h0s0,0,0,0h-11.61v-15.36l11.23-.04s0,0,0,0h0c.06.21.11.42.14.63.05.33.05.66.03.99-.02.3-.05.61-.11.94l-8.14.09c-.01.07-.02.13-.02.2-.04.29-.07.57-.09.86-.05.75-.01,1.5.15,2.26ZM73.86,338.12c3.04-.04,6.01-.2,9.05.12,2.31.24,3.56,2.17,3.53,4.29-.03,2.06-1.41,3.7-3.8,4.15,2.18,1.75,3.49,4.23,4.89,6.71-1.22.2-2.22.08-3.57.09l-3.53-5.2c-.77-1.13-2.15-1.53-3.47-1.03l-.04,6.17c-1.08.1-2.05.19-3.08-.08l.02-15.22ZM426.73,416.31H73.85v-53.39h352.88v53.39ZM425.93,353.49c-.61.06-1.19.01-1.81-.03-.16-.01-.32-.02-.49-.03l-3.17-4.98-2.94-4.62-.16,9.57c-.95.15-1.76.15-2.8,0h0s0,0,0,0v-6.08s-.02-9.12-.02-9.12c1-.25,1.92-.17,3-.07h0s0,0,0,0l6.16,9.84.17-9.76c.2-.05.4-.09.61-.12.69-.1,1.42-.07,2.23.14h0s0,0,0,0l.02,15.11c-.28.07-.54.12-.8.14Z"/><path class="cls-1" d="M406.7,347.75c-.44,2.08-2.09,3.29-3.89,3.32-1.86.04-3.53-1.09-4.06-3.02-.46-1.66-.45-3.5.17-5.11.61-1.6,2.09-2.39,3.6-2.45,1.55-.06,3.08.61,3.81,2.17.71,1.51.74,3.31.37,5.09Z"/><path class="cls-1" d="M150.47,380.49c2.65,7.51,2.49,19.47-4.38,25.04-2.5,2.03-5.65,3.03-8.91,3.04l-16.56.06v-37.44s16.55.05,16.55.05c6.18.02,11,3.42,13.3,9.24ZM143.45,396.7c1.22-6.16,2.08-18.13-6.58-18.89-2.96-.26-5.8-.29-8.67-.18v24.65c5.96-.3,13.35,1.71,15.25-5.58Z"/><path class="cls-1" d="M350.01,387.07c2.25-2.14,4.89-3.14,8.05-2.65,7.47,1.14,10.77,9.21,8.76,16.51-1.48,5.38-6.25,8.6-11.83,8.44s-9.91-3.74-11.39-9.17c-1.75-6.42-1.73-13.5.09-19.89,1.73-6.07,7.03-9.62,13.11-9.33,5.36.25,9.41,4.15,9.79,9.43l-6.86.63c-.36-2.89-2.19-4.5-4.94-4.01-3.95.7-4.85,6.1-4.78,10.06ZM359.74,392.87c-.66-1.95-2.4-3.17-4.27-3.2s-3.59.95-4.34,2.81c-1.13,2.81-.96,6.31.74,8.78,1.06,1.53,2.72,2.3,4.35,2.11,4.64-.53,4.64-7.17,3.52-10.5Z"/><path class="cls-1" d="M264.54,397.51c-.98,6.21-3.94,11.38-10.78,11.83-5.43.36-10.01-2.81-11.61-8.04-1.15-3.73-1.4-7.57-1.38-11.55.04-8.12,1.74-18.81,12.09-18.8,7.31,0,10.69,5.3,11.7,11.9.75,4.89.76,9.76-.01,14.67ZM257.3,396.63c.37-4.42.35-8.73,0-13.15-.23-2.91-1.24-6.71-4.6-6.54-3.28.16-3.97,4.21-4.18,7.06-.31,4.26-.31,8.44.02,12.7.23,3.03,1.24,7.09,4.86,6.67,2.97-.35,3.67-4.01,3.9-6.73Z"/><path class="cls-1" d="M220,402.94c2.39-1.11,3.24-3.55,3.21-6s-1.13-4.73-3.49-5.54c-1.5-.52-3.01-.11-4.68.21.03-1.97.43-3.76.66-5.64l1.99-.24c1.77-.21,3.16-1.43,3.65-2.84.62-1.78.45-3.76-1-5.01s-3.44-1.23-5.02-.35c-1.4.78-2.21,2.45-2.47,4.35l-6.55-1.09c.38-2.46,1.23-4.77,2.9-6.52,4.51-4.74,15.04-4.83,18.8,2.51,2.27,4.44.3,9.06-4.26,11.67,4.53,1.17,7.17,5.06,6.85,9.73-.48,6.91-6.53,11.56-13.4,11.2-6.01-.32-11-4.45-11.44-10.61l6.9-.81c.26,1.81.98,3.44,2.16,4.34,1.51,1.17,3.42,1.47,5.2.65Z"/><path class="cls-1" d="M318.67,381.71c-2.72,2.15-5.42,4.08-9.06,5.15-.33-2.11-.07-4.15-.14-6.4,4.34-1.78,8.91-4.9,10.61-9.45,2.04,0,3.9-.14,5.86.07v37.52s-7.22.01-7.22.01l-.05-26.9Z"/><path class="cls-1" d="M286.75,381.83c-2.94,2.06-5.57,4.13-9.15,5.05l-.07-6.41c4.41-1.79,8.9-4.89,10.65-9.47l5.79.04.02,37.5-7.19.08-.06-26.78Z"/><rect class="cls-1" x="100.1" y="371.2" width="7.6" height="37.44"/><rect class="cls-1" x="165.43" y="401.45" width="7.21" height="7.19"/><rect class="cls-1" x="165.43" y="381.55" width="7.21" height="7.19"/><path class="cls-1" d="M393.28,408.92c-3.15.74-6.34.53-9.2-.57-4.7-1.81-7.31-6.16-6.97-11.12.27-3.9,2.25-7.22,6.17-8.83-3.12-1.31-5.07-3.93-5.24-7.35-.22-4.43,2.44-8.22,6.71-9.49,3-.82,6.09-.82,9.09.01,4.02,1.23,6.66,4.66,6.72,8.87.05,3.44-1.67,6.28-5,7.94,4.26,1.85,6.45,5.58,6.19,10.07-.29,4.99-3.37,9.26-8.47,10.46ZM393.87,381.21c0-2.51-2.04-4.55-4.55-4.55s-4.55,2.04-4.55,4.55,2.04,4.55,4.55,4.55,4.55-2.04,4.55-4.55ZM394.43,395.63c-.4-1.9-1.77-3.42-3.29-3.88-1.89-.57-3.9-.38-5.21,1.04-2.2,2.4-2.31,6.17-.47,8.81,1.2,1.72,3.22,2.3,5.24,1.88,3.39-.71,4.39-4.75,3.73-7.84Z"/></svg>